SplineFontDB: 3.0
FontName: Clara-Regular
FullName: Clara-Regular
FamilyName: Clara
Weight: Book
Copyright: Copyright (c) 2010, Proyecto Demo (http://www.proyectodemo.cl/), with Reserved Font Name Clara.
Version: 1.002
ItalicAngle: 0
UnderlinePosition: -50
UnderlineWidth: 50
Ascent: 800
Descent: 200
sfntRevision: 0x00010000
LayerCount: 2
Layer: 0 1 "Back"  1
Layer: 1 1 "Fore"  0
XUID: [1021 288 713564382 11634618]
FSType: 0
OS2Version: 2
OS2_WeightWidthSlopeOnly: 0
OS2_UseTypoMetrics: 1
CreationTime: 1317467836
ModificationTime: 1319827386
PfmFamily: 17
TTFWeight: 400
TTFWidth: 5
LineGap: 0
VLineGap: 0
Panose: 2 0 0 0 0 0 0 0 0 0
OS2TypoAscent: 6203
OS2TypoAOffset: 1
OS2TypoDescent: -391
OS2TypoDOffset: 1
OS2TypoLinegap: 0
OS2WinAscent: 0
OS2WinAOffset: 1
OS2WinDescent: 0
OS2WinDOffset: 1
HheadAscent: 0
HheadAOffset: 1
HheadDescent: 0
HheadDOffset: 1
OS2SubXSize: 700
OS2SubYSize: 650
OS2SubXOff: 0
OS2SubYOff: 140
OS2SupXSize: 700
OS2SupYSize: 650
OS2SupXOff: 0
OS2SupYOff: 477
OS2StrikeYSize: 50
OS2StrikeYPos: 250
OS2Vendor: 'DEMO'
OS2CodePages: 20000193.c4000000
OS2UnicodeRanges: 8000002f.4000205b.00000000.00000000
Lookup: 1 0 0 "'aalt' Access All Alternates in Latin lookup 0"  {"'aalt' Access All Alternates in Latin lookup 0 subtable"  } ['aalt' ('latn' <'dflt' > ) ]
Lookup: 3 0 0 "'aalt' Access All Alternates in Latin lookup 1"  {"'aalt' Access All Alternates in Latin lookup 1 subtable"  } ['aalt' ('latn' <'dflt' > ) ]
Lookup: 1 0 0 "'smcp' Lowercase to Small Capitals in Latin lookup 2"  {"'smcp' Lowercase to Small Capitals in Latin lookup 2 subtable"  } ['smcp' ('latn' <'dflt' > ) ]
Lookup: 1 0 0 "'c2sc' Capitals to Small Capitals in Latin lookup 3"  {"'c2sc' Capitals to Small Capitals in Latin lookup 3 subtable"  } ['c2sc' ('latn' <'dflt' > ) ]
Lookup: 4 0 1 "'liga' Standard Ligatures in Latin lookup 4"  {"'liga' Standard Ligatures in Latin lookup 4 subtable"  } ['liga' ('latn' <'dflt' > ) ]

StartChar: exclam
Encoding: 33 33 4
Width: 391
GlyphClass: 2
Flags: W
LayerCount: 2
Fore
SplineSet
108 193 m 1,0,-1
 108 194 l 2,1,2
 108 226 108 226 194.5 432 c 128,-1,3
 281 638 281 638 328 679 c 1,4,5
 343 682 343 682 373 682 c 128,-1,6
 403 682 403 682 437 664 c 128,-1,7
 471 646 471 646 471 620 c 0,8,9
 471 604 471 604 455 588 c 0,10,11
 260 388 260 388 185 194 c 1,12,13
 172 184 172 184 146 184 c 128,-1,14
 120 184 120 184 108 193 c 1,0,-1
131 -4 m 1,15,16
 115 -10 115 -10 82.5 -10 c 128,-1,17
 50 -10 50 -10 32 1 c 1,18,19
 30 13 30 13 30 20 c 0,20,21
 30 66 30 66 58 91 c 128,-1,22
 86 116 86 116 134 116 c 0,23,24
 155 116 155 116 173 110 c 0,25,26
 180 107 180 107 180 89 c 128,-1,27
 180 71 180 71 165 39 c 128,-1,28
 150 7 150 7 131 -4 c 1,15,16
EndSplineSet
Substitution2: "'ornm' Ornaments in Latin lookup 23 subtable" camiseta1.ss03
Substitution2: "'aalt' Access All Alternates in Latin lookup 0 subtable" camiseta1.ss03
EndChar

StartChar: quotedbl
Encoding: 34 34 5
Width: 372
GlyphClass: 2
Flags: W
LayerCount: 2
Fore
SplineSet
482 649 m 1,0,1
 427 604 427 604 384.5 536.5 c 128,-1,2
 342 469 342 469 325 402 c 1,3,4
 321 398 321 398 310 398 c 0,5,6
 289 398 289 398 289 442 c 128,-1,7
 289 486 289 486 302 544.5 c 128,-1,8
 315 603 315 603 341 649 c 128,-1,9
 367 695 367 695 399 695 c 0,10,11
 444 695 444 695 482 649 c 1,0,1
303 649 m 1,12,13
 248 604 248 604 205.5 536.5 c 128,-1,14
 163 469 163 469 146 402 c 1,15,16
 142 398 142 398 131 398 c 0,17,18
 110 398 110 398 110 442 c 128,-1,19
 110 486 110 486 123 544.5 c 128,-1,20
 136 603 136 603 162 649 c 128,-1,21
 188 695 188 695 220 695 c 0,22,23
 265 695 265 695 303 649 c 1,12,13
EndSplineSet
EndChar

StartChar: numbersign
Encoding: 35 35 6
Width: 685
GlyphClass: 2
Flags: W
LayerCount: 2
Fore
SplineSet
223 206 m 1,0,-1
 252 292 l 1,1,2
 139 292 139 292 107 269 c 1,3,4
 91 269 91 269 91 297.5 c 128,-1,5
 91 326 91 326 113 355 c 128,-1,6
 135 384 135 384 168.5 384 c 128,-1,7
 202 384 202 384 279 377 c 1,8,9
 321 512 321 512 336 571 c 1,10,11
 362 584 362 584 386.5 584 c 128,-1,12
 411 584 411 584 411 573 c 2,13,-1
 411 572 l 1,14,15
 405 546 405 546 359 419 c 2,16,-1
 342 371 l 1,17,18
 385 367 385 367 431 367 c 1,19,20
 466 475 466 475 491 571 c 1,21,22
 517 584 517 584 541.5 584 c 128,-1,23
 566 584 566 584 566 573 c 2,24,-1
 566 572 l 1,25,26
 560 546 560 546 535.5 478.5 c 128,-1,27
 511 411 511 411 508 402 c 0,28,29
 499 377 499 377 496 368 c 1,30,31
 557 373 557 373 589 388 c 1,32,33
 600 366 600 366 600 340.5 c 128,-1,34
 600 315 600 315 581.5 297 c 128,-1,35
 563 279 563 279 536.5 279 c 128,-1,36
 510 279 510 279 466 282 c 1,37,38
 460 266 460 266 449.5 236.5 c 128,-1,39
 439 207 439 207 434 195 c 1,40,41
 510 198 510 198 547 216 c 1,42,43
 558 194 558 194 558 168.5 c 128,-1,44
 558 143 558 143 539.5 125 c 128,-1,45
 521 107 521 107 494 107 c 128,-1,46
 467 107 467 107 404 112 c 1,47,48
 346 -42 346 -42 342 -42 c 1,49,50
 342 -42 342 -42 334.5 -47 c 128,-1,51
 327 -52 327 -52 315 -52 c 128,-1,52
 303 -52 303 -52 296 -49 c 128,-1,53
 289 -46 289 -46 289 -44 c 2,54,-1
 289 -43 l 1,55,56
 308 5 308 5 347 115 c 1,57,58
 286 119 286 119 252 120 c 1,59,60
 212 10 212 10 199.5 -15.5 c 128,-1,61
 187 -41 187 -41 187 -43 c 1,62,63
 172 -52 172 -52 160 -52 c 128,-1,64
 148 -52 148 -52 141 -49 c 128,-1,65
 134 -46 134 -46 134 -44 c 2,66,-1
 134 -43 l 1,67,68
 165 40 165 40 193 120 c 1,69,70
 94 118 94 118 65 97 c 1,71,72
 49 97 49 97 49 125.5 c 128,-1,73
 49 154 49 154 71 183 c 128,-1,74
 93 212 93 212 131 212 c 0,75,76
 147 212 147 212 223 206 c 1,0,-1
374 196 m 1,77,-1
 405 286 l 1,78,79
 349 290 349 290 314 291 c 1,80,-1
 281 201 l 1,81,82
 312 198 312 198 374 196 c 1,77,-1
EndSplineSet
Substitution2: "'ornm' Ornaments in Latin lookup 23 subtable" camiseta3.ss03
Substitution2: "'aalt' Access All Alternates in Latin lookup 0 subtable" camiseta3.ss03
EndChar

StartChar: dollar
Encoding: 36 36 7
Width: 469
GlyphClass: 2
Flags: W
LayerCount: 2
Fore
SplineSet
213 -15 m 2,0,-1
 200 -15 l 1,1,2
 144 -160 144 -160 122 -200 c 1,3,4
 108 -209 108 -209 86 -209 c 128,-1,5
 64 -209 64 -209 64 -201 c 2,6,-1
 64 -200 l 1,7,8
 97 -115 97 -115 138 -5 c 1,9,10
 93 8 93 8 66.5 36.5 c 128,-1,11
 40 65 40 65 40 105 c 0,12,13
 40 128 40 128 51.5 148.5 c 128,-1,14
 63 169 63 169 75 178 c 2,15,-1
 87 188 l 1,16,17
 89 185 89 185 92.5 179 c 128,-1,18
 96 173 96 173 109 159 c 128,-1,19
 122 145 122 145 136 134 c 0,20,21
 173 105 173 105 222 105 c 128,-1,22
 271 105 271 105 304 118.5 c 128,-1,23
 337 132 337 132 337 154 c 128,-1,24
 337 176 337 176 315 190 c 128,-1,25
 293 204 293 204 261.5 216.5 c 128,-1,26
 230 229 230 229 198 244 c 128,-1,27
 166 259 166 259 144 285 c 128,-1,28
 122 311 122 311 122 346 c 0,29,30
 122 418 122 418 179 469 c 128,-1,31
 236 520 236 520 315 524 c 1,32,33
 359 661 359 661 365 687 c 1,34,35
 393 701 393 701 420.5 701 c 128,-1,36
 448 701 448 701 448 689 c 2,37,-1
 448 688 l 1,38,39
 441 657 441 657 391 518 c 1,40,41
 438 506 438 506 463.5 479.5 c 128,-1,42
 489 453 489 453 489 421.5 c 128,-1,43
 489 390 489 390 471 361.5 c 128,-1,44
 453 333 453 333 420 317 c 1,45,46
 413 360 413 360 379.5 384.5 c 128,-1,47
 346 409 346 409 297 409 c 128,-1,48
 248 409 248 409 222.5 394.5 c 128,-1,49
 197 380 197 380 197 358 c 128,-1,50
 197 336 197 336 232.5 316.5 c 128,-1,51
 268 297 268 297 310 283.5 c 128,-1,52
 352 270 352 270 387.5 240 c 128,-1,53
 423 210 423 210 423 167 c 0,54,55
 423 96 423 96 362.5 40.5 c 128,-1,56
 302 -15 302 -15 213 -15 c 2,0,-1
EndSplineSet
Substitution2: "'ornm' Ornaments in Latin lookup 23 subtable" camiseta4.ss03
Substitution2: "'aalt' Access All Alternates in Latin lookup 0 subtable" camiseta4.ss03
EndChar

StartChar: percent
Encoding: 37 37 8
Width: 920
GlyphClass: 3
Flags: W
LayerCount: 2
Fore
SplineSet
577 416 m 1,0,-1
 435 230 l 1,1,2
 524 287 524 287 646 334.5 c 128,-1,3
 768 382 768 382 823 382 c 0,4,5
 920 382 920 382 920 274 c 0,6,7
 920 214 920 214 873.5 143.5 c 128,-1,8
 827 73 827 73 755 24 c 128,-1,9
 683 -25 683 -25 618 -25 c 0,10,11
 580 -25 580 -25 554.5 0 c 128,-1,12
 529 25 529 25 529 67 c 0,13,14
 529 179 529 179 644 273 c 1,15,16
 502 223 502 223 365 125 c 1,17,18
 262 -24 262 -24 227.5 -64.5 c 128,-1,19
 193 -105 193 -105 163 -105 c 0,20,21
 148 -105 148 -105 131 -88 c 128,-1,22
 114 -71 114 -71 114 -54 c 0,23,24
 114 -27 114 -27 166 27.5 c 128,-1,25
 218 82 218 82 297 142 c 1,26,-1
 507 430 l 1,27,28
 480 441 480 441 424 484 c 1,29,-1
 421 486 l 1,30,31
 407 403 407 403 339.5 326 c 128,-1,32
 272 249 272 249 183 249 c 0,33,34
 139 249 139 249 112 277 c 128,-1,35
 85 305 85 305 85 355 c 128,-1,36
 85 405 85 405 115.5 458 c 128,-1,37
 146 511 146 511 191 546.5 c 128,-1,38
 236 582 236 582 287 603 c 128,-1,39
 338 624 338 624 375.5 624 c 128,-1,40
 413 624 413 624 444 608 c 0,41,42
 484 586 484 586 518 558.5 c 128,-1,43
 552 531 552 531 571 518 c 1,44,-1
 673 656 l 2,45,46
 708 702 708 702 736.5 702 c 128,-1,47
 765 702 765 702 785 684 c 128,-1,48
 805 666 805 666 805 644 c 0,49,50
 805 584 805 584 733.5 508.5 c 128,-1,51
 662 433 662 433 577 416 c 1,0,-1
756 286 m 1,52,53
 641 225 641 225 641 113 c 0,54,55
 641 68 641 68 684 68 c 0,56,57
 736 68 736 68 772 119.5 c 128,-1,58
 808 171 808 171 808 228 c 0,59,60
 808 256 808 256 793.5 270.5 c 128,-1,61
 779 285 779 285 756 286 c 1,52,53
370 524 m 1,62,63
 339 542 339 542 314 542 c 0,64,65
 272 542 272 542 234.5 503 c 128,-1,66
 197 464 197 464 197 405 c 0,67,68
 197 381 197 381 207.5 361.5 c 128,-1,69
 218 342 218 342 240 342 c 0,70,71
 278 342 278 342 308 380 c 1,72,73
 357 439 357 439 370 524 c 1,62,63
EndSplineSet
Substitution2: "'ornm' Ornaments in Latin lookup 23 subtable" camiseta5.ss03
Ligature2: "'frac' Diagonal Fractions in Latin lookup 18 subtable" zero.tnum slash zerosuperior
Ligature2: "'frac' Diagonal Fractions in Latin lookup 18 subtable" zero.tnum slash zero.tnum
Ligature2: "'frac' Diagonal Fractions in Latin lookup 18 subtable" zero.tnum slash uni2080
Ligature2: "'frac' Diagonal Fractions in Latin lookup 18 subtable" zero.tnum slash zero
Ligature2: "'frac' Diagonal Fractions in Latin lookup 18 subtable" zero.tnum fraction zerosuperior
Ligature2: "'frac' Diagonal Fractions in Latin lookup 18 subtable" zero.tnum fraction zero.tnum
Ligature2: "'frac' Diagonal Fractions in Latin lookup 18 subtable" zero.tnum fraction uni2080
Ligature2: "'frac' Diagonal Fractions in Latin lookup 18 subtable" zero.tnum fraction zero
Ligature2: "'frac' Diagonal Fractions in Latin lookup 18 subtable" uni2080 slash zerosuperior
Ligature2: "'frac' Diagonal Fractions in Latin lookup 18 subtable" uni2080 slash zero.tnum
Ligature2: "'frac' Diagonal Fractions in Latin lookup 18 subtable" uni2080 slash uni2080
Ligature2: "'frac' Diagonal Fractions in Latin lookup 18 subtable" uni2080 slash zero
Ligature2: "'frac' Diagonal Fractions in Latin lookup 18 subtable" uni2080 fraction zerosuperior
Ligature2: "'frac' Diagonal Fractions in Latin lookup 18 subtable" uni2080 fraction zero.tnum
Ligature2: "'frac' Diagonal Fractions in Latin lookup 18 subtable" uni2080 fraction uni2080
Ligature2: "'frac' Diagonal Fractions in Latin lookup 18 subtable" uni2080 fraction zero
Ligature2: "'frac' Diagonal Fractions in Latin lookup 18 subtable" zerosuperior slash zerosuperior
Ligature2: "'frac' Diagonal Fractions in Latin lookup 18 subtable" zerosuperior slash zero.tnum
Ligature2: "'frac' Diagonal Fractions in Latin lookup 18 subtable" zerosuperior slash uni2080
Ligature2: "'frac' Diagonal Fractions in Latin lookup 18 subtable" zerosuperior slash zero
Ligature2: "'frac' Diagonal Fractions in Latin lookup 18 subtable" zerosuperior fraction zerosuperior
Ligature2: "'frac' Diagonal Fractions in Latin lookup 18 subtable" zerosuperior fraction zero.tnum
Ligature2: "'frac' Diagonal Fractions in Latin lookup 18 subtable" zerosuperior fraction uni2080
Ligature2: "'frac' Diagonal Fractions in Latin lookup 18 subtable" zerosuperior fraction zero
Ligature2: "'frac' Diagonal Fractions in Latin lookup 18 subtable" zero slash zerosuperior
Ligature2: "'frac' Diagonal Fractions in Latin lookup 18 subtable" zero slash zero.tnum
Ligature2: "'frac' Diagonal Fractions in Latin lookup 18 subtable" zero slash uni2080
Ligature2: "'frac' Diagonal Fractions in Latin lookup 18 subtable" zero slash zero
Ligature2: "'frac' Diagonal Fractions in Latin lookup 18 subtable" zero fraction zerosuperior
Ligature2: "'frac' Diagonal Fractions in Latin lookup 18 subtable" zero fraction zero.tnum
Ligature2: "'frac' Diagonal Fractions in Latin lookup 18 subtable" zero fraction uni2080
Ligature2: "'frac' Diagonal Fractions in Latin lookup 18 subtable" zero fraction zero
Substitution2: "'aalt' Access All Alternates in Latin lookup 0 subtable" camiseta5.ss03
EndChar

StartChar: ampersand
Encoding: 38 38 9
Width: 820
GlyphClass: 2
Flags: W
LayerCount: 2
Fore
SplineSet
824 278 m 1,0,1
 813 313 813 313 761 313 c 0,2,3
 725 313 725 313 683.5 289 c 128,-1,4
 642 265 642 265 597 238.5 c 128,-1,5
 552 212 552 212 512 207 c 1,6,7
 503 181 503 181 482.5 154 c 128,-1,8
 462 127 462 127 446 113 c 2,9,-1
 430 99 l 1,10,11
 488 62 488 62 592 62 c 0,12,13
 651 62 651 62 689 85.5 c 128,-1,14
 727 109 727 109 737 142 c 1,15,-1
 743 142 l 1,16,-1
 767 138 l 1,17,18
 767 51 767 51 711.5 -4.5 c 128,-1,19
 656 -60 656 -60 557 -60 c 0,20,21
 481 -60 481 -60 422 -26 c 0,22,23
 367 6 367 6 348 27 c 1,24,-1
 338 37 l 1,25,26
 330 32 330 32 316.5 24 c 128,-1,27
 303 16 303 16 259 3 c 128,-1,28
 215 -10 215 -10 171 -10 c 0,29,30
 98 -10 98 -10 42.5 27.5 c 128,-1,31
 -13 65 -13 65 -13 142 c 0,32,33
 -13 187 -13 187 6.5 227.5 c 128,-1,34
 26 268 26 268 58 295 c 0,35,36
 121 349 121 349 189 368 c 1,37,38
 189 479 189 479 251 570 c 0,39,40
 281 614 281 614 330.5 640.5 c 128,-1,41
 380 667 380 667 441.5 667 c 128,-1,42
 503 667 503 667 536.5 634.5 c 128,-1,43
 570 602 570 602 570 549 c 128,-1,44
 570 496 570 496 538 463.5 c 128,-1,45
 506 431 506 431 465 431 c 0,46,47
 442 431 442 431 422 441 c 1,48,49
 428 462 428 462 428 488 c 0,50,51
 428 541 428 541 378.5 541 c 128,-1,52
 329 541 329 541 294.5 497.5 c 128,-1,53
 260 454 260 454 260 377 c 128,-1,54
 260 300 260 300 293.5 235 c 128,-1,55
 327 170 327 170 382 128 c 1,56,57
 424 170 424 170 441 217 c 1,58,59
 416 231 416 231 398.5 254 c 128,-1,60
 381 277 381 277 381 300.5 c 128,-1,61
 381 324 381 324 400.5 347 c 128,-1,62
 420 370 420 370 445.5 370 c 128,-1,63
 471 370 471 370 497.5 344.5 c 128,-1,64
 524 319 524 319 524 278 c 2,65,-1
 524 268 l 1,66,67
 536 268 536 268 567.5 296 c 128,-1,68
 599 324 599 324 633.5 357 c 128,-1,69
 668 390 668 390 713.5 418 c 128,-1,70
 759 446 759 446 794.5 446 c 128,-1,71
 830 446 830 446 850 428 c 128,-1,72
 870 410 870 410 870 383 c 0,73,74
 870 339 870 339 858 294 c 1,75,-1
 855 281 l 1,76,77
 832 278 832 278 824 278 c 1,0,1
297 80 m 1,78,79
 294 84 294 84 288 91 c 128,-1,80
 282 98 282 98 266 121 c 128,-1,81
 250 144 250 144 237 169 c 0,82,83
 204 232 204 232 194 311 c 1,84,85
 130 261 130 261 130 178 c 0,86,87
 130 129 130 129 161 99.5 c 128,-1,88
 192 70 192 70 235 70 c 0,89,90
 273 70 273 70 297 80 c 1,78,79
EndSplineSet
Substitution2: "Single Substitution lookup 24 subtable" ampersand.alt
Substitution2: "'aalt' Access All Alternates in Latin lookup 0 subtable" ampersand.alt
PairPos2: "'kern' Horizontal Kerning in Latin lookup 0 per glyph data 1" z.alt dx=0 dy=0 dh=15 dv=0 dx=0 dy=0 dh=0 dv=0
PairPos2: "'kern' Horizontal Kerning in Latin lookup 0 per glyph data 1" zcaron dx=0 dy=0 dh=15 dv=0 dx=0 dy=0 dh=0 dv=0
PairPos2: "'kern' Horizontal Kerning in Latin lookup 0 per glyph data 1" zdotaccent dx=0 dy=0 dh=15 dv=0 dx=0 dy=0 dh=0 dv=0
PairPos2: "'kern' Horizontal Kerning in Latin lookup 0 per glyph data 1" zacute dx=0 dy=0 dh=15 dv=0 dx=0 dy=0 dh=0 dv=0
PairPos2: "'kern' Horizontal Kerning in Latin lookup 0 per glyph data 1" jcircumflex dx=0 dy=0 dh=30 dv=0 dx=0 dy=0 dh=0 dv=0
PairPos2: "'kern' Horizontal Kerning in Latin lookup 0 per glyph data 1" z dx=0 dy=0 dh=15 dv=0 dx=0 dy=0 dh=0 dv=0
PairPos2: "'kern' Horizontal Kerning in Latin lookup 0 per glyph data 1" w dx=0 dy=0 dh=25 dv=0 dx=0 dy=0 dh=0 dv=0
PairPos2: "'kern' Horizontal Kerning in Latin lookup 0 per glyph data 1" v dx=0 dy=0 dh=30 dv=0 dx=0 dy=0 dh=0 dv=0
PairPos2: "'kern' Horizontal Kerning in Latin lookup 0 per glyph data 1" j dx=0 dy=0 dh=30 dv=0 dx=0 dy=0 dh=0 dv=0
EndChar

StartChar: quotesingle
Encoding: 39 39 10
Width: 193
GlyphClass: 2
Flags: W
LayerCount: 2
Fore
SplineSet
303 649 m 1,0,1
 248 604 248 604 205.5 536.5 c 128,-1,2
 163 469 163 469 146 402 c 1,3,4
 142 398 142 398 131 398 c 0,5,6
 110 398 110 398 110 442 c 128,-1,7
 110 486 110 486 123 544.5 c 128,-1,8
 136 603 136 603 162 649 c 128,-1,9
 188 695 188 695 220 695 c 0,10,11
 265 695 265 695 303 649 c 1,0,1
EndSplineSet
EndChar

StartChar: parenleft
Encoding: 40 40 11
Width: 474
GlyphClass: 2
Flags: W
LayerCount: 2
Fore
SplineSet
310 -126 m 1,0,1
 304 -158 304 -158 280 -181 c 128,-1,2
 256 -204 256 -204 222 -204 c 0,3,4
 153 -204 153 -204 101.5 -126 c 128,-1,5
 50 -48 50 -48 50 73.5 c 128,-1,6
 50 195 50 195 101 311 c 128,-1,7
 152 427 152 427 231 510 c 128,-1,8
 310 593 310 593 408.5 644.5 c 128,-1,9
 507 696 507 696 600 696 c 0,10,11
 659 696 659 696 659 654 c 0,12,13
 659 638 659 638 649 619 c 1,14,15
 626 632 626 632 590 632 c 0,16,17
 529 632 529 632 459 590 c 128,-1,18
 389 548 389 548 329.5 480.5 c 128,-1,19
 270 413 270 413 230.5 316.5 c 128,-1,20
 191 220 191 220 191 131.5 c 128,-1,21
 191 43 191 43 221 -24 c 128,-1,22
 251 -91 251 -91 310 -126 c 1,0,1
EndSplineSet
PairPos2: "'kern' Horizontal Kerning in Latin lookup 0 per glyph data 1" c_k dx=0 dy=0 dh=-26 dv=0 dx=0 dy=0 dh=0 dv=0
PairPos2: "'kern' Horizontal Kerning in Latin lookup 0 per glyph data 1" c_h dx=0 dy=0 dh=-26 dv=0 dx=0 dy=0 dh=0 dv=0
PairPos2: "'kern' Horizontal Kerning in Latin lookup 0 per glyph data 1" s_p dx=0 dy=0 dh=-13 dv=0 dx=0 dy=0 dh=0 dv=0
PairPos2: "'kern' Horizontal Kerning in Latin lookup 0 per glyph data 1" odieresis.alt dx=0 dy=0 dh=-26 dv=0 dx=0 dy=0 dh=0 dv=0
PairPos2: "'kern' Horizontal Kerning in Latin lookup 0 per glyph data 1" otilde.alt dx=0 dy=0 dh=-26 dv=0 dx=0 dy=0 dh=0 dv=0
PairPos2: "'kern' Horizontal Kerning in Latin lookup 0 per glyph data 1" ocircumflex.alt dx=0 dy=0 dh=-26 dv=0 dx=0 dy=0 dh=0 dv=0
PairPos2: "'kern' Horizontal Kerning in Latin lookup 0 per glyph data 1" ograve.alt dx=0 dy=0 dh=-26 dv=0 dx=0 dy=0 dh=0 dv=0
PairPos2: "'kern' Horizontal Kerning in Latin lookup 0 per glyph data 1" oacute.alt dx=0 dy=0 dh=-26 dv=0 dx=0 dy=0 dh=0 dv=0
PairPos2: "'kern' Horizontal Kerning in Latin lookup 0 per glyph data 1" o.fina dx=0 dy=0 dh=-26 dv=0 dx=0 dy=0 dh=0 dv=0
PairPos2: "'kern' Horizontal Kerning in Latin lookup 0 per glyph data 1" o.alt dx=0 dy=0 dh=-26 dv=0 dx=0 dy=0 dh=0 dv=0
PairPos2: "'kern' Horizontal Kerning in Latin lookup 0 per glyph data 1" k.alt dx=0 dy=0 dh=65 dv=0 dx=0 dy=0 dh=0 dv=0
PairPos2: "'kern' Horizontal Kerning in Latin lookup 0 per glyph data 1" h.alt dx=0 dy=0 dh=65 dv=0 dx=0 dy=0 dh=0 dv=0
PairPos2: "'kern' Horizontal Kerning in Latin lookup 0 per glyph data 1" f_k dx=0 dy=0 dh=110 dv=0 dx=0 dy=0 dh=0 dv=0
PairPos2: "'kern' Horizontal Kerning in Latin lookup 0 per glyph data 1" f_j dx=0 dy=0 dh=110 dv=0 dx=0 dy=0 dh=0 dv=0
PairPos2: "'kern' Horizontal Kerning in Latin lookup 0 per glyph data 1" f_h dx=0 dy=0 dh=110 dv=0 dx=0 dy=0 dh=0 dv=0
PairPos2: "'kern' Horizontal Kerning in Latin lookup 0 per glyph data 1" f_b dx=0 dy=0 dh=110 dv=0 dx=0 dy=0 dh=0 dv=0
PairPos2: "'kern' Horizontal Kerning in Latin lookup 0 per glyph data 1" f.alt dx=0 dy=0 dh=110 dv=0 dx=0 dy=0 dh=0 dv=0
PairPos2: "'kern' Horizontal Kerning in Latin lookup 0 per glyph data 1" d.alt dx=0 dy=0 dh=-26 dv=0 dx=0 dy=0 dh=0 dv=0
PairPos2: "'kern' Horizontal Kerning in Latin lookup 0 per glyph data 1" c_t dx=0 dy=0 dh=-26 dv=0 dx=0 dy=0 dh=0 dv=0
PairPos2: "'kern' Horizontal Kerning in Latin lookup 0 per glyph data 1" c_l dx=0 dy=0 dh=-26 dv=0 dx=0 dy=0 dh=0 dv=0
PairPos2: "'kern' Horizontal Kerning in Latin lookup 0 per glyph data 1" aring.alt dx=0 dy=0 dh=-26 dv=0 dx=0 dy=0 dh=0 dv=0
PairPos2: "'kern' Horizontal Kerning in Latin lookup 0 per glyph data 1" atilde.alt dx=0 dy=0 dh=-26 dv=0 dx=0 dy=0 dh=0 dv=0
PairPos2: "'kern' Horizontal Kerning in Latin lookup 0 per glyph data 1" adieresis.alt dx=0 dy=0 dh=-26 dv=0 dx=0 dy=0 dh=0 dv=0
PairPos2: "'kern' Horizontal Kerning in Latin lookup 0 per glyph data 1" acircumflex.alt dx=0 dy=0 dh=-26 dv=0 dx=0 dy=0 dh=0 dv=0
PairPos2: "'kern' Horizontal Kerning in Latin lookup 0 per glyph data 1" agrave.alt dx=0 dy=0 dh=-26 dv=0 dx=0 dy=0 dh=0 dv=0
PairPos2: "'kern' Horizontal Kerning in Latin lookup 0 per glyph data 1" aacute.alt dx=0 dy=0 dh=-26 dv=0 dx=0 dy=0 dh=0 dv=0
PairPos2: "'kern' Horizontal Kerning in Latin lookup 0 per glyph data 1" a.alt dx=0 dy=0 dh=-26 dv=0 dx=0 dy=0 dh=0 dv=0
PairPos2: "'kern' Horizontal Kerning in Latin lookup 0 per glyph data 1" T_h dx=0 dy=0 dh=133 dv=0 dx=0 dy=0 dh=0 dv=0
PairPos2: "'kern' Horizontal Kerning in Latin lookup 0 per glyph data 1" Q.alt dx=0 dy=0 dh=-20 dv=0 dx=0 dy=0 dh=0 dv=0
PairPos2: "'kern' Horizontal Kerning in Latin lookup 0 per glyph data 1" O.alt02 dx=0 dy=0 dh=-20 dv=0 dx=0 dy=0 dh=0 dv=0
PairPos2: "'kern' Horizontal Kerning in Latin lookup 0 per glyph data 1" L_l dx=0 dy=0 dh=-26 dv=0 dx=0 dy=0 dh=0 dv=0
PairPos2: "'kern' Horizontal Kerning in Latin lookup 0 per glyph data 1" K.alt dx=0 dy=0 dh=47 dv=0 dx=0 dy=0 dh=0 dv=0
PairPos2: "'kern' Horizontal Kerning in Latin lookup 0 per glyph data 1" G.alt dx=0 dy=0 dh=-20 dv=0 dx=0 dy=0 dh=0 dv=0
PairPos2: "'kern' Horizontal Kerning in Latin lookup 0 per glyph data 1" C_h dx=0 dy=0 dh=-20 dv=0 dx=0 dy=0 dh=0 dv=0
PairPos2: "'kern' Horizontal Kerning in Latin lookup 0 per glyph data 1" f_f_i dx=0 dy=0 dh=110 dv=0 dx=0 dy=0 dh=0 dv=0
PairPos2: "'kern' Horizontal Kerning in Latin lookup 0 per glyph data 1" f_f dx=0 dy=0 dh=110 dv=0 dx=0 dy=0 dh=0 dv=0
PairPos2: "'kern' Horizontal Kerning in Latin lookup 0 per glyph data 1" scommaaccent dx=0 dy=0 dh=-13 dv=0 dx=0 dy=0 dh=0 dv=0
PairPos2: "'kern' Horizontal Kerning in Latin lookup 0 per glyph data 1" florin dx=0 dy=0 dh=110 dv=0 dx=0 dy=0 dh=0 dv=0
PairPos2: "'kern' Horizontal Kerning in Latin lookup 0 per glyph data 1" Tcaron dx=0 dy=0 dh=133 dv=0 dx=0 dy=0 dh=0 dv=0
PairPos2: "'kern' Horizontal Kerning in Latin lookup 0 per glyph data 1" Tcommaaccent dx=0 dy=0 dh=133 dv=0 dx=0 dy=0 dh=0 dv=0
PairPos2: "'kern' Horizontal Kerning in Latin lookup 0 per glyph data 1" scaron dx=0 dy=0 dh=-13 dv=0 dx=0 dy=0 dh=0 dv=0
PairPos2: "'kern' Horizontal Kerning in Latin lookup 0 per glyph data 1" scedilla dx=0 dy=0 dh=-13 dv=0 dx=0 dy=0 dh=0 dv=0
PairPos2: "'kern' Horizontal Kerning in Latin lookup 0 per glyph data 1" scircumflex dx=0 dy=0 dh=-13 dv=0 dx=0 dy=0 dh=0 dv=0
PairPos2: "'kern' Horizontal Kerning in Latin lookup 0 per glyph data 1" sacute dx=0 dy=0 dh=-13 dv=0 dx=0 dy=0 dh=0 dv=0
PairPos2: "'kern' Horizontal Kerning in Latin lookup 0 per glyph data 1" Rcaron dx=0 dy=0 dh=47 dv=0 dx=0 dy=0 dh=0 dv=0
PairPos2: "'kern' Horizontal Kerning in Latin lookup 0 per glyph data 1" Rcommaaccent dx=0 dy=0 dh=47 dv=0 dx=0 dy=0 dh=0 dv=0
PairPos2: "'kern' Horizontal Kerning in Latin lookup 0 per glyph data 1" Racute dx=0 dy=0 dh=47 dv=0 dx=0 dy=0 dh=0 dv=0
PairPos2: "'kern' Horizontal Kerning in Latin lookup 0 per glyph data 1" oe dx=0 dy=0 dh=-26 dv=0 dx=0 dy=0 dh=0 dv=0
PairPos2: "'kern' Horizontal Kerning in Latin lookup 0 per glyph data 1" OE dx=0 dy=0 dh=-20 dv=0 dx=0 dy=0 dh=0 dv=0
PairPos2: "'kern' Horizontal Kerning in Latin lookup 0 per glyph data 1" ohungarumlaut dx=0 dy=0 dh=-26 dv=0 dx=0 dy=0 dh=0 dv=0
PairPos2: "'kern' Horizontal Kerning in Latin lookup 0 per glyph data 1" Ohungarumlaut dx=0 dy=0 dh=-20 dv=0 dx=0 dy=0 dh=0 dv=0
PairPos2: "'kern' Horizontal Kerning in Latin lookup 0 per glyph data 1" omacron dx=0 dy=0 dh=-26 dv=0 dx=0 dy=0 dh=0 dv=0
PairPos2: "'kern' Horizontal Kerning in Latin lookup 0 per glyph data 1" Omacron dx=0 dy=0 dh=-20 dv=0 dx=0 dy=0 dh=0 dv=0
PairPos2: "'kern' Horizontal Kerning in Latin lookup 0 per glyph data 1" Lcaron dx=0 dy=0 dh=-26 dv=0 dx=0 dy=0 dh=0 dv=0
PairPos2: "'kern' Horizontal Kerning in Latin lookup 0 per glyph data 1" Lcommaaccent dx=0 dy=0 dh=-26 dv=0 dx=0 dy=0 dh=0 dv=0
PairPos2: "'kern' Horizontal Kerning in Latin lookup 0 per glyph data 1" Lacute dx=0 dy=0 dh=-26 dv=0 dx=0 dy=0 dh=0 dv=0
PairPos2: "'kern' Horizontal Kerning in Latin lookup 0 per glyph data 1" kcommaaccent dx=0 dy=0 dh=65 dv=0 dx=0 dy=0 dh=0 dv=0
PairPos2: "'kern' Horizontal Kerning in Latin lookup 0 per glyph data 1" Kcommaaccent dx=0 dy=0 dh=54 dv=0 dx=0 dy=0 dh=0 dv=0
PairPos2: "'kern' Horizontal Kerning in Latin lookup 0 per glyph data 1" jcircumflex dx=0 dy=0 dh=125 dv=0 dx=0 dy=0 dh=0 dv=0
PairPos2: "'kern' Horizontal Kerning in Latin lookup 0 per glyph data 1" hbar dx=0 dy=0 dh=65 dv=0 dx=0 dy=0 dh=0 dv=0
PairPos2: "'kern' Horizontal Kerning in Latin lookup 0 per glyph data 1" hcircumflex dx=0 dy=0 dh=65 dv=0 dx=0 dy=0 dh=0 dv=0
PairPos2: "'kern' Horizontal Kerning in Latin lookup 0 per glyph data 1" Hcircumflex dx=0 dy=0 dh=47 dv=0 dx=0 dy=0 dh=0 dv=0
PairPos2: "'kern' Horizontal Kerning in Latin lookup 0 per glyph data 1" gcommaaccent dx=0 dy=0 dh=-26 dv=0 dx=0 dy=0 dh=0 dv=0
PairPos2: "'kern' Horizontal Kerning in Latin lookup 0 per glyph data 1" Gcommaaccent dx=0 dy=0 dh=-13 dv=0 dx=0 dy=0 dh=0 dv=0
PairPos2: "'kern' Horizontal Kerning in Latin lookup 0 per glyph data 1" gdotaccent dx=0 dy=0 dh=-26 dv=0 dx=0 dy=0 dh=0 dv=0
PairPos2: "'kern' Horizontal Kerning in Latin lookup 0 per glyph data 1" Gdotaccent dx=0 dy=0 dh=-13 dv=0 dx=0 dy=0 dh=0 dv=0
PairPos2: "'kern' Horizontal Kerning in Latin lookup 0 per glyph data 1" gbreve dx=0 dy=0 dh=-26 dv=0 dx=0 dy=0 dh=0 dv=0
PairPos2: "'kern' Horizontal Kerning in Latin lookup 0 per glyph data 1" Gbreve dx=0 dy=0 dh=-13 dv=0 dx=0 dy=0 dh=0 dv=0
PairPos2: "'kern' Horizontal Kerning in Latin lookup 0 per glyph data 1" gcircumflex dx=0 dy=0 dh=-26 dv=0 dx=0 dy=0 dh=0 dv=0
PairPos2: "'kern' Horizontal Kerning in Latin lookup 0 per glyph data 1" Gcircumflex dx=0 dy=0 dh=-13 dv=0 dx=0 dy=0 dh=0 dv=0
PairPos2: "'kern' Horizontal Kerning in Latin lookup 0 per glyph data 1" ecaron dx=0 dy=0 dh=-26 dv=0 dx=0 dy=0 dh=0 dv=0
PairPos2: "'kern' Horizontal Kerning in Latin lookup 0 per glyph data 1" eogonek dx=0 dy=0 dh=-26 dv=0 dx=0 dy=0 dh=0 dv=0
PairPos2: "'kern' Horizontal Kerning in Latin lookup 0 per glyph data 1" edotaccent dx=0 dy=0 dh=-26 dv=0 dx=0 dy=0 dh=0 dv=0
PairPos2: "'kern' Horizontal Kerning in Latin lookup 0 per glyph data 1" emacron dx=0 dy=0 dh=-26 dv=0 dx=0 dy=0 dh=0 dv=0
PairPos2: "'kern' Horizontal Kerning in Latin lookup 0 per glyph data 1" dcroat dx=0 dy=0 dh=-26 dv=0 dx=0 dy=0 dh=0 dv=0
PairPos2: "'kern' Horizontal Kerning in Latin lookup 0 per glyph data 1" dcaron dx=0 dy=0 dh=-26 dv=0 dx=0 dy=0 dh=0 dv=0
PairPos2: "'kern' Horizontal Kerning in Latin lookup 0 per glyph data 1" Dcaron dx=0 dy=0 dh=46 dv=0 dx=0 dy=0 dh=0 dv=0
PairPos2: "'kern' Horizontal Kerning in Latin lookup 0 per glyph data 1" ccaron dx=0 dy=0 dh=-26 dv=0 dx=0 dy=0 dh=0 dv=0
PairPos2: "'kern' Horizontal Kerning in Latin lookup 0 per glyph data 1" Ccaron dx=0 dy=0 dh=-20 dv=0 dx=0 dy=0 dh=0 dv=0
PairPos2: "'kern' Horizontal Kerning in Latin lookup 0 per glyph data 1" cdotaccent dx=0 dy=0 dh=-26 dv=0 dx=0 dy=0 dh=0 dv=0
PairPos2: "'kern' Horizontal Kerning in Latin lookup 0 per glyph data 1" Cdotaccent dx=0 dy=0 dh=-20 dv=0 dx=0 dy=0 dh=0 dv=0
PairPos2: "'kern' Horizontal Kerning in Latin lookup 0 per glyph data 1" ccircumflex dx=0 dy=0 dh=-26 dv=0 dx=0 dy=0 dh=0 dv=0
PairPos2: "'kern' Horizontal Kerning in Latin lookup 0 per glyph data 1" Ccircumflex dx=0 dy=0 dh=-20 dv=0 dx=0 dy=0 dh=0 dv=0
PairPos2: "'kern' Horizontal Kerning in Latin lookup 0 per glyph data 1" cacute dx=0 dy=0 dh=-26 dv=0 dx=0 dy=0 dh=0 dv=0
PairPos2: "'kern' Horizontal Kerning in Latin lookup 0 per glyph data 1" Cacute dx=0 dy=0 dh=-20 dv=0 dx=0 dy=0 dh=0 dv=0
PairPos2: "'kern' Horizontal Kerning in Latin lookup 0 per glyph data 1" aogonek dx=0 dy=0 dh=-26 dv=0 dx=0 dy=0 dh=0 dv=0
PairPos2: "'kern' Horizontal Kerning in Latin lookup 0 per glyph data 1" abreve dx=0 dy=0 dh=-26 dv=0 dx=0 dy=0 dh=0 dv=0
PairPos2: "'kern' Horizontal Kerning in Latin lookup 0 per glyph data 1" amacron dx=0 dy=0 dh=-26 dv=0 dx=0 dy=0 dh=0 dv=0
PairPos2: "'kern' Horizontal Kerning in Latin lookup 0 per glyph data 1" odieresis dx=0 dy=0 dh=-26 dv=0 dx=0 dy=0 dh=0 dv=0
PairPos2: "'kern' Horizontal Kerning in Latin lookup 0 per glyph data 1" otilde dx=0 dy=0 dh=-26 dv=0 dx=0 dy=0 dh=0 dv=0
PairPos2: "'kern' Horizontal Kerning in Latin lookup 0 per glyph data 1" ocircumflex dx=0 dy=0 dh=-26 dv=0 dx=0 dy=0 dh=0 dv=0
PairPos2: "'kern' Horizontal Kerning in Latin lookup 0 per glyph data 1" oacute dx=0 dy=0 dh=-26 dv=0 dx=0 dy=0 dh=0 dv=0
PairPos2: "'kern' Horizontal Kerning in Latin lookup 0 per glyph data 1" ograve dx=0 dy=0 dh=-26 dv=0 dx=0 dy=0 dh=0 dv=0
PairPos2: "'kern' Horizontal Kerning in Latin lookup 0 per glyph data 1" edieresis dx=0 dy=0 dh=-26 dv=0 dx=0 dy=0 dh=0 dv=0
PairPos2: "'kern' Horizontal Kerning in Latin lookup 0 per glyph data 1" ecircumflex dx=0 dy=0 dh=-26 dv=0 dx=0 dy=0 dh=0 dv=0
PairPos2: "'kern' Horizontal Kerning in Latin lookup 0 per glyph data 1" eacute dx=0 dy=0 dh=-26 dv=0 dx=0 dy=0 dh=0 dv=0
PairPos2: "'kern' Horizontal Kerning in Latin lookup 0 per glyph data 1" egrave dx=0 dy=0 dh=-26 dv=0 dx=0 dy=0 dh=0 dv=0
PairPos2: "'kern' Horizontal Kerning in Latin lookup 0 per glyph data 1" ccedilla dx=0 dy=0 dh=-26 dv=0 dx=0 dy=0 dh=0 dv=0
PairPos2: "'kern' Horizontal Kerning in Latin lookup 0 per glyph data 1" ae dx=0 dy=0 dh=-26 dv=0 dx=0 dy=0 dh=0 dv=0
PairPos2: "'kern' Horizontal Kerning in Latin lookup 0 per glyph data 1" aring dx=0 dy=0 dh=-26 dv=0 dx=0 dy=0 dh=0 dv=0
PairPos2: "'kern' Horizontal Kerning in Latin lookup 0 per glyph data 1" adieresis dx=0 dy=0 dh=-26 dv=0 dx=0 dy=0 dh=0 dv=0
PairPos2: "'kern' Horizontal Kerning in Latin lookup 0 per glyph data 1" atilde dx=0 dy=0 dh=-26 dv=0 dx=0 dy=0 dh=0 dv=0
PairPos2: "'kern' Horizontal Kerning in Latin lookup 0 per glyph data 1" acircumflex dx=0 dy=0 dh=-26 dv=0 dx=0 dy=0 dh=0 dv=0
PairPos2: "'kern' Horizontal Kerning in Latin lookup 0 per glyph data 1" aacute dx=0 dy=0 dh=-26 dv=0 dx=0 dy=0 dh=0 dv=0
PairPos2: "'kern' Horizontal Kerning in Latin lookup 0 per glyph data 1" agrave dx=0 dy=0 dh=-26 dv=0 dx=0 dy=0 dh=0 dv=0
PairPos2: "'kern' Horizontal Kerning in Latin lookup 0 per glyph data 1" germandbls dx=0 dy=0 dh=146 dv=0 dx=0 dy=0 dh=0 dv=0
PairPos2: "'kern' Horizontal Kerning in Latin lookup 0 per glyph data 1" Thorn dx=0 dy=0 dh=47 dv=0 dx=0 dy=0 dh=0 dv=0
PairPos2: "'kern' Horizontal Kerning in Latin lookup 0 per glyph data 1" Oslash dx=0 dy=0 dh=-20 dv=0 dx=0 dy=0 dh=0 dv=0
PairPos2: "'kern' Horizontal Kerning in Latin lookup 0 per glyph data 1" Odieresis dx=0 dy=0 dh=-20 dv=0 dx=0 dy=0 dh=0 dv=0
PairPos2: "'kern' Horizontal Kerning in Latin lookup 0 per glyph data 1" Otilde dx=0 dy=0 dh=-20 dv=0 dx=0 dy=0 dh=0 dv=0
PairPos2: "'kern' Horizontal Kerning in Latin lookup 0 per glyph data 1" Ocircumflex dx=0 dy=0 dh=-20 dv=0 dx=0 dy=0 dh=0 dv=0
PairPos2: "'kern' Horizontal Kerning in Latin lookup 0 per glyph data 1" Oacute dx=0 dy=0 dh=-20 dv=0 dx=0 dy=0 dh=0 dv=0
PairPos2: "'kern' Horizontal Kerning in Latin lookup 0 per glyph data 1" Ograve dx=0 dy=0 dh=-20 dv=0 dx=0 dy=0 dh=0 dv=0
PairPos2: "'kern' Horizontal Kerning in Latin lookup 0 per glyph data 1" Ccedilla dx=0 dy=0 dh=-20 dv=0 dx=0 dy=0 dh=0 dv=0
PairPos2: "'kern' Horizontal Kerning in Latin lookup 0 per glyph data 1" s dx=0 dy=0 dh=-13 dv=0 dx=0 dy=0 dh=0 dv=0
PairPos2: "'kern' Horizontal Kerning in Latin lookup 0 per glyph data 1" q dx=0 dy=0 dh=-26 dv=0 dx=0 dy=0 dh=0 dv=0
PairPos2: "'kern' Horizontal Kerning in Latin lookup 0 per glyph data 1" o dx=0 dy=0 dh=-26 dv=0 dx=0 dy=0 dh=0 dv=0
PairPos2: "'kern' Horizontal Kerning in Latin lookup 0 per glyph data 1" k dx=0 dy=0 dh=65 dv=0 dx=0 dy=0 dh=0 dv=0
PairPos2: "'kern' Horizontal Kerning in Latin lookup 0 per glyph data 1" j dx=0 dy=0 dh=125 dv=0 dx=0 dy=0 dh=0 dv=0
PairPos2: "'kern' Horizontal Kerning in Latin lookup 0 per glyph data 1" h dx=0 dy=0 dh=65 dv=0 dx=0 dy=0 dh=0 dv=0
PairPos2: "'kern' Horizontal Kerning in Latin lookup 0 per glyph data 1" g dx=0 dy=0 dh=-26 dv=0 dx=0 dy=0 dh=0 dv=0
PairPos2: "'kern' Horizontal Kerning in Latin lookup 0 per glyph data 1" f dx=0 dy=0 dh=110 dv=0 dx=0 dy=0 dh=0 dv=0
PairPos2: "'kern' Horizontal Kerning in Latin lookup 0 per glyph data 1" e dx=0 dy=0 dh=-26 dv=0 dx=0 dy=0 dh=0 dv=0
PairPos2: "'kern' Horizontal Kerning in Latin lookup 0 per glyph data 1" d dx=0 dy=0 dh=-26 dv=0 dx=0 dy=0 dh=0 dv=0
PairPos2: "'kern' Horizontal Kerning in Latin lookup 0 per glyph data 1" c dx=0 dy=0 dh=-26 dv=0 dx=0 dy=0 dh=0 dv=0
PairPos2: "'kern' Horizontal Kerning in Latin lookup 0 per glyph data 1" b dx=0 dy=0 dh=65 dv=0 dx=0 dy=0 dh=0 dv=0
PairPos2: "'kern' Horizontal Kerning in Latin lookup 0 per glyph data 1" a dx=0 dy=0 dh=-26 dv=0 dx=0 dy=0 dh=0 dv=0
PairPos2: "'kern' Horizontal Kerning in Latin lookup 0 per glyph data 1" T dx=0 dy=0 dh=133 dv=0 dx=0 dy=0 dh=0 dv=0
PairPos2: "'kern' Horizontal Kerning in Latin lookup 0 per glyph data 1" R dx=0 dy=0 dh=47 dv=0 dx=0 dy=0 dh=0 dv=0
PairPos2: "'kern' Horizontal Kerning in Latin lookup 0 per glyph data 1" Q dx=0 dy=0 dh=-20 dv=0 dx=0 dy=0 dh=0 dv=0
PairPos2: "'kern' Horizontal Kerning in Latin lookup 0 per glyph data 1" P dx=0 dy=0 dh=47 dv=0 dx=0 dy=0 dh=0 dv=0
PairPos2: "'kern' Horizontal Kerning in Latin lookup 0 per glyph data 1" O dx=0 dy=0 dh=-20 dv=0 dx=0 dy=0 dh=0 dv=0
PairPos2: "'kern' Horizontal Kerning in Latin lookup 0 per glyph data 1" L dx=0 dy=0 dh=-26 dv=0 dx=0 dy=0 dh=0 dv=0
PairPos2: "'kern' Horizontal Kerning in Latin lookup 0 per glyph data 1" K dx=0 dy=0 dh=54 dv=0 dx=0 dy=0 dh=0 dv=0
PairPos2: "'kern' Horizontal Kerning in Latin lookup 0 per glyph data 1" H dx=0 dy=0 dh=47 dv=0 dx=0 dy=0 dh=0 dv=0
PairPos2: "'kern' Horizontal Kerning in Latin lookup 0 per glyph data 1" G dx=0 dy=0 dh=-13 dv=0 dx=0 dy=0 dh=0 dv=0
PairPos2: "'kern' Horizontal Kerning in Latin lookup 0 per glyph data 1" F dx=0 dy=0 dh=86 dv=0 dx=0 dy=0 dh=0 dv=0
PairPos2: "'kern' Horizontal Kerning in Latin lookup 0 per glyph data 1" D dx=0 dy=0 dh=46 dv=0 dx=0 dy=0 dh=0 dv=0
PairPos2: "'kern' Horizontal Kerning in Latin lookup 0 per glyph data 1" C dx=0 dy=0 dh=-20 dv=0 dx=0 dy=0 dh=0 dv=0
PairPos2: "'kern' Horizontal Kerning in Latin lookup 0 per glyph data 1" B dx=0 dy=0 dh=46 dv=0 dx=0 dy=0 dh=0 dv=0
PairPos2: "'kern' Horizontal Kerning in Latin lookup 0 per glyph data 1" eight dx=0 dy=0 dh=40 dv=0 dx=0 dy=0 dh=0 dv=0
EndChar

StartChar: parenright
Encoding: 41 41 12
Width: 473
GlyphClass: 2
Flags: W
LayerCount: 2
Fore
SplineSet
-175 -127 m 1,0,1
 -152 -140 -152 -140 -116 -140 c 0,2,3
 -56 -140 -56 -140 13.5 -98.5 c 128,-1,4
 83 -57 83 -57 142.5 10.5 c 128,-1,5
 202 78 202 78 242 173.5 c 128,-1,6
 282 269 282 269 282 358.5 c 128,-1,7
 282 448 282 448 252.5 515.5 c 128,-1,8
 223 583 223 583 163 618 c 1,9,10
 169 650 169 650 193 673 c 128,-1,11
 217 696 217 696 251 696 c 0,12,13
 319 696 319 696 371 619 c 128,-1,14
 423 542 423 542 423 419.5 c 128,-1,15
 423 297 423 297 372 181 c 128,-1,16
 321 65 321 65 242.5 -18 c 128,-1,17
 164 -101 164 -101 65.5 -152.5 c 128,-1,18
 -33 -204 -33 -204 -126 -204 c 0,19,20
 -185 -204 -185 -204 -185 -162 c 0,21,22
 -185 -146 -185 -146 -175 -127 c 1,0,1
EndSplineSet
EndChar

StartChar: asterisk
Encoding: 42 42 13
Width: 472
GlyphClass: 2
Flags: W
LayerCount: 2
Fore
SplineSet
342 412 m 1,0,1
 365 347 365 347 412 298 c 1,2,3
 362 249 362 249 323 249 c 0,4,5
 260 249 260 249 260 366 c 0,6,7
 260 399 260 399 262 414 c 1,8,9
 244 400 244 400 164 318 c 1,10,11
 133 335 133 335 116.5 358 c 128,-1,12
 100 381 100 381 100 400 c 0,13,14
 100 452 100 452 241 489 c 1,15,16
 191 526 191 526 115 540 c 1,17,18
 124 586 124 586 146.5 614.5 c 128,-1,19
 169 643 169 643 187 643 c 0,20,21
 240 643 240 643 303 535 c 1,22,23
 320 579 320 579 320 609 c 128,-1,24
 320 639 320 639 316 670 c 1,25,26
 352 673 352 673 353 673 c 0,27,28
 438 673 438 673 438 616 c 0,29,30
 438 566 438 566 368 488 c 1,31,32
 430 488 430 488 500 519 c 1,33,34
 522 478 522 478 522 445 c 0,35,36
 522 381 522 381 455 381 c 0,37,38
 408 381 408 381 342 412 c 1,0,1
EndSplineSet
PairPos2: "'kern' Horizontal Kerning in Latin lookup 0 per glyph data 1" z.alt dx=0 dy=0 dh=20 dv=0 dx=0 dy=0 dh=0 dv=0
PairPos2: "'kern' Horizontal Kerning in Latin lookup 0 per glyph data 1" zcaron dx=0 dy=0 dh=20 dv=0 dx=0 dy=0 dh=0 dv=0
PairPos2: "'kern' Horizontal Kerning in Latin lookup 0 per glyph data 1" zdotaccent dx=0 dy=0 dh=20 dv=0 dx=0 dy=0 dh=0 dv=0
PairPos2: "'kern' Horizontal Kerning in Latin lookup 0 per glyph data 1" zacute dx=0 dy=0 dh=20 dv=0 dx=0 dy=0 dh=0 dv=0
PairPos2: "'kern' Horizontal Kerning in Latin lookup 0 per glyph data 1" z dx=0 dy=0 dh=20 dv=0 dx=0 dy=0 dh=0 dv=0
PairPos2: "'kern' Horizontal Kerning in Latin lookup 0 per glyph data 1" w dx=0 dy=0 dh=25 dv=0 dx=0 dy=0 dh=0 dv=0
PairPos2: "'kern' Horizontal Kerning in Latin lookup 0 per glyph data 1" v dx=0 dy=0 dh=25 dv=0 dx=0 dy=0 dh=0 dv=0
PairPos2: "'kern' Horizontal Kerning in Latin lookup 0 per glyph data 1" t dx=0 dy=0 dh=25 dv=0 dx=0 dy=0 dh=0 dv=0
PairPos2: "'kern' Horizontal Kerning in Latin lookup 0 per glyph data 1" p dx=0 dy=0 dh=20 dv=0 dx=0 dy=0 dh=0 dv=0
EndChar

StartChar: plus
Encoding: 43 43 14
Width: 500
GlyphClass: 2
Flags: W
LayerCount: 2
Fore
SplineSet
290 283 m 1,0,-1
 320 283 l 2,1,2
 395 283 395 283 437 304 c 1,3,4
 448 282 448 282 448 255 c 128,-1,5
 448 228 448 228 429 207 c 128,-1,6
 410 186 410 186 383 186 c 0,7,8
 373 186 373 186 254 200 c 1,9,10
 234 152 234 152 234 126 c 128,-1,11
 234 100 234 100 240 87 c 1,12,13
 230 70 230 70 205 54.5 c 128,-1,14
 180 39 180 39 160 39 c 0,15,16
 126 39 126 39 126 86.5 c 128,-1,17
 126 134 126 134 162 208 c 1,18,-1
 149 208 l 2,19,20
 64 208 64 208 33 176 c 1,21,22
 17 176 17 176 17 207 c 128,-1,23
 17 238 17 238 39 269 c 128,-1,24
 61 300 61 300 99 300 c 0,25,26
 111 300 111 300 201 291 c 1,27,28
 225 349 225 349 225 406 c 0,29,30
 225 424 225 424 224 433 c 1,31,32
 250 435 250 435 256 435 c 0,33,34
 322 435 322 435 322 387 c 0,35,36
 322 356 322 356 290 283 c 1,0,-1
EndSplineSet
EndChar

StartChar: comma
Encoding: 44 44 15
Width: 240
GlyphClass: 2
Flags: W
LayerCount: 2
Fore
SplineSet
-45 -88 m 1,0,1
 -8 -86 -8 -86 28 -66 c 128,-1,2
 64 -46 64 -46 82 -9 c 1,3,4
 42 -9 42 -9 28 0 c 1,5,6
 25 9 25 9 25 21 c 0,7,8
 25 71 25 71 56 99 c 1,9,10
 88 126 88 126 140 126 c 0,11,12
 164 126 164 126 183 120 c 1,13,14
 190 116 190 116 190 102 c 0,15,16
 190 54 190 54 165 1.5 c 128,-1,17
 140 -51 140 -51 92.5 -90 c 128,-1,18
 45 -129 45 -129 -11 -129 c 0,19,20
 -45 -129 -45 -129 -45 -88 c 1,0,1
EndSplineSet
EndChar

StartChar: hyphen
Encoding: 45 45 16
Width: 495
GlyphClass: 2
Flags: W
LayerCount: 2
Fore
SplineSet
84 167 m 1,0,1
 74 167 74 167 65 182 c 128,-1,2
 56 197 56 197 56 221.5 c 128,-1,3
 56 246 56 246 74.5 265.5 c 128,-1,4
 93 285 93 285 131 285 c 128,-1,5
 169 285 169 285 236 278 c 128,-1,6
 303 271 303 271 348.5 271 c 128,-1,7
 394 271 394 271 419 289 c 1,8,9
 429 265 429 265 429 249 c 0,10,11
 429 184 429 184 338 184 c 0,12,13
 307 184 307 184 240.5 191 c 128,-1,14
 174 198 174 198 146 198 c 128,-1,15
 118 198 118 198 102 189 c 128,-1,16
 86 180 86 180 84 167 c 1,0,1
EndSplineSet
PairPos2: "'kern' Horizontal Kerning in Latin lookup 0 per glyph data 1" T_h dx=0 dy=0 dh=-30 dv=0 dx=0 dy=0 dh=0 dv=0
PairPos2: "'kern' Horizontal Kerning in Latin lookup 0 per glyph data 1" Tcaron dx=0 dy=0 dh=-30 dv=0 dx=0 dy=0 dh=0 dv=0
PairPos2: "'kern' Horizontal Kerning in Latin lookup 0 per glyph data 1" Tcommaaccent dx=0 dy=0 dh=-30 dv=0 dx=0 dy=0 dh=0 dv=0
PairPos2: "'kern' Horizontal Kerning in Latin lookup 0 per glyph data 1" Jcircumflex dx=0 dy=0 dh=-35 dv=0 dx=0 dy=0 dh=0 dv=0
PairPos2: "'kern' Horizontal Kerning in Latin lookup 0 per glyph data 1" T dx=0 dy=0 dh=-30 dv=0 dx=0 dy=0 dh=0 dv=0
PairPos2: "'kern' Horizontal Kerning in Latin lookup 0 per glyph data 1" J dx=0 dy=0 dh=-35 dv=0 dx=0 dy=0 dh=0 dv=0
PairPos2: "'kern' Horizontal Kerning in Latin lookup 0 per glyph data 1" F dx=0 dy=0 dh=-35 dv=0 dx=0 dy=0 dh=0 dv=0
EndChar

StartChar: period
Encoding: 46 46 17
Width: 240
GlyphClass: 2
Flags: W
LayerCount: 2
Fore
SplineSet
137 -6 m 1,0,1
 117 -12 117 -12 82 -12 c 128,-1,2
 47 -12 47 -12 28 0 c 1,3,4
 25 18 25 18 25 21 c 0,5,6
 25 71 25 71 56 99 c 1,7,8
 88 126 88 126 140 126 c 0,9,10
 164 126 164 126 183 120 c 1,11,12
 190 116 190 116 190 96.5 c 128,-1,13
 190 77 190 77 173.5 41.5 c 128,-1,14
 157 6 157 6 137 -6 c 1,0,1
EndSplineSet
EndChar

StartChar: slash
Encoding: 47 47 18
Width: 438
GlyphClass: 2
Flags: W
LayerCount: 2
Fore
SplineSet
492 724 m 1,0,1
 510 730 510 730 549 730 c 128,-1,2
 588 730 588 730 588 710 c 0,3,4
 588 704 588 704 583 696 c 0,5,6
 430 444 430 444 250.5 194 c 128,-1,7
 71 -56 71 -56 -78 -207 c 0,8,9
 -84 -214 -84 -214 -101 -214 c 128,-1,10
 -118 -214 -118 -214 -134 -207.5 c 128,-1,11
 -150 -201 -150 -201 -150 -193 c 0,12,13
 -150 -189 -150 -189 -148 -187 c 0,14,15
 79 64 79 64 492 724 c 1,0,1
EndSplineSet
PairPos2: "'kern' Horizontal Kerning in Latin lookup 0 per glyph data 1" W.alt.001 dx=0 dy=0 dh=100 dv=0 dx=0 dy=0 dh=0 dv=0
PairPos2: "'kern' Horizontal Kerning in Latin lookup 0 per glyph data 1" W.alt dx=0 dy=0 dh=150 dv=0 dx=0 dy=0 dh=0 dv=0
PairPos2: "'kern' Horizontal Kerning in Latin lookup 0 per glyph data 1" T_h dx=0 dy=0 dh=95 dv=0 dx=0 dy=0 dh=0 dv=0
PairPos2: "'kern' Horizontal Kerning in Latin lookup 0 per glyph data 1" T.alt dx=0 dy=0 dh=115 dv=0 dx=0 dy=0 dh=0 dv=0
PairPos2: "'kern' Horizontal Kerning in Latin lookup 0 per glyph data 1" R.alt dx=0 dy=0 dh=70 dv=0 dx=0 dy=0 dh=0 dv=0
PairPos2: "'kern' Horizontal Kerning in Latin lookup 0 per glyph data 1" P.alt dx=0 dy=0 dh=55 dv=0 dx=0 dy=0 dh=0 dv=0
PairPos2: "'kern' Horizontal Kerning in Latin lookup 0 per glyph data 1" Numero dx=0 dy=0 dh=185 dv=0 dx=0 dy=0 dh=0 dv=0
PairPos2: "'kern' Horizontal Kerning in Latin lookup 0 per glyph data 1" N.alt dx=0 dy=0 dh=100 dv=0 dx=0 dy=0 dh=0 dv=0
PairPos2: "'kern' Horizontal Kerning in Latin lookup 0 per glyph data 1" M.alt dx=0 dy=0 dh=-20 dv=0 dx=0 dy=0 dh=0 dv=0
PairPos2: "'kern' Horizontal Kerning in Latin lookup 0 per glyph data 1" L_l dx=0 dy=0 dh=-10 dv=0 dx=0 dy=0 dh=0 dv=0
PairPos2: "'kern' Horizontal Kerning in Latin lookup 0 per glyph data 1" J.alt dx=0 dy=0 dh=135 dv=0 dx=0 dy=0 dh=0 dv=0
PairPos2: "'kern' Horizontal Kerning in Latin lookup 0 per glyph data 1" I.alt dx=0 dy=0 dh=25 dv=0 dx=0 dy=0 dh=0 dv=0
PairPos2: "'kern' Horizontal Kerning in Latin lookup 0 per glyph data 1" H.alt dx=0 dy=0 dh=30 dv=0 dx=0 dy=0 dh=0 dv=0
PairPos2: "'kern' Horizontal Kerning in Latin lookup 0 per glyph data 1" A.alt2 dx=0 dy=0 dh=-130 dv=0 dx=0 dy=0 dh=0 dv=0
PairPos2: "'kern' Horizontal Kerning in Latin lookup 0 per glyph data 1" A.alt dx=0 dy=0 dh=-125 dv=0 dx=0 dy=0 dh=0 dv=0
PairPos2: "'kern' Horizontal Kerning in Latin lookup 0 per glyph data 1" Zcaron dx=0 dy=0 dh=45 dv=0 dx=0 dy=0 dh=0 dv=0
PairPos2: "'kern' Horizontal Kerning in Latin lookup 0 per glyph data 1" Zdotaccent dx=0 dy=0 dh=45 dv=0 dx=0 dy=0 dh=0 dv=0
PairPos2: "'kern' Horizontal Kerning in Latin lookup 0 per glyph data 1" Zacute dx=0 dy=0 dh=45 dv=0 dx=0 dy=0 dh=0 dv=0
PairPos2: "'kern' Horizontal Kerning in Latin lookup 0 per glyph data 1" Ydieresis dx=0 dy=0 dh=105 dv=0 dx=0 dy=0 dh=0 dv=0
PairPos2: "'kern' Horizontal Kerning in Latin lookup 0 per glyph data 1" Tcaron dx=0 dy=0 dh=95 dv=0 dx=0 dy=0 dh=0 dv=0
PairPos2: "'kern' Horizontal Kerning in Latin lookup 0 per glyph data 1" Tcommaaccent dx=0 dy=0 dh=95 dv=0 dx=0 dy=0 dh=0 dv=0
PairPos2: "'kern' Horizontal Kerning in Latin lookup 0 per glyph data 1" Lcaron dx=0 dy=0 dh=-10 dv=0 dx=0 dy=0 dh=0 dv=0
PairPos2: "'kern' Horizontal Kerning in Latin lookup 0 per glyph data 1" Lcommaaccent dx=0 dy=0 dh=-10 dv=0 dx=0 dy=0 dh=0 dv=0
PairPos2: "'kern' Horizontal Kerning in Latin lookup 0 per glyph data 1" Lacute dx=0 dy=0 dh=-10 dv=0 dx=0 dy=0 dh=0 dv=0
PairPos2: "'kern' Horizontal Kerning in Latin lookup 0 per glyph data 1" Jcircumflex dx=0 dy=0 dh=95 dv=0 dx=0 dy=0 dh=0 dv=0
PairPos2: "'kern' Horizontal Kerning in Latin lookup 0 per glyph data 1" Yacute dx=0 dy=0 dh=105 dv=0 dx=0 dy=0 dh=0 dv=0
PairPos2: "'kern' Horizontal Kerning in Latin lookup 0 per glyph data 1" Z dx=0 dy=0 dh=45 dv=0 dx=0 dy=0 dh=0 dv=0
PairPos2: "'kern' Horizontal Kerning in Latin lookup 0 per glyph data 1" Y dx=0 dy=0 dh=105 dv=0 dx=0 dy=0 dh=0 dv=0
PairPos2: "'kern' Horizontal Kerning in Latin lookup 0 per glyph data 1" W dx=0 dy=0 dh=105 dv=0 dx=0 dy=0 dh=0 dv=0
PairPos2: "'kern' Horizontal Kerning in Latin lookup 0 per glyph data 1" V dx=0 dy=0 dh=105 dv=0 dx=0 dy=0 dh=0 dv=0
PairPos2: "'kern' Horizontal Kerning in Latin lookup 0 per glyph data 1" T dx=0 dy=0 dh=95 dv=0 dx=0 dy=0 dh=0 dv=0
PairPos2: "'kern' Horizontal Kerning in Latin lookup 0 per glyph data 1" L dx=0 dy=0 dh=-10 dv=0 dx=0 dy=0 dh=0 dv=0
PairPos2: "'kern' Horizontal Kerning in Latin lookup 0 per glyph data 1" J dx=0 dy=0 dh=95 dv=0 dx=0 dy=0 dh=0 dv=0
PairPos2: "'kern' Horizontal Kerning in Latin lookup 0 per glyph data 1" F dx=0 dy=0 dh=60 dv=0 dx=0 dy=0 dh=0 dv=0
PairPos2: "'kern' Horizontal Kerning in Latin lookup 0 per glyph data 1" nine dx=0 dy=0 dh=-20 dv=0 dx=0 dy=0 dh=0 dv=0
PairPos2: "'kern' Horizontal Kerning in Latin lookup 0 per glyph data 1" five dx=0 dy=0 dh=-27 dv=0 dx=0 dy=0 dh=0 dv=0
PairPos2: "'kern' Horizontal Kerning in Latin lookup 0 per glyph data 1" four dx=0 dy=0 dh=-40 dv=0 dx=0 dy=0 dh=0 dv=0
PairPos2: "'kern' Horizontal Kerning in Latin lookup 0 per glyph data 1" two dx=0 dy=0 dh=-27 dv=0 dx=0 dy=0 dh=0 dv=0
EndChar

StartChar: zero
Encoding: 48 48 19
Width: 500
GlyphClass: 2
Flags: W
LayerCount: 2
Fore
SplineSet
177 -10 m 0,0,1
 113 -10 113 -10 73.5 34.5 c 128,-1,2
 34 79 34 79 34 159 c 0,3,4
 34 293 34 293 120.5 396 c 128,-1,5
 207 499 207 499 313 499 c 0,6,7
 390 499 390 499 426.5 453.5 c 128,-1,8
 463 408 463 408 463 334 c 0,9,10
 463 187 463 187 374 88.5 c 128,-1,11
 285 -10 285 -10 177 -10 c 0,0,1
387 287 m 0,12,13
 387 330 387 330 359.5 355.5 c 128,-1,14
 332 381 332 381 285 381 c 0,15,16
 221 381 221 381 164.5 332.5 c 128,-1,17
 108 284 108 284 108 209 c 0,18,19
 108 161 108 161 140.5 140 c 128,-1,20
 173 119 173 119 208 119 c 0,21,22
 287 119 287 119 337 174 c 128,-1,23
 387 229 387 229 387 287 c 0,12,13
EndSplineSet
Substitution2: "'ornm' Ornaments in Latin lookup 23 subtable" camiseta1.ss01
Substitution2: "'lnum' Lining Figures in Latin lookup 14 subtable" zero.tnum
Substitution2: "'sinf' Scientific Inferiors in Latin lookup 12 subtable" uni2080
Substitution2: "'subs' Subscript in Latin lookup 11 subtable" uni2080
Substitution2: "'sups' Superscript in Latin lookup 8 subtable" zerosuperior
Substitution2: "'dnom' Denominators in Latin lookup 7 subtable" uni2080
Substitution2: "'numr' Numerators in Latin lookup 6 subtable" zerosuperior
AlternateSubs2: "'aalt' Access All Alternates in Latin lookup 1 subtable" zerosuperior uni2080 zero.tnum camiseta1.ss01
EndChar

StartChar: one
Encoding: 49 49 20
Width: 362
GlyphClass: 2
Flags: W
LayerCount: 2
Fore
SplineSet
-43.5 63.5 m 128,-1,1
 -22 90 -22 90 14 90 c 128,-1,2
 50 90 50 90 74 86 c 1,3,4
 80 117 80 117 93.5 146 c 128,-1,5
 107 175 107 175 114 190 c 128,-1,6
 121 205 121 205 135 231 c 128,-1,7
 149 257 149 257 155 268 c 0,8,9
 164 284 164 284 198 344 c 1,10,-1
 197 347 l 1,11,12
 179 332 179 332 145.5 320 c 128,-1,13
 112 308 112 308 83 308 c 0,14,15
 25 308 25 308 25 358 c 0,16,17
 25 377 25 377 36 395 c 1,18,19
 111 395 111 395 166.5 415.5 c 128,-1,20
 222 436 222 436 243 462 c 1,21,22
 255 494 255 494 278 512.5 c 128,-1,23
 301 531 301 531 322.5 531 c 128,-1,24
 344 531 344 531 365.5 517 c 128,-1,25
 387 503 387 503 387 488.5 c 128,-1,26
 387 474 387 474 377.5 461 c 128,-1,27
 368 448 368 448 358 442 c 2,28,-1
 348 436 l 1,29,30
 336 418 336 418 306 363 c 128,-1,31
 276 308 276 308 256.5 267 c 128,-1,32
 237 226 237 226 228 200 c 0,33,34
 205 130 205 130 205 73 c 1,35,-1
 208 73 l 2,36,37
 271 73 271 73 313 94 c 1,38,39
 324 72 324 72 324 49.5 c 128,-1,40
 324 27 324 27 305 8 c 128,-1,41
 286 -11 286 -11 262 -11 c 128,-1,42
 238 -11 238 -11 168.5 -4.5 c 128,-1,43
 99 2 99 2 61 2 c 0,44,45
 -17 2 -17 2 -49 -21 c 1,46,47
 -65 -21 -65 -21 -65 8 c 128,-1,0
 -65 37 -65 37 -43.5 63.5 c 128,-1,1
EndSplineSet
Substitution2: "'ornm' Ornaments in Latin lookup 23 subtable" camiseta1.ss02
Substitution2: "'lnum' Lining Figures in Latin lookup 14 subtable" one.tnum
Substitution2: "'sinf' Scientific Inferiors in Latin lookup 12 subtable" uni2081
Substitution2: "'subs' Subscript in Latin lookup 11 subtable" uni2081
Substitution2: "'sups' Superscript in Latin lookup 8 subtable" onesuperior
Substitution2: "'dnom' Denominators in Latin lookup 7 subtable" uni2081
Substitution2: "'numr' Numerators in Latin lookup 6 subtable" onesuperior
AlternateSubs2: "'aalt' Access All Alternates in Latin lookup 1 subtable" onesuperior uni2081 one.tnum camiseta1.ss02
EndChar

StartChar: two
Encoding: 50 50 21
Width: 520
GlyphClass: 2
Flags: W
LayerCount: 2
Fore
SplineSet
114 41 m 1,0,1
 62 -13 62 -13 24 -13 c 128,-1,2
 -14 -13 -14 -13 -14 30 c 128,-1,3
 -14 73 -14 73 10.5 111 c 128,-1,4
 35 149 35 149 72 149 c 0,5,6
 91 149 91 149 118 128 c 1,7,8
 366 263 366 263 366 392 c 0,9,10
 366 425 366 425 347 444 c 128,-1,11
 328 463 328 463 302 463 c 0,12,13
 258 463 258 463 234 440 c 1,14,-1
 225 432 l 1,15,16
 225 386 225 386 249 333 c 1,17,18
 248 325 248 325 240.5 317 c 128,-1,19
 233 309 233 309 229 308 c 1,20,21
 177 308 177 308 147 330 c 128,-1,22
 117 352 117 352 117 384 c 0,23,24
 117 433 117 433 192 479 c 128,-1,25
 267 525 267 525 356 525 c 0,26,27
 421 525 421 525 461.5 497.5 c 128,-1,28
 502 470 502 470 502 419 c 0,29,30
 502 358 502 358 453 294 c 1,31,32
 389 208 389 208 214 121 c 0,33,34
 194 111 194 111 163 96 c 1,35,36
 205 63 205 63 254 43.5 c 128,-1,37
 303 24 303 24 338.5 24 c 128,-1,38
 374 24 374 24 393.5 38.5 c 128,-1,39
 413 53 413 53 440 93 c 1,40,41
 470 89 470 89 470 65 c 0,42,43
 470 23 470 23 414.5 -38.5 c 128,-1,44
 359 -100 359 -100 302.5 -100 c 128,-1,45
 246 -100 246 -100 208 -68 c 128,-1,46
 170 -36 170 -36 114 41 c 1,0,1
EndSplineSet
Substitution2: "'ornm' Ornaments in Latin lookup 23 subtable" camiseta2.ss02
Substitution2: "'lnum' Lining Figures in Latin lookup 14 subtable" two.tnum
Substitution2: "'sinf' Scientific Inferiors in Latin lookup 12 subtable" uni2082
Substitution2: "'subs' Subscript in Latin lookup 11 subtable" uni2082
Substitution2: "'sups' Superscript in Latin lookup 8 subtable" twosuperior
Substitution2: "'dnom' Denominators in Latin lookup 7 subtable" uni2082
Substitution2: "'numr' Numerators in Latin lookup 6 subtable" twosuperior
AlternateSubs2: "'aalt' Access All Alternates in Latin lookup 1 subtable" twosuperior uni2082 two.tnum camiseta2.ss02
EndChar

StartChar: three
Encoding: 51 51 22
Width: 507
GlyphClass: 2
Flags: W
LayerCount: 2
Fore
SplineSet
227 217 m 1,0,1
 257 223 257 223 288 223 c 0,2,3
 343 223 343 223 377 184.5 c 128,-1,4
 411 146 411 146 411 83 c 0,5,6
 411 -32 411 -32 305.5 -128.5 c 128,-1,7
 200 -225 200 -225 58 -225 c 0,8,9
 -2 -225 -2 -225 -42 -195.5 c 128,-1,10
 -82 -166 -82 -166 -82 -119 c 128,-1,11
 -82 -72 -82 -72 -42 -33 c 128,-1,12
 -2 6 -2 6 24 6 c 0,13,14
 40 6 40 6 46 -7 c 1,15,16
 46 -10 46 -10 35.5 -34.5 c 128,-1,17
 25 -59 25 -59 25 -82 c 0,18,19
 25 -155 25 -155 96.5 -155 c 128,-1,20
 168 -155 168 -155 227 -80.5 c 128,-1,21
 286 -6 286 -6 286 62 c 0,22,23
 286 155 286 155 206 155 c 0,24,25
 185 155 185 155 165 150 c 1,26,27
 136 117 136 117 118 117 c 128,-1,28
 100 117 100 117 88.5 129 c 128,-1,29
 77 141 77 141 77 159 c 0,30,31
 77 188 77 188 118 202 c 1,32,33
 143 222 143 222 223.5 281.5 c 128,-1,34
 304 341 304 341 333 369 c 1,35,36
 312 373 312 373 273 389 c 128,-1,37
 234 405 234 405 208.5 405 c 128,-1,38
 183 405 183 405 163 378.5 c 128,-1,39
 143 352 143 352 137 308 c 1,40,41
 100 308 100 308 97 321 c 0,42,43
 90 349 90 349 90 398 c 0,44,45
 90 525 90 525 195 525 c 0,46,47
 241 525 241 525 306 495 c 128,-1,48
 371 465 371 465 405 458 c 1,49,50
 434 518 434 518 492 518 c 0,51,52
 508 518 508 518 523.5 501.5 c 128,-1,53
 539 485 539 485 539 467 c 0,54,55
 539 434 539 434 503.5 395 c 128,-1,56
 468 356 468 356 416 350 c 1,57,58
 272 245 272 245 227 217 c 1,0,1
EndSplineSet
Substitution2: "'ornm' Ornaments in Latin lookup 23 subtable" camiseta3.ss02
Substitution2: "'lnum' Lining Figures in Latin lookup 14 subtable" three.tnum
Substitution2: "'sinf' Scientific Inferiors in Latin lookup 12 subtable" uni2083
Substitution2: "'subs' Subscript in Latin lookup 11 subtable" uni2083
Substitution2: "'sups' Superscript in Latin lookup 8 subtable" threesuperior
Substitution2: "'dnom' Denominators in Latin lookup 7 subtable" uni2083
Substitution2: "'numr' Numerators in Latin lookup 6 subtable" threesuperior
AlternateSubs2: "'aalt' Access All Alternates in Latin lookup 1 subtable" threesuperior uni2083 three.tnum camiseta3.ss02
EndChar

StartChar: four
Encoding: 52 52 23
Width: 533
GlyphClass: 2
Flags: W
LayerCount: 2
Fore
SplineSet
302 -53 m 1,0,1
 284 -115 284 -115 284 -156 c 0,2,3
 284 -172 284 -172 294 -182.5 c 128,-1,4
 304 -193 304 -193 304 -202 c 128,-1,5
 304 -211 304 -211 280 -218.5 c 128,-1,6
 256 -226 256 -226 222 -226 c 0,7,8
 155 -226 155 -226 155 -168 c 0,9,10
 155 -137 155 -137 194 -42 c 1,11,12
 124 -24 124 -24 69 30 c 1,13,14
 21 -34 21 -34 -21 -34 c 0,15,16
 -59 -34 -59 -34 -59 19 c 0,17,18
 -59 57 -59 57 -39 93 c 128,-1,19
 -19 129 -19 129 16 133 c 1,20,21
 27 133 27 133 45 128 c 1,22,23
 201 362 201 362 201 478 c 0,24,25
 201 502 201 502 188 513.5 c 128,-1,26
 175 525 175 525 174.5 532 c 128,-1,27
 174 539 174 539 185 546 c 0,28,29
 215 567 215 567 266 567 c 0,30,31
 336 567 336 567 336 497 c 0,32,33
 336 397 336 397 208 222 c 0,34,35
 151 144 151 144 118 102 c 1,36,37
 206 72 206 72 244 65 c 1,38,39
 289 157 289 157 313.5 196.5 c 128,-1,40
 338 236 338 236 347.5 252.5 c 128,-1,41
 357 269 357 269 362.5 276.5 c 128,-1,42
 368 284 368 284 376 294 c 0,43,44
 392 314 392 314 412 314 c 128,-1,45
 432 314 432 314 443.5 301.5 c 128,-1,46
 455 289 455 289 455 265.5 c 128,-1,47
 455 242 455 242 409 213 c 1,48,49
 371 134 371 134 342 63 c 1,50,51
 415 76 415 76 456 132 c 1,52,53
 486 128 486 128 486 104 c 0,54,55
 486 38 486 38 433.5 -5 c 128,-1,56
 381 -48 381 -48 302 -53 c 1,0,1
EndSplineSet
Substitution2: "'ornm' Ornaments in Latin lookup 23 subtable" camiseta4.ss02
Substitution2: "'lnum' Lining Figures in Latin lookup 14 subtable" four.tnum
Substitution2: "'sinf' Scientific Inferiors in Latin lookup 12 subtable" uni2084
Substitution2: "'subs' Subscript in Latin lookup 11 subtable" uni2084
Substitution2: "'sups' Superscript in Latin lookup 8 subtable" foursuperior
Substitution2: "'dnom' Denominators in Latin lookup 7 subtable" uni2084
Substitution2: "'numr' Numerators in Latin lookup 6 subtable" foursuperior
AlternateSubs2: "'aalt' Access All Alternates in Latin lookup 1 subtable" foursuperior uni2084 four.tnum camiseta4.ss02
EndChar

StartChar: five
Encoding: 53 53 24
Width: 483
GlyphClass: 2
Flags: W
LayerCount: 2
Fore
SplineSet
235 381 m 1,0,1
 205 305 205 305 162 241 c 1,2,-1
 146 218 l 1,3,4
 194 227 194 227 251.5 227 c 128,-1,5
 309 227 309 227 346 193 c 128,-1,6
 383 159 383 159 383 99.5 c 128,-1,7
 383 40 383 40 352 -23 c 128,-1,8
 321 -86 321 -86 270.5 -129.5 c 128,-1,9
 220 -173 220 -173 156 -199 c 128,-1,10
 92 -225 92 -225 30 -225 c 128,-1,11
 -32 -225 -32 -225 -72 -195.5 c 128,-1,12
 -112 -166 -112 -166 -112 -119 c 128,-1,13
 -112 -72 -112 -72 -72 -33 c 128,-1,14
 -32 6 -32 6 -6 6 c 0,15,16
 10 6 10 6 16 -7 c 1,17,18
 16 -10 16 -10 5.5 -34.5 c 128,-1,19
 -5 -59 -5 -59 -5 -82 c 0,20,21
 -5 -155 -5 -155 67 -155 c 0,22,23
 133 -155 133 -155 194.5 -87.5 c 128,-1,24
 256 -20 256 -20 256 62 c 0,25,26
 256 155 256 155 176 155 c 1,27,-1
 119 151 l 1,28,29
 101 128 101 128 79 128 c 128,-1,30
 57 128 57 128 44.5 140 c 128,-1,31
 32 152 32 152 32 171 c 0,32,33
 32 188 32 188 78 209 c 1,34,35
 157 342 157 342 157 479 c 0,36,37
 157 505 157 505 187 505 c 0,38,39
 209 505 209 505 282 490.5 c 128,-1,40
 355 476 355 476 382 476 c 128,-1,41
 409 476 409 476 427.5 481.5 c 128,-1,42
 446 487 446 487 453.5 493.5 c 128,-1,43
 461 500 461 500 467 506.5 c 128,-1,44
 473 513 473 513 474 514 c 1,45,46
 479 514 479 514 492.5 507 c 128,-1,47
 506 500 506 500 506 492 c 1,48,49
 476 359 476 359 410 359 c 0,50,51
 367 359 367 359 268 376 c 1,52,-1
 235 381 l 1,0,1
EndSplineSet
Substitution2: "'ornm' Ornaments in Latin lookup 23 subtable" camiseta5.ss02
Substitution2: "'lnum' Lining Figures in Latin lookup 14 subtable" five.tnum
Substitution2: "'sinf' Scientific Inferiors in Latin lookup 12 subtable" uni2085
Substitution2: "'subs' Subscript in Latin lookup 11 subtable" uni2085
Substitution2: "'sups' Superscript in Latin lookup 8 subtable" fivesuperior
Substitution2: "'dnom' Denominators in Latin lookup 7 subtable" uni2085
Substitution2: "'numr' Numerators in Latin lookup 6 subtable" fivesuperior
AlternateSubs2: "'aalt' Access All Alternates in Latin lookup 1 subtable" fivesuperior uni2085 five.tnum camiseta5.ss02
EndChar

StartChar: six
Encoding: 54 54 25
Width: 556
GlyphClass: 2
Flags: W
LayerCount: 2
Fore
SplineSet
456 458 m 0,0,1
 456 459 456 459 465.5 485 c 128,-1,2
 475 511 475 511 475 541 c 0,3,4
 475 605 475 605 407 605 c 0,5,6
 380 605 380 605 358 600 c 1,7,8
 308 579 308 579 262 511.5 c 128,-1,9
 216 444 216 444 193 361 c 1,10,11
 269 404 269 404 344 404 c 0,12,13
 501 404 501 404 501 260 c 0,14,15
 501 160 501 160 407 74 c 128,-1,16
 313 -12 313 -12 203 -12 c 0,17,18
 128 -12 128 -12 78.5 40 c 128,-1,19
 29 92 29 92 29 188 c 0,20,21
 29 319 29 319 95 445 c 0,22,23
 129 510 129 510 176.5 561.5 c 128,-1,24
 224 613 224 613 294.5 645 c 128,-1,25
 365 677 365 677 439 677 c 128,-1,26
 513 677 513 677 553.5 647.5 c 128,-1,27
 594 618 594 618 594 570.5 c 128,-1,28
 594 523 594 523 550 483.5 c 128,-1,29
 506 444 506 444 478 444 c 0,30,31
 472 444 472 444 465 448.5 c 128,-1,32
 458 453 458 453 456 458 c 0,0,1
175 285 m 1,33,34
 163 230 163 230 163 176 c 128,-1,35
 163 122 163 122 181 92 c 128,-1,36
 199 62 199 62 226 62 c 0,37,38
 267 62 267 62 310 113.5 c 128,-1,39
 353 165 353 165 353 249 c 0,40,41
 353 319 353 319 288 319 c 0,42,43
 243 319 243 319 175 285 c 1,33,34
EndSplineSet
Substitution2: "'ornm' Ornaments in Latin lookup 23 subtable" camiseta6.ss02
Substitution2: "'lnum' Lining Figures in Latin lookup 14 subtable" six.tnum
Substitution2: "'sinf' Scientific Inferiors in Latin lookup 12 subtable" uni2086
Substitution2: "'subs' Subscript in Latin lookup 11 subtable" uni2086
Substitution2: "'sups' Superscript in Latin lookup 8 subtable" sixsuperior
Substitution2: "'dnom' Denominators in Latin lookup 7 subtable" uni2086
Substitution2: "'numr' Numerators in Latin lookup 6 subtable" sixsuperior
AlternateSubs2: "'aalt' Access All Alternates in Latin lookup 1 subtable" sixsuperior uni2086 six.tnum camiseta6.ss02
EndChar

StartChar: seven
Encoding: 55 55 26
Width: 453
GlyphClass: 2
Flags: W
LayerCount: 2
Fore
SplineSet
55 303 m 1,0,1
 30 378 30 378 30 420 c 128,-1,2
 30 462 30 462 57 490 c 128,-1,3
 84 518 84 518 124.5 518 c 128,-1,4
 165 518 165 518 206 508 c 128,-1,5
 247 498 247 498 301.5 480 c 128,-1,6
 356 462 356 462 389 454 c 1,7,8
 401 476 401 476 408.5 486.5 c 128,-1,9
 416 497 416 497 429.5 506 c 128,-1,10
 443 515 443 515 460 515 c 128,-1,11
 477 515 477 515 495.5 497.5 c 128,-1,12
 514 480 514 480 514 459.5 c 128,-1,13
 514 439 514 439 487 410.5 c 128,-1,14
 460 382 460 382 424 363 c 1,15,-1
 423 363 l 1,16,17
 362 275 362 275 312 190 c 1,18,-1
 405 190 l 1,19,20
 408 182 408 182 408 167.5 c 128,-1,21
 408 153 408 153 394 137 c 128,-1,22
 380 121 380 121 356.5 121 c 128,-1,23
 333 121 333 121 277 130 c 1,24,25
 171 -60 171 -60 171 -135 c 0,26,27
 171 -151 171 -151 182 -161.5 c 128,-1,28
 193 -172 193 -172 193 -181 c 128,-1,29
 193 -190 193 -190 169 -197.5 c 128,-1,30
 145 -205 145 -205 111 -205 c 0,31,32
 34 -205 34 -205 34 -139 c 0,33,34
 34 -60 34 -60 159 128 c 1,35,36
 129 124 129 124 115.5 124 c 128,-1,37
 102 124 102 124 92.5 135 c 128,-1,38
 83 146 83 146 83 161.5 c 128,-1,39
 83 177 83 177 89 190 c 1,40,-1
 200 190 l 1,41,42
 269 287 269 287 336 369 c 1,43,44
 300 373 300 373 258 381 c 0,45,46
 164 399 164 399 152 399 c 0,47,48
 105 399 105 399 94 303 c 1,49,-1
 55 303 l 1,0,1
EndSplineSet
Substitution2: "'lnum' Lining Figures in Latin lookup 14 subtable" seven.tnum
Substitution2: "'sinf' Scientific Inferiors in Latin lookup 12 subtable" uni2087
Substitution2: "'subs' Subscript in Latin lookup 11 subtable" uni2087
Substitution2: "'sups' Superscript in Latin lookup 8 subtable" sevensuperior
Substitution2: "'dnom' Denominators in Latin lookup 7 subtable" uni2087
Substitution2: "'numr' Numerators in Latin lookup 6 subtable" sevensuperior
AlternateSubs2: "'aalt' Access All Alternates in Latin lookup 1 subtable" sevensuperior uni2087 seven.tnum
EndChar

StartChar: eight
Encoding: 56 56 27
Width: 553
GlyphClass: 2
Flags: W
LayerCount: 2
Fore
SplineSet
328 413 m 1,0,1
 380 442 380 442 411 475 c 128,-1,2
 442 508 442 508 442 554 c 0,3,4
 442 634 442 634 344 634 c 0,5,6
 336 634 336 634 326 632 c 2,7,-1
 308 630 l 2,8,9
 301 629 301 629 301 628 c 0,10,11
 278 607 278 607 267.5 585.5 c 128,-1,12
 257 564 257 564 257 529 c 0,13,14
 257 464 257 464 328 413 c 1,0,1
241 312 m 1,15,16
 196 288 196 288 167.5 251.5 c 128,-1,17
 139 215 139 215 139 171 c 128,-1,18
 139 127 139 127 170.5 100.5 c 128,-1,19
 202 74 202 74 247 74 c 128,-1,20
 292 74 292 74 329 107 c 128,-1,21
 366 140 366 140 366 192 c 0,22,23
 366 236 366 236 312 270 c 0,24,25
 300 277 300 277 276 291 c 128,-1,26
 252 305 252 305 241 312 c 1,15,16
377 380 m 1,27,28
 415 356 415 356 434.5 342 c 128,-1,29
 454 328 454 328 472.5 301.5 c 128,-1,30
 491 275 491 275 491 245 c 0,31,32
 491 140 491 140 397.5 65.5 c 128,-1,33
 304 -9 304 -9 187 -9 c 0,34,35
 114 -9 114 -9 67 24 c 128,-1,36
 20 57 20 57 20 121.5 c 128,-1,37
 20 186 20 186 71 247.5 c 128,-1,38
 122 309 122 309 194 347 c 1,39,40
 140 399 140 399 140 476 c 0,41,42
 140 575 140 575 222 645 c 128,-1,43
 304 715 304 715 412 715 c 0,44,45
 553 715 553 715 553 590 c 0,46,47
 553 473 553 473 377 380 c 1,27,28
EndSplineSet
Substitution2: "'lnum' Lining Figures in Latin lookup 14 subtable" eight.tnum
Substitution2: "'sinf' Scientific Inferiors in Latin lookup 12 subtable" uni2088
Substitution2: "'subs' Subscript in Latin lookup 11 subtable" uni2088
Substitution2: "'sups' Superscript in Latin lookup 8 subtable" eightsuperior
Substitution2: "'dnom' Denominators in Latin lookup 7 subtable" uni2088
Substitution2: "'numr' Numerators in Latin lookup 6 subtable" eightsuperior
AlternateSubs2: "'aalt' Access All Alternates in Latin lookup 1 subtable" eightsuperior uni2088 eight.tnum
EndChar

StartChar: nine
Encoding: 57 57 28
Width: 556
GlyphClass: 2
Flags: W
LayerCount: 2
Fore
SplineSet
357 129 m 1,0,1
 289 63 289 63 198 63 c 0,2,3
 133 63 133 63 90.5 105 c 128,-1,4
 48 147 48 147 48 230 c 0,5,6
 48 341 48 341 136.5 432.5 c 128,-1,7
 225 524 225 524 344 524 c 0,8,9
 417 524 417 524 466.5 467.5 c 128,-1,10
 516 411 516 411 516 307 c 0,11,12
 516 164 516 164 453 30 c 0,13,14
 420 -41 420 -41 374.5 -96.5 c 128,-1,15
 329 -152 329 -152 261.5 -187 c 128,-1,16
 194 -222 194 -222 121.5 -222 c 128,-1,17
 49 -222 49 -222 8.5 -190 c 128,-1,18
 -32 -158 -32 -158 -32 -106 c 128,-1,19
 -32 -54 -32 -54 6 -11 c 128,-1,20
 44 32 44 32 69 32 c 0,21,22
 84 32 84 32 91 16 c 1,23,24
 91 13 91 13 82 -11.5 c 128,-1,25
 73 -36 73 -36 73 -67 c 128,-1,26
 73 -98 73 -98 91.5 -119.5 c 128,-1,27
 110 -141 110 -141 144 -141 c 0,28,29
 214 -141 214 -141 272.5 -64 c 128,-1,30
 331 13 331 13 357 129 c 1,0,1
376 233 m 1,31,32
 383 273 383 273 383 309 c 0,33,34
 383 441 383 441 306 441 c 0,35,36
 273 441 273 441 235 419 c 1,37,38
 185 343 185 343 185 249 c 0,39,40
 185 205 185 205 204.5 183.5 c 128,-1,41
 224 162 224 162 255 162 c 128,-1,42
 286 162 286 162 320.5 182.5 c 128,-1,43
 355 203 355 203 376 233 c 1,31,32
EndSplineSet
Substitution2: "'lnum' Lining Figures in Latin lookup 14 subtable" nine.tnum
Substitution2: "'sinf' Scientific Inferiors in Latin lookup 12 subtable" uni2089
Substitution2: "'subs' Subscript in Latin lookup 11 subtable" uni2089
Substitution2: "'sups' Superscript in Latin lookup 8 subtable" ninesuperior
Substitution2: "'dnom' Denominators in Latin lookup 7 subtable" uni2089
Substitution2: "'numr' Numerators in Latin lookup 6 subtable" ninesuperior
AlternateSubs2: "'aalt' Access All Alternates in Latin lookup 1 subtable" ninesuperior uni2089 nine.tnum
EndChar

StartChar: colon
Encoding: 58 58 29
Width: 240
GlyphClass: 2
Flags: W
LayerCount: 2
Fore
SplineSet
235 348 m 1,0,1
 216 342 216 342 180.5 342 c 128,-1,2
 145 342 145 342 126 354 c 1,3,4
 123 372 123 372 123 375 c 0,5,6
 123 425 123 425 154 453 c 1,7,8
 186 480 186 480 238 480 c 0,9,10
 262 480 262 480 281 474 c 1,11,12
 288 470 288 470 288 450.5 c 128,-1,13
 288 431 288 431 271.5 395.5 c 128,-1,14
 255 360 255 360 235 348 c 1,0,1
137 -6 m 1,15,16
 117 -12 117 -12 82 -12 c 128,-1,17
 47 -12 47 -12 28 0 c 1,18,19
 25 18 25 18 25 21 c 0,20,21
 25 71 25 71 56 99 c 1,22,23
 88 126 88 126 140 126 c 0,24,25
 164 126 164 126 183 120 c 1,26,27
 190 116 190 116 190 96.5 c 128,-1,28
 190 77 190 77 173.5 41.5 c 128,-1,29
 157 6 157 6 137 -6 c 1,15,16
EndSplineSet
EndChar

StartChar: semicolon
Encoding: 59 59 30
Width: 240
GlyphClass: 2
Flags: W
LayerCount: 2
Fore
SplineSet
-45 -88 m 1,0,1
 -8 -86 -8 -86 28 -66 c 128,-1,2
 64 -46 64 -46 82 -9 c 1,3,4
 42 -9 42 -9 28 0 c 1,5,6
 25 9 25 9 25 21 c 0,7,8
 25 71 25 71 56 99 c 1,9,10
 88 126 88 126 140 126 c 0,11,12
 164 126 164 126 183 120 c 1,13,14
 190 116 190 116 190 102 c 0,15,16
 190 54 190 54 165 1.5 c 128,-1,17
 140 -51 140 -51 92.5 -90 c 128,-1,18
 45 -129 45 -129 -11 -129 c 0,19,20
 -45 -129 -45 -129 -45 -88 c 1,0,1
235 348 m 1,21,22
 216 342 216 342 180.5 342 c 128,-1,23
 145 342 145 342 126 354 c 1,24,25
 123 372 123 372 123 375 c 0,26,27
 123 425 123 425 154 453 c 1,28,29
 186 480 186 480 238 480 c 0,30,31
 262 480 262 480 281 474 c 1,32,33
 288 470 288 470 288 450.5 c 128,-1,34
 288 431 288 431 271.5 395.5 c 128,-1,35
 255 360 255 360 235 348 c 1,21,22
EndSplineSet
PairPos2: "'kern' Horizontal Kerning in Latin lookup 0 per glyph data 1" f_k dx=0 dy=0 dh=105 dv=0 dx=0 dy=0 dh=0 dv=0
PairPos2: "'kern' Horizontal Kerning in Latin lookup 0 per glyph data 1" f_j dx=0 dy=0 dh=105 dv=0 dx=0 dy=0 dh=0 dv=0
PairPos2: "'kern' Horizontal Kerning in Latin lookup 0 per glyph data 1" f_h dx=0 dy=0 dh=105 dv=0 dx=0 dy=0 dh=0 dv=0
PairPos2: "'kern' Horizontal Kerning in Latin lookup 0 per glyph data 1" f_b dx=0 dy=0 dh=105 dv=0 dx=0 dy=0 dh=0 dv=0
PairPos2: "'kern' Horizontal Kerning in Latin lookup 0 per glyph data 1" f.alt dx=0 dy=0 dh=105 dv=0 dx=0 dy=0 dh=0 dv=0
PairPos2: "'kern' Horizontal Kerning in Latin lookup 0 per glyph data 1" f_f_i dx=0 dy=0 dh=105 dv=0 dx=0 dy=0 dh=0 dv=0
PairPos2: "'kern' Horizontal Kerning in Latin lookup 0 per glyph data 1" fl dx=0 dy=0 dh=115 dv=0 dx=0 dy=0 dh=0 dv=0
PairPos2: "'kern' Horizontal Kerning in Latin lookup 0 per glyph data 1" fi dx=0 dy=0 dh=115 dv=0 dx=0 dy=0 dh=0 dv=0
PairPos2: "'kern' Horizontal Kerning in Latin lookup 0 per glyph data 1" f_f dx=0 dy=0 dh=105 dv=0 dx=0 dy=0 dh=0 dv=0
PairPos2: "'kern' Horizontal Kerning in Latin lookup 0 per glyph data 1" florin dx=0 dy=0 dh=105 dv=0 dx=0 dy=0 dh=0 dv=0
PairPos2: "'kern' Horizontal Kerning in Latin lookup 0 per glyph data 1" jcircumflex dx=0 dy=0 dh=130 dv=0 dx=0 dy=0 dh=0 dv=0
PairPos2: "'kern' Horizontal Kerning in Latin lookup 0 per glyph data 1" germandbls dx=0 dy=0 dh=105 dv=0 dx=0 dy=0 dh=0 dv=0
PairPos2: "'kern' Horizontal Kerning in Latin lookup 0 per glyph data 1" j dx=0 dy=0 dh=130 dv=0 dx=0 dy=0 dh=0 dv=0
PairPos2: "'kern' Horizontal Kerning in Latin lookup 0 per glyph data 1" f dx=0 dy=0 dh=105 dv=0 dx=0 dy=0 dh=0 dv=0
EndChar

StartChar: less
Encoding: 60 60 31
Width: 382
GlyphClass: 2
Flags: W
LayerCount: 2
Fore
SplineSet
52 195 m 1,0,1
 48 193 48 193 42 193 c 0,2,3
 20 193 20 193 20 222.5 c 128,-1,4
 20 252 20 252 35.5 281 c 128,-1,5
 51 310 51 310 65.5 310 c 128,-1,6
 80 310 80 310 91 293 c 1,7,8
 251 431 251 431 313 457 c 0,9,10
 346 471 346 471 372.5 471 c 128,-1,11
 399 471 399 471 410.5 453 c 128,-1,12
 422 435 422 435 422 415.5 c 128,-1,13
 422 396 422 396 417.5 384 c 128,-1,14
 413 372 413 372 407 372 c 0,15,16
 326 372 326 372 135 239 c 1,17,18
 167 189 167 189 202.5 158 c 128,-1,19
 238 127 238 127 255 120 c 128,-1,20
 272 113 272 113 294 107.5 c 128,-1,21
 316 102 316 102 322.5 97 c 128,-1,22
 329 92 329 92 329 76 c 128,-1,23
 329 60 329 60 309.5 37 c 128,-1,24
 290 14 290 14 269 14 c 0,25,26
 220 14 220 14 152 71 c 128,-1,27
 84 128 84 128 52 195 c 1,0,1
EndSplineSet
EndChar

StartChar: equal
Encoding: 61 61 32
Width: 500
GlyphClass: 2
Flags: W
LayerCount: 2
Fore
SplineSet
406 207 m 1,0,1
 417 185 417 185 417 158.5 c 128,-1,2
 417 132 417 132 398 113 c 128,-1,3
 379 94 379 94 355 94 c 128,-1,4
 331 94 331 94 261.5 100.5 c 128,-1,5
 192 107 192 107 154 107 c 0,6,7
 76 107 76 107 44 84 c 1,8,9
 28 84 28 84 28 113.5 c 128,-1,10
 28 143 28 143 50 173 c 128,-1,11
 72 203 72 203 110 203 c 0,12,13
 134 203 134 203 199.5 194.5 c 128,-1,14
 265 186 265 186 314.5 186 c 128,-1,15
 364 186 364 186 406 207 c 1,0,1
459 380 m 1,16,17
 470 358 470 358 470 331.5 c 128,-1,18
 470 305 470 305 451 286 c 128,-1,19
 432 267 432 267 408 267 c 128,-1,20
 384 267 384 267 314.5 273.5 c 128,-1,21
 245 280 245 280 207 280 c 0,22,23
 129 280 129 280 97 257 c 1,24,25
 81 257 81 257 81 286.5 c 128,-1,26
 81 316 81 316 103 346 c 128,-1,27
 125 376 125 376 163 376 c 0,28,29
 187 376 187 376 252.5 367.5 c 128,-1,30
 318 359 318 359 367.5 359 c 128,-1,31
 417 359 417 359 459 380 c 1,16,17
EndSplineSet
EndChar

StartChar: greater
Encoding: 62 62 33
Width: 382
GlyphClass: 2
Flags: W
LayerCount: 2
Fore
SplineSet
311 192 m 1,0,1
 246 136 246 136 209.5 106 c 128,-1,2
 173 76 173 76 119 45 c 128,-1,3
 65 14 65 14 34 14 c 0,4,5
 -20 14 -20 14 -20 73 c 0,6,7
 -20 89 -20 89 -15.5 101 c 128,-1,8
 -11 113 -11 113 -6 113 c 0,9,10
 76 113 76 113 267 246 c 1,11,12
 235 296 235 296 199.5 327 c 128,-1,13
 164 358 164 358 147 365 c 128,-1,14
 130 372 130 372 108 377.5 c 128,-1,15
 86 383 86 383 79.5 388 c 128,-1,16
 73 393 73 393 73 409 c 128,-1,17
 73 425 73 425 92.5 448 c 128,-1,18
 112 471 112 471 133 471 c 0,19,20
 182 471 182 471 250 414 c 128,-1,21
 318 357 318 357 350 290 c 1,22,23
 353 292 353 292 359 292 c 0,24,25
 382 292 382 292 382 263 c 128,-1,26
 382 234 382 234 366.5 204.5 c 128,-1,27
 351 175 351 175 336 175 c 128,-1,28
 321 175 321 175 311 192 c 1,0,1
EndSplineSet
EndChar

StartChar: question
Encoding: 63 63 34
Width: 473
GlyphClass: 2
Flags: W
LayerCount: 2
Fore
SplineSet
191 -4 m 1,0,1
 174 -10 174 -10 142 -10 c 128,-1,2
 110 -10 110 -10 92 1 c 1,3,4
 90 13 90 13 90 20 c 0,5,6
 90 66 90 66 118 91 c 128,-1,7
 146 116 146 116 194 116 c 0,8,9
 215 116 215 116 233 110 c 0,10,11
 240 107 240 107 240 89 c 128,-1,12
 240 71 240 71 225 39 c 128,-1,13
 210 7 210 7 191 -4 c 1,0,1
276 250 m 128,-1,15
 294 233 294 233 294 220 c 128,-1,16
 294 207 294 207 272 193.5 c 128,-1,17
 250 180 250 180 217 180 c 128,-1,18
 184 180 184 180 161.5 196 c 128,-1,19
 139 212 139 212 139 242.5 c 128,-1,20
 139 273 139 273 167.5 307 c 128,-1,21
 196 341 196 341 237 367.5 c 128,-1,22
 278 394 278 394 319 420 c 0,23,24
 417 482 417 482 417 540 c 0,25,26
 417 585 417 585 394.5 610 c 128,-1,27
 372 635 372 635 330 635 c 1,28,-1
 280 629 l 1,29,30
 263 597 263 597 263 567 c 128,-1,31
 263 537 263 537 271 518.5 c 128,-1,32
 279 500 279 500 279 497 c 128,-1,33
 279 494 279 494 274 490 c 0,34,35
 259 478 259 478 224 478 c 128,-1,36
 189 478 189 478 167 498.5 c 128,-1,37
 145 519 145 519 145 556 c 0,38,39
 145 618 145 618 232.5 669 c 128,-1,40
 320 720 320 720 414 720 c 0,41,42
 482 720 482 720 522.5 684 c 128,-1,43
 563 648 563 648 563 587.5 c 128,-1,44
 563 527 563 527 531.5 482.5 c 128,-1,45
 500 438 500 438 455.5 410 c 128,-1,46
 411 382 411 382 366 359.5 c 128,-1,47
 321 337 321 337 289.5 316.5 c 128,-1,48
 258 296 258 296 258 281.5 c 128,-1,14
 258 267 258 267 276 250 c 128,-1,15
EndSplineSet
EndChar

StartChar: at
Encoding: 64 64 35
Width: 856
GlyphClass: 2
Flags: W
LayerCount: 2
Fore
SplineSet
528 326 m 1,0,1
 503 353 503 353 471 359 c 1,2,3
 415 325 415 325 367 251.5 c 128,-1,4
 319 178 319 178 319 123 c 0,5,6
 319 99 319 99 337 99 c 0,7,8
 359 99 359 99 386.5 117 c 128,-1,9
 414 135 414 135 431 153 c 2,10,-1
 448 171 l 1,11,12
 471 232 471 232 514 303 c 2,13,-1
 528 326 l 1,0,1
428 102 m 1,14,-1
 423 105 l 1,15,16
 418 96 418 96 400 76.5 c 128,-1,17
 382 57 382 57 366 45 c 0,18,19
 323 13 323 13 275 13 c 0,20,21
 247 13 247 13 227.5 34.5 c 128,-1,22
 208 56 208 56 208 106.5 c 128,-1,23
 208 157 208 157 248.5 233 c 128,-1,24
 289 309 289 309 352 363.5 c 128,-1,25
 415 418 415 418 470 418 c 0,26,27
 491 418 491 418 519 404 c 128,-1,28
 547 390 547 390 561 371 c 1,29,30
 583 403 583 403 598.5 414 c 128,-1,31
 614 425 614 425 632 425 c 128,-1,32
 650 425 650 425 665.5 399 c 128,-1,33
 681 373 681 373 681 350.5 c 128,-1,34
 681 328 681 328 644.5 280.5 c 128,-1,35
 608 233 608 233 571 198 c 2,36,-1
 534 163 l 1,37,38
 488 83 488 83 488 30 c 0,39,40
 488 5 488 5 508 5 c 0,41,42
 552 5 552 5 609 57 c 128,-1,43
 666 109 666 109 708 192 c 128,-1,44
 750 275 750 275 750 351.5 c 128,-1,45
 750 428 750 428 704 469 c 128,-1,46
 658 510 658 510 574.5 510 c 128,-1,47
 491 510 491 510 407 469 c 128,-1,48
 323 428 323 428 259.5 364 c 128,-1,49
 196 300 196 300 156 217.5 c 128,-1,50
 116 135 116 135 116 57 c 0,51,52
 116 -53 116 -53 233 -53 c 0,53,54
 240 -53 240 -53 240 -77 c 1,55,56
 237 -90 237 -90 204.5 -109.5 c 128,-1,57
 172 -129 172 -129 124.5 -129 c 128,-1,58
 77 -129 77 -129 42.5 -89.5 c 128,-1,59
 8 -50 8 -50 8 6 c 0,60,61
 8 113 8 113 60 217 c 128,-1,62
 112 321 112 321 196.5 400 c 128,-1,63
 281 479 281 479 396.5 527.5 c 128,-1,64
 512 576 512 576 629 576 c 128,-1,65
 746 576 746 576 804 521 c 128,-1,66
 862 466 862 466 862 378 c 128,-1,67
 862 290 862 290 804.5 188 c 128,-1,68
 747 86 747 86 655 12 c 128,-1,69
 563 -62 563 -62 476 -62 c 0,70,71
 442 -62 442 -62 423.5 -44 c 128,-1,72
 405 -26 405 -26 405 0 c 0,73,74
 405 43 405 43 422 88 c 1,75,-1
 428 102 l 1,14,-1
EndSplineSet
Substitution2: "'ornm' Ornaments in Latin lookup 23 subtable" camiseta2.ss03
Substitution2: "'aalt' Access All Alternates in Latin lookup 0 subtable" camiseta2.ss03
PairPos2: "'kern' Horizontal Kerning in Latin lookup 0 per glyph data 1" Aogonek dx=0 dy=0 dh=14 dv=0 dx=0 dy=0 dh=0 dv=0
PairPos2: "'kern' Horizontal Kerning in Latin lookup 0 per glyph data 1" Abreve dx=0 dy=0 dh=14 dv=0 dx=0 dy=0 dh=0 dv=0
PairPos2: "'kern' Horizontal Kerning in Latin lookup 0 per glyph data 1" Amacron dx=0 dy=0 dh=14 dv=0 dx=0 dy=0 dh=0 dv=0
PairPos2: "'kern' Horizontal Kerning in Latin lookup 0 per glyph data 1" Aring dx=0 dy=0 dh=14 dv=0 dx=0 dy=0 dh=0 dv=0
PairPos2: "'kern' Horizontal Kerning in Latin lookup 0 per glyph data 1" Adieresis dx=0 dy=0 dh=14 dv=0 dx=0 dy=0 dh=0 dv=0
PairPos2: "'kern' Horizontal Kerning in Latin lookup 0 per glyph data 1" Atilde dx=0 dy=0 dh=14 dv=0 dx=0 dy=0 dh=0 dv=0
PairPos2: "'kern' Horizontal Kerning in Latin lookup 0 per glyph data 1" Acircumflex dx=0 dy=0 dh=14 dv=0 dx=0 dy=0 dh=0 dv=0
PairPos2: "'kern' Horizontal Kerning in Latin lookup 0 per glyph data 1" Aacute dx=0 dy=0 dh=14 dv=0 dx=0 dy=0 dh=0 dv=0
PairPos2: "'kern' Horizontal Kerning in Latin lookup 0 per glyph data 1" Agrave dx=0 dy=0 dh=14 dv=0 dx=0 dy=0 dh=0 dv=0
PairPos2: "'kern' Horizontal Kerning in Latin lookup 0 per glyph data 1" M dx=0 dy=0 dh=40 dv=0 dx=0 dy=0 dh=0 dv=0
PairPos2: "'kern' Horizontal Kerning in Latin lookup 0 per glyph data 1" A dx=0 dy=0 dh=14 dv=0 dx=0 dy=0 dh=0 dv=0
EndChar

StartChar: A
Encoding: 65 65 36
Width: 526
GlyphClass: 2
Flags: W
LayerCount: 2
Fore
SplineSet
312 197 m 1,0,-1
 312 233 l 2,1,2
 312 314 312 314 321 395 c 1,3,-1
 160 197 l 1,4,-1
 312 197 l 1,0,-1
314 147 m 1,5,-1
 119 147 l 1,6,-1
 48 60 l 2,7,8
 -13 -14 -13 -14 -65 -14 c 0,9,10
 -98 -14 -98 -14 -119 2 c 128,-1,11
 -140 18 -140 18 -140 47 c 0,12,13
 -140 59 -140 59 -132 72 c 1,14,-1
 -103 74 l 2,15,16
 -45 78 -45 78 63.5 190.5 c 128,-1,17
 172 303 172 303 342 526 c 1,18,19
 360 613 360 613 385.5 666.5 c 128,-1,20
 411 720 411 720 438 720 c 128,-1,21
 465 720 465 720 495.5 695.5 c 128,-1,22
 526 671 526 671 526 656.5 c 128,-1,23
 526 642 526 642 522.5 629 c 128,-1,24
 519 616 519 616 510.5 600 c 128,-1,25
 502 584 502 584 496.5 574.5 c 128,-1,26
 491 565 491 565 478.5 545 c 128,-1,27
 466 525 466 525 463 520 c 1,28,29
 441 382 441 382 441 265 c 0,30,31
 441 79 441 79 539 45 c 1,32,33
 546 39 546 39 546 30 c 0,34,35
 546 8 546 8 506.5 -7 c 128,-1,36
 467 -22 467 -22 427 -22 c 0,37,38
 366 -22 366 -22 342 21 c 128,-1,39
 318 64 318 64 314 147 c 1,5,-1
EndSplineSet
Substitution2: "Single Substitution lookup 25 subtable" A.alt2
Substitution2: "Single Substitution lookup 24 subtable" A.alt
Substitution2: "'titl' Titling in Latin lookup 22 subtable" A.smcp.titl
Substitution2: "'c2sc' Capitals to Small Capitals in Latin lookup 3 subtable" A.smcp
AlternateSubs2: "'aalt' Access All Alternates in Latin lookup 1 subtable" A.smcp A.alt A.alt2 A.smcp.titl
PairPos2: "'kern' Horizontal Kerning in Latin lookup 0 per glyph data 1" Z.smcp dx=0 dy=0 dh=30 dv=0 dx=0 dy=0 dh=0 dv=0
PairPos2: "'kern' Horizontal Kerning in Latin lookup 0 per glyph data 1" T.smcp dx=0 dy=0 dh=40 dv=0 dx=0 dy=0 dh=0 dv=0
PairPos2: "'kern' Horizontal Kerning in Latin lookup 0 per glyph data 1" S.smcp dx=0 dy=0 dh=25 dv=0 dx=0 dy=0 dh=0 dv=0
PairPos2: "'kern' Horizontal Kerning in Latin lookup 0 per glyph data 1" R.smcp dx=0 dy=0 dh=25 dv=0 dx=0 dy=0 dh=0 dv=0
PairPos2: "'kern' Horizontal Kerning in Latin lookup 0 per glyph data 1" Q.smcp dx=0 dy=0 dh=15 dv=0 dx=0 dy=0 dh=0 dv=0
PairPos2: "'kern' Horizontal Kerning in Latin lookup 0 per glyph data 1" P.smcp dx=0 dy=0 dh=10 dv=0 dx=0 dy=0 dh=0 dv=0
PairPos2: "'kern' Horizontal Kerning in Latin lookup 0 per glyph data 1" O.smcp dx=0 dy=0 dh=20 dv=0 dx=0 dy=0 dh=0 dv=0
PairPos2: "'kern' Horizontal Kerning in Latin lookup 0 per glyph data 1" K.smcp dx=0 dy=0 dh=35 dv=0 dx=0 dy=0 dh=0 dv=0
PairPos2: "'kern' Horizontal Kerning in Latin lookup 0 per glyph data 1" J.smcp dx=0 dy=0 dh=35 dv=0 dx=0 dy=0 dh=0 dv=0
PairPos2: "'kern' Horizontal Kerning in Latin lookup 0 per glyph data 1" I.smcp dx=0 dy=0 dh=40 dv=0 dx=0 dy=0 dh=0 dv=0
PairPos2: "'kern' Horizontal Kerning in Latin lookup 0 per glyph data 1" H.smcp dx=0 dy=0 dh=35 dv=0 dx=0 dy=0 dh=0 dv=0
PairPos2: "'kern' Horizontal Kerning in Latin lookup 0 per glyph data 1" F.smcp dx=0 dy=0 dh=20 dv=0 dx=0 dy=0 dh=0 dv=0
PairPos2: "'kern' Horizontal Kerning in Latin lookup 0 per glyph data 1" u.alt dx=0 dy=0 dh=20 dv=0 dx=0 dy=0 dh=0 dv=0
PairPos2: "'kern' Horizontal Kerning in Latin lookup 0 per glyph data 1" f_k dx=0 dy=0 dh=30 dv=0 dx=0 dy=0 dh=0 dv=0
PairPos2: "'kern' Horizontal Kerning in Latin lookup 0 per glyph data 1" f_j dx=0 dy=0 dh=30 dv=0 dx=0 dy=0 dh=0 dv=0
PairPos2: "'kern' Horizontal Kerning in Latin lookup 0 per glyph data 1" f_h dx=0 dy=0 dh=30 dv=0 dx=0 dy=0 dh=0 dv=0
PairPos2: "'kern' Horizontal Kerning in Latin lookup 0 per glyph data 1" f_b dx=0 dy=0 dh=30 dv=0 dx=0 dy=0 dh=0 dv=0
PairPos2: "'kern' Horizontal Kerning in Latin lookup 0 per glyph data 1" f.alt dx=0 dy=0 dh=30 dv=0 dx=0 dy=0 dh=0 dv=0
PairPos2: "'kern' Horizontal Kerning in Latin lookup 0 per glyph data 1" f_f_i dx=0 dy=0 dh=30 dv=0 dx=0 dy=0 dh=0 dv=0
PairPos2: "'kern' Horizontal Kerning in Latin lookup 0 per glyph data 1" f_f dx=0 dy=0 dh=30 dv=0 dx=0 dy=0 dh=0 dv=0
PairPos2: "'kern' Horizontal Kerning in Latin lookup 0 per glyph data 1" florin dx=0 dy=0 dh=30 dv=0 dx=0 dy=0 dh=0 dv=0
PairPos2: "'kern' Horizontal Kerning in Latin lookup 0 per glyph data 1" germandbls dx=0 dy=0 dh=30 dv=0 dx=0 dy=0 dh=0 dv=0
PairPos2: "'kern' Horizontal Kerning in Latin lookup 0 per glyph data 1" x dx=0 dy=0 dh=65 dv=0 dx=0 dy=0 dh=0 dv=0
PairPos2: "'kern' Horizontal Kerning in Latin lookup 0 per glyph data 1" w dx=0 dy=0 dh=-14 dv=0 dx=0 dy=0 dh=0 dv=0
PairPos2: "'kern' Horizontal Kerning in Latin lookup 0 per glyph data 1" v dx=0 dy=0 dh=-13 dv=0 dx=0 dy=0 dh=0 dv=0
PairPos2: "'kern' Horizontal Kerning in Latin lookup 0 per glyph data 1" p dx=0 dy=0 dh=45 dv=0 dx=0 dy=0 dh=0 dv=0
PairPos2: "'kern' Horizontal Kerning in Latin lookup 0 per glyph data 1" f dx=0 dy=0 dh=30 dv=0 dx=0 dy=0 dh=0 dv=0
PairPos2: "'kern' Horizontal Kerning in Latin lookup 0 per glyph data 1" at dx=0 dy=0 dh=27 dv=0 dx=0 dy=0 dh=0 dv=0
PairPos2: "'kern' Horizontal Kerning in Latin lookup 0 per glyph data 1" slash dx=0 dy=0 dh=60 dv=0 dx=0 dy=0 dh=0 dv=0
EndChar

StartChar: B
Encoding: 66 66 37
Width: 624
GlyphClass: 2
Flags: W
LayerCount: 2
Fore
SplineSet
419 307 m 1,0,1
 413 303 413 303 392.5 295.5 c 128,-1,2
 372 288 372 288 362 288 c 0,3,4
 335 288 335 288 335 317 c 0,5,6
 335 341 335 341 354.5 369 c 128,-1,7
 374 397 374 397 390 397 c 0,8,9
 422 397 422 397 463 380 c 1,10,11
 512 431 512 431 512 485.5 c 128,-1,12
 512 540 512 540 484 566 c 128,-1,13
 456 592 456 592 412 592 c 0,14,15
 401 592 401 592 383 590 c 1,16,17
 383 559 383 559 303 361.5 c 128,-1,18
 223 164 223 164 223 110 c 0,19,20
 223 62 223 62 277 62 c 0,21,22
 352 62 352 62 406 104 c 128,-1,23
 460 146 460 146 460 210.5 c 128,-1,24
 460 275 460 275 419 307 c 1,0,1
292 652 m 1,25,-1
 485 661 l 1,26,27
 562 661 562 661 608 630 c 128,-1,28
 654 599 654 599 654 536 c 128,-1,29
 654 473 654 473 615 433 c 128,-1,30
 576 393 576 393 506 360 c 1,31,32
 610 322 610 322 610 230 c 0,33,34
 610 162 610 162 549 104 c 128,-1,35
 488 46 488 46 402 16 c 128,-1,36
 316 -14 316 -14 235.5 -14 c 128,-1,37
 155 -14 155 -14 115 6 c 128,-1,38
 75 26 75 26 75 69 c 128,-1,39
 75 112 75 112 114 211 c 128,-1,40
 153 310 153 310 192 415 c 128,-1,41
 231 520 231 520 231 573 c 0,42,43
 231 586 231 586 221 593.5 c 128,-1,44
 211 601 211 601 199.5 603 c 128,-1,45
 188 605 188 605 163 608 c 0,46,47
 154 610 154 610 154 623.5 c 128,-1,48
 154 637 154 637 160 649 c 128,-1,49
 166 661 166 661 170 661 c 0,50,51
 242 652 242 652 292 652 c 1,25,-1
EndSplineSet
Substitution2: "Single Substitution lookup 24 subtable" B.alt
Substitution2: "'titl' Titling in Latin lookup 22 subtable" B.smcp.titl
Substitution2: "'c2sc' Capitals to Small Capitals in Latin lookup 3 subtable" B.smcp
AlternateSubs2: "'aalt' Access All Alternates in Latin lookup 1 subtable" B.smcp B.alt B.smcp.titl
EndChar

StartChar: C
Encoding: 67 67 38
Width: 573
GlyphClass: 2
Flags: W
LayerCount: 2
Fore
SplineSet
531 101 m 1,0,1
 498 49 498 49 419.5 12.5 c 128,-1,2
 341 -24 341 -24 252 -24 c 128,-1,3
 163 -24 163 -24 116.5 24 c 128,-1,4
 70 72 70 72 70 142.5 c 128,-1,5
 70 213 70 213 95 284 c 128,-1,6
 120 355 120 355 165.5 422 c 128,-1,7
 211 489 211 489 268 544.5 c 128,-1,8
 325 600 325 600 397 633.5 c 128,-1,9
 469 667 469 667 536 667 c 128,-1,10
 603 667 603 667 633 647.5 c 128,-1,11
 663 628 663 628 663 593 c 128,-1,12
 663 558 663 558 623 518 c 128,-1,13
 583 478 583 478 530 468 c 1,14,15
 523 469 523 469 516 477 c 128,-1,16
 509 485 509 485 509 490 c 128,-1,17
 509 495 509 495 511 497 c 0,18,19
 529 528 529 528 529 553 c 0,20,21
 529 605 529 605 454 606 c 1,22,23
 409 587 409 587 354.5 512.5 c 128,-1,24
 300 438 300 438 261 342 c 128,-1,25
 222 246 222 246 222 176 c 0,26,27
 222 66 222 66 320 66 c 0,28,29
 428 66 428 66 497 135 c 1,30,31
 525 126 525 126 531 101 c 1,0,1
EndSplineSet
Substitution2: "Single Substitution lookup 24 subtable" C.alt
Substitution2: "'titl' Titling in Latin lookup 22 subtable" C.smcp.titl
Substitution2: "'c2sc' Capitals to Small Capitals in Latin lookup 3 subtable" C.smcp
AlternateSubs2: "'aalt' Access All Alternates in Latin lookup 1 subtable" C.smcp C.alt C.smcp.titl
EndChar

StartChar: D
Encoding: 68 68 39
Width: 669
GlyphClass: 2
Flags: W
LayerCount: 2
Fore
SplineSet
383 590 m 1,0,1
 383 562 383 562 342.5 463 c 128,-1,2
 302 364 302 364 261 259.5 c 128,-1,3
 220 155 220 155 220 112 c 0,4,5
 220 65 220 65 274 65 c 0,6,7
 315 65 315 65 362 91 c 128,-1,8
 409 117 409 117 450.5 161.5 c 128,-1,9
 492 206 492 206 519 272.5 c 128,-1,10
 546 339 546 339 546 421 c 128,-1,11
 546 503 546 503 510 547.5 c 128,-1,12
 474 592 474 592 412 592 c 0,13,14
 401 592 401 592 383 590 c 1,0,1
170 661 m 0,15,16
 251 652 251 652 291.5 652 c 128,-1,17
 332 652 332 652 394.5 656.5 c 128,-1,18
 457 661 457 661 509 661 c 0,19,20
 594 661 594 661 646.5 605.5 c 128,-1,21
 699 550 699 550 699 451 c 0,22,23
 699 326 699 326 620 216.5 c 128,-1,24
 541 107 541 107 425 46.5 c 128,-1,25
 309 -14 309 -14 192 -14 c 128,-1,26
 75 -14 75 -14 75 73 c 0,27,28
 75 112 75 112 114 211 c 128,-1,29
 153 310 153 310 192 415 c 128,-1,30
 231 520 231 520 231 573 c 0,31,32
 231 586 231 586 221 593.5 c 128,-1,33
 211 601 211 601 199.5 603 c 128,-1,34
 188 605 188 605 163 608 c 0,35,36
 154 610 154 610 154 623.5 c 128,-1,37
 154 637 154 637 160 649 c 128,-1,38
 166 661 166 661 170 661 c 0,15,16
EndSplineSet
Substitution2: "Single Substitution lookup 24 subtable" D.alt
Substitution2: "'titl' Titling in Latin lookup 22 subtable" D.smcp.titl
Substitution2: "'c2sc' Capitals to Small Capitals in Latin lookup 3 subtable" D.smcp
AlternateSubs2: "'aalt' Access All Alternates in Latin lookup 1 subtable" D.smcp D.alt D.smcp.titl
EndChar

StartChar: E
Encoding: 69 69 40
Width: 527
GlyphClass: 2
Flags: W
LayerCount: 2
Fore
SplineSet
416 312 m 128,-1,1
 377 286 377 286 330.5 286 c 128,-1,2
 284 286 284 286 259 305 c 1,3,4
 256 303 256 303 251 300 c 128,-1,5
 246 297 246 297 234 285.5 c 128,-1,6
 222 274 222 274 212 261 c 0,7,8
 187 226 187 226 187 176 c 0,9,10
 187 66 187 66 287 66 c 0,11,12
 395 66 395 66 464 135 c 1,13,14
 492 126 492 126 498 101 c 1,15,16
 465 49 465 49 386.5 12.5 c 128,-1,17
 308 -24 308 -24 223 -24 c 128,-1,18
 138 -24 138 -24 86.5 14.5 c 128,-1,19
 35 53 35 53 35 128.5 c 128,-1,20
 35 204 35 204 83 262.5 c 128,-1,21
 131 321 131 321 208 362 c 1,22,23
 187 390 187 390 187 434 c 0,24,25
 187 539 187 539 276.5 603 c 128,-1,26
 366 667 366 667 506 667 c 0,27,28
 567 667 567 667 597 647 c 128,-1,29
 627 627 627 627 627 590.5 c 128,-1,30
 627 554 627 554 583 514 c 128,-1,31
 539 474 539 474 482 470 c 1,32,33
 475 471 475 471 468 479 c 128,-1,34
 461 487 461 487 461 492 c 128,-1,35
 461 497 461 497 463 499 c 0,36,37
 497 534 497 534 497 571 c 0,38,39
 497 588 497 588 473.5 596.5 c 128,-1,40
 450 605 450 605 420.5 605 c 128,-1,41
 391 605 391 605 380 598 c 1,42,43
 319 543 319 543 319 456 c 0,44,45
 319 436 319 436 328 404 c 1,46,47
 356 415 356 415 405.5 415 c 128,-1,48
 455 415 455 415 455 375 c 0,49,0
 455 338 455 338 416 312 c 128,-1,1
EndSplineSet
Substitution2: "'titl' Titling in Latin lookup 22 subtable" E.smcp.titl
Substitution2: "'c2sc' Capitals to Small Capitals in Latin lookup 3 subtable" E.smcp
AlternateSubs2: "'aalt' Access All Alternates in Latin lookup 1 subtable" E.smcp E.smcp.titl
EndChar

StartChar: F
Encoding: 70 70 41
Width: 567
GlyphClass: 2
Flags: W
LayerCount: 2
Fore
SplineSet
435 363 m 1,0,-1
 521 363 l 2,1,2
 568 363 568 363 587 373 c 1,3,4
 590 361 590 361 590 348 c 0,5,6
 590 314 590 314 569 291 c 128,-1,7
 548 268 548 268 509.5 268 c 128,-1,8
 471 268 471 268 412 291 c 1,9,10
 305 -74 305 -74 122 -74 c 0,11,12
 58 -74 58 -74 19 -47.5 c 128,-1,13
 -20 -21 -20 -21 -20 26 c 128,-1,14
 -20 73 -20 73 15 100.5 c 128,-1,15
 50 128 50 128 94 128 c 0,16,17
 108 128 108 128 108 116 c 0,18,19
 108 115 108 115 100 95 c 128,-1,20
 92 75 92 75 92 47 c 128,-1,21
 92 19 92 19 104.5 -1 c 128,-1,22
 117 -21 117 -21 140 -21 c 0,23,24
 175 -21 175 -21 200 42 c 128,-1,25
 225 105 225 105 277 297 c 1,26,27
 227 297 227 297 199 290 c 1,28,29
 189 308 189 308 189 327.5 c 128,-1,30
 189 347 189 347 203.5 360.5 c 128,-1,31
 218 374 218 374 239 374 c 128,-1,32
 260 374 260 374 300 369 c 1,33,34
 336 495 336 495 424 568 c 1,35,36
 297 593 297 593 238 593 c 0,37,38
 207 593 207 593 193 568.5 c 128,-1,39
 179 544 179 544 179 488 c 1,40,41
 173 482 173 482 163 482 c 0,42,43
 144 482 144 482 127 531 c 128,-1,44
 110 580 110 580 110 623 c 128,-1,45
 110 666 110 666 139.5 695.5 c 128,-1,46
 169 725 169 725 223.5 725 c 128,-1,47
 278 725 278 725 356.5 694 c 128,-1,48
 435 663 435 663 497 626 c 1,49,50
 609 686 609 686 699 686 c 0,51,52
 757 686 757 686 757 647 c 0,53,54
 757 604 757 604 723 567.5 c 128,-1,55
 689 531 689 531 637.5 531 c 128,-1,56
 586 531 586 531 491 557 c 1,57,-1
 435 363 l 1,0,-1
EndSplineSet
Substitution2: "'titl' Titling in Latin lookup 22 subtable" F.smcp.titl
Substitution2: "'c2sc' Capitals to Small Capitals in Latin lookup 3 subtable" F.smcp
AlternateSubs2: "'aalt' Access All Alternates in Latin lookup 1 subtable" F.smcp F.smcp.titl
PairPos2: "'kern' Horizontal Kerning in Latin lookup 0 per glyph data 1" r_r dx=0 dy=0 dh=10 dv=0 dx=0 dy=0 dh=0 dv=0
PairPos2: "'kern' Horizontal Kerning in Latin lookup 0 per glyph data 1" r.fina dx=0 dy=0 dh=10 dv=0 dx=0 dy=0 dh=0 dv=0
PairPos2: "'kern' Horizontal Kerning in Latin lookup 0 per glyph data 1" n.alt dx=0 dy=0 dh=10 dv=0 dx=0 dy=0 dh=0 dv=0
PairPos2: "'kern' Horizontal Kerning in Latin lookup 0 per glyph data 1" m.alt dx=0 dy=0 dh=10 dv=0 dx=0 dy=0 dh=0 dv=0
PairPos2: "'kern' Horizontal Kerning in Latin lookup 0 per glyph data 1" k.alt dx=0 dy=0 dh=60 dv=0 dx=0 dy=0 dh=0 dv=0
PairPos2: "'kern' Horizontal Kerning in Latin lookup 0 per glyph data 1" h.alt dx=0 dy=0 dh=60 dv=0 dx=0 dy=0 dh=0 dv=0
PairPos2: "'kern' Horizontal Kerning in Latin lookup 0 per glyph data 1" ellipsis dx=0 dy=0 dh=-75 dv=0 dx=0 dy=0 dh=0 dv=0
PairPos2: "'kern' Horizontal Kerning in Latin lookup 0 per glyph data 1" quotedblbase dx=0 dy=0 dh=-75 dv=0 dx=0 dy=0 dh=0 dv=0
PairPos2: "'kern' Horizontal Kerning in Latin lookup 0 per glyph data 1" quotedblright dx=0 dy=0 dh=65 dv=0 dx=0 dy=0 dh=0 dv=0
PairPos2: "'kern' Horizontal Kerning in Latin lookup 0 per glyph data 1" quotesinglbase dx=0 dy=0 dh=-75 dv=0 dx=0 dy=0 dh=0 dv=0
PairPos2: "'kern' Horizontal Kerning in Latin lookup 0 per glyph data 1" quoteright dx=0 dy=0 dh=65 dv=0 dx=0 dy=0 dh=0 dv=0
PairPos2: "'kern' Horizontal Kerning in Latin lookup 0 per glyph data 1" rcaron dx=0 dy=0 dh=10 dv=0 dx=0 dy=0 dh=0 dv=0
PairPos2: "'kern' Horizontal Kerning in Latin lookup 0 per glyph data 1" rcommaaccent dx=0 dy=0 dh=10 dv=0 dx=0 dy=0 dh=0 dv=0
PairPos2: "'kern' Horizontal Kerning in Latin lookup 0 per glyph data 1" racute dx=0 dy=0 dh=10 dv=0 dx=0 dy=0 dh=0 dv=0
PairPos2: "'kern' Horizontal Kerning in Latin lookup 0 per glyph data 1" eng dx=0 dy=0 dh=10 dv=0 dx=0 dy=0 dh=0 dv=0
PairPos2: "'kern' Horizontal Kerning in Latin lookup 0 per glyph data 1" ncaron dx=0 dy=0 dh=10 dv=0 dx=0 dy=0 dh=0 dv=0
PairPos2: "'kern' Horizontal Kerning in Latin lookup 0 per glyph data 1" ncommaaccent dx=0 dy=0 dh=10 dv=0 dx=0 dy=0 dh=0 dv=0
PairPos2: "'kern' Horizontal Kerning in Latin lookup 0 per glyph data 1" nacute dx=0 dy=0 dh=10 dv=0 dx=0 dy=0 dh=0 dv=0
PairPos2: "'kern' Horizontal Kerning in Latin lookup 0 per glyph data 1" kgreenlandic dx=0 dy=0 dh=10 dv=0 dx=0 dy=0 dh=0 dv=0
PairPos2: "'kern' Horizontal Kerning in Latin lookup 0 per glyph data 1" kcommaaccent dx=0 dy=0 dh=60 dv=0 dx=0 dy=0 dh=0 dv=0
PairPos2: "'kern' Horizontal Kerning in Latin lookup 0 per glyph data 1" hbar dx=0 dy=0 dh=60 dv=0 dx=0 dy=0 dh=0 dv=0
PairPos2: "'kern' Horizontal Kerning in Latin lookup 0 per glyph data 1" hcircumflex dx=0 dy=0 dh=60 dv=0 dx=0 dy=0 dh=0 dv=0
PairPos2: "'kern' Horizontal Kerning in Latin lookup 0 per glyph data 1" ntilde dx=0 dy=0 dh=10 dv=0 dx=0 dy=0 dh=0 dv=0
PairPos2: "'kern' Horizontal Kerning in Latin lookup 0 per glyph data 1" r dx=0 dy=0 dh=10 dv=0 dx=0 dy=0 dh=0 dv=0
PairPos2: "'kern' Horizontal Kerning in Latin lookup 0 per glyph data 1" n dx=0 dy=0 dh=10 dv=0 dx=0 dy=0 dh=0 dv=0
PairPos2: "'kern' Horizontal Kerning in Latin lookup 0 per glyph data 1" m dx=0 dy=0 dh=10 dv=0 dx=0 dy=0 dh=0 dv=0
PairPos2: "'kern' Horizontal Kerning in Latin lookup 0 per glyph data 1" k dx=0 dy=0 dh=60 dv=0 dx=0 dy=0 dh=0 dv=0
PairPos2: "'kern' Horizontal Kerning in Latin lookup 0 per glyph data 1" h dx=0 dy=0 dh=60 dv=0 dx=0 dy=0 dh=0 dv=0
PairPos2: "'kern' Horizontal Kerning in Latin lookup 0 per glyph data 1" b dx=0 dy=0 dh=60 dv=0 dx=0 dy=0 dh=0 dv=0
PairPos2: "'kern' Horizontal Kerning in Latin lookup 0 per glyph data 1" bracketright dx=0 dy=0 dh=113 dv=0 dx=0 dy=0 dh=0 dv=0
PairPos2: "'kern' Horizontal Kerning in Latin lookup 0 per glyph data 1" backslash dx=0 dy=0 dh=120 dv=0 dx=0 dy=0 dh=0 dv=0
PairPos2: "'kern' Horizontal Kerning in Latin lookup 0 per glyph data 1" question dx=0 dy=0 dh=45 dv=0 dx=0 dy=0 dh=0 dv=0
PairPos2: "'kern' Horizontal Kerning in Latin lookup 0 per glyph data 1" period dx=0 dy=0 dh=-75 dv=0 dx=0 dy=0 dh=0 dv=0
PairPos2: "'kern' Horizontal Kerning in Latin lookup 0 per glyph data 1" comma dx=0 dy=0 dh=-75 dv=0 dx=0 dy=0 dh=0 dv=0
PairPos2: "'kern' Horizontal Kerning in Latin lookup 0 per glyph data 1" parenright dx=0 dy=0 dh=53 dv=0 dx=0 dy=0 dh=0 dv=0
EndChar

StartChar: G
Encoding: 71 71 42
Width: 674
GlyphClass: 2
Flags: W
LayerCount: 2
Fore
SplineSet
465 218 m 1,0,-1
 466 236 l 1,1,2
 472 421 472 421 556 421 c 0,3,4
 584 421 584 421 609.5 403.5 c 128,-1,5
 635 386 635 386 635 362 c 0,6,7
 635 313 635 313 562 229 c 1,8,9
 579 133 579 133 579 69 c 0,10,11
 579 -107 579 -107 471 -193.5 c 128,-1,12
 363 -280 363 -280 188 -280 c 128,-1,13
 13 -280 13 -280 13 -170 c 0,14,15
 13 -107 13 -107 61 -66 c 128,-1,16
 109 -25 109 -25 152 -25 c 0,17,18
 168 -25 168 -25 168 -39 c 0,19,20
 168 -40 168 -40 158.5 -70.5 c 128,-1,21
 149 -101 149 -101 149 -134 c 0,22,23
 149 -223 149 -223 228 -223 c 0,24,25
 323 -223 323 -223 384.5 -129.5 c 128,-1,26
 446 -36 446 -36 458 152 c 1,27,28
 313 23 313 23 193 23 c 0,29,30
 136 23 136 23 104 61 c 128,-1,31
 72 99 72 99 72 172 c 128,-1,32
 72 245 72 245 114 330.5 c 128,-1,33
 156 416 156 416 225.5 492.5 c 128,-1,34
 295 569 295 569 399 620.5 c 128,-1,35
 503 672 503 672 615 672 c 0,36,37
 678 672 678 672 713.5 650 c 128,-1,38
 749 628 749 628 749 597 c 0,39,40
 749 551 749 551 708 510 c 128,-1,41
 667 469 667 469 612 458 c 1,42,43
 605 459 605 459 598.5 466.5 c 128,-1,44
 592 474 592 474 592 479.5 c 128,-1,45
 592 485 592 485 602.5 502 c 128,-1,46
 613 519 613 519 613 543.5 c 128,-1,47
 613 568 613 568 585 587 c 128,-1,48
 557 606 557 606 509 606 c 128,-1,49
 461 606 461 606 395 540.5 c 128,-1,50
 329 475 329 475 280.5 378 c 128,-1,51
 232 281 232 281 232 199.5 c 128,-1,52
 232 118 232 118 297 118 c 0,53,54
 375 118 375 118 465 218 c 1,0,-1
EndSplineSet
Substitution2: "Single Substitution lookup 24 subtable" G.alt
Substitution2: "'titl' Titling in Latin lookup 22 subtable" G.smcp.titl
Substitution2: "'c2sc' Capitals to Small Capitals in Latin lookup 3 subtable" G.smcp
AlternateSubs2: "'aalt' Access All Alternates in Latin lookup 1 subtable" G.smcp G.alt G.smcp.titl
EndChar

StartChar: H
Encoding: 72 72 43
Width: 717
GlyphClass: 2
Flags: W
LayerCount: 2
Fore
SplineSet
225 146.5 m 128,-1,1
 212 105 212 105 212 77 c 128,-1,2
 212 49 212 49 221 31 c 1,3,4
 212 16 212 16 184.5 3 c 128,-1,5
 157 -10 157 -10 125 -10 c 128,-1,6
 93 -10 93 -10 76.5 3.5 c 128,-1,7
 60 17 60 17 60 54.5 c 128,-1,8
 60 92 60 92 107 195.5 c 128,-1,9
 154 299 154 299 201 408 c 128,-1,10
 248 517 248 517 248 572 c 0,11,12
 248 584 248 584 218 595.5 c 128,-1,13
 188 607 188 607 169 607 c 0,14,15
 160 607 160 607 160 619.5 c 128,-1,16
 160 632 160 632 166.5 644 c 128,-1,17
 173 656 173 656 176 656 c 0,18,19
 191 655 191 655 202.5 653.5 c 128,-1,20
 214 652 214 652 228 651 c 0,21,22
 256 649 256 649 287 649 c 128,-1,23
 318 649 318 649 340.5 652.5 c 128,-1,24
 363 656 363 656 378.5 660.5 c 128,-1,25
 394 665 394 665 397 665 c 128,-1,26
 400 665 400 665 406 656.5 c 128,-1,27
 412 648 412 648 412 634.5 c 128,-1,28
 412 621 412 621 401.5 586.5 c 128,-1,29
 391 552 391 552 380 525 c 128,-1,30
 369 498 369 498 345 443 c 128,-1,31
 321 388 321 388 310 362 c 1,32,33
 350 354 350 354 404 354 c 128,-1,34
 458 354 458 354 505 361 c 1,35,36
 510 371 510 371 514 381 c 0,37,38
 636 675 636 675 708 675 c 0,39,40
 737 675 737 675 767 662 c 128,-1,41
 797 649 797 649 797 619 c 0,42,43
 797 572 797 572 748.5 495 c 128,-1,44
 700 418 700 418 630 364 c 1,45,46
 601 300 601 300 576.5 212 c 128,-1,47
 552 124 552 124 552 76 c 0,48,49
 552 64 552 64 583.5 57.5 c 128,-1,50
 615 51 615 51 640 51 c 0,51,52
 653 51 653 51 646 15 c 0,53,54
 643 0 643 0 638 0 c 0,55,56
 478 0 478 0 428 -10 c 0,57,58
 424 -10 424 -10 417 -1.5 c 128,-1,59
 410 7 410 7 410 12 c 0,60,61
 410 84 410 84 456 214 c 0,62,63
 476 272 476 272 483 301 c 1,64,65
 385 273 385 273 272 273 c 1,66,0
 238 188 238 188 225 146.5 c 128,-1,1
EndSplineSet
Substitution2: "Single Substitution lookup 24 subtable" H.alt
Substitution2: "'titl' Titling in Latin lookup 22 subtable" H.smcp.titl
Substitution2: "'c2sc' Capitals to Small Capitals in Latin lookup 3 subtable" H.smcp
AlternateSubs2: "'aalt' Access All Alternates in Latin lookup 1 subtable" H.smcp H.alt H.smcp.titl
PairPos2: "'kern' Horizontal Kerning in Latin lookup 0 per glyph data 1" c_k dx=0 dy=0 dh=-10 dv=0 dx=0 dy=0 dh=0 dv=0
PairPos2: "'kern' Horizontal Kerning in Latin lookup 0 per glyph data 1" c_h dx=0 dy=0 dh=-10 dv=0 dx=0 dy=0 dh=0 dv=0
PairPos2: "'kern' Horizontal Kerning in Latin lookup 0 per glyph data 1" odieresis.alt dx=0 dy=0 dh=-10 dv=0 dx=0 dy=0 dh=0 dv=0
PairPos2: "'kern' Horizontal Kerning in Latin lookup 0 per glyph data 1" otilde.alt dx=0 dy=0 dh=-10 dv=0 dx=0 dy=0 dh=0 dv=0
PairPos2: "'kern' Horizontal Kerning in Latin lookup 0 per glyph data 1" ocircumflex.alt dx=0 dy=0 dh=-10 dv=0 dx=0 dy=0 dh=0 dv=0
PairPos2: "'kern' Horizontal Kerning in Latin lookup 0 per glyph data 1" ograve.alt dx=0 dy=0 dh=-10 dv=0 dx=0 dy=0 dh=0 dv=0
PairPos2: "'kern' Horizontal Kerning in Latin lookup 0 per glyph data 1" oacute.alt dx=0 dy=0 dh=-10 dv=0 dx=0 dy=0 dh=0 dv=0
PairPos2: "'kern' Horizontal Kerning in Latin lookup 0 per glyph data 1" o.fina dx=0 dy=0 dh=-10 dv=0 dx=0 dy=0 dh=0 dv=0
PairPos2: "'kern' Horizontal Kerning in Latin lookup 0 per glyph data 1" o.alt dx=0 dy=0 dh=-10 dv=0 dx=0 dy=0 dh=0 dv=0
PairPos2: "'kern' Horizontal Kerning in Latin lookup 0 per glyph data 1" d.alt dx=0 dy=0 dh=-10 dv=0 dx=0 dy=0 dh=0 dv=0
PairPos2: "'kern' Horizontal Kerning in Latin lookup 0 per glyph data 1" c_t dx=0 dy=0 dh=-10 dv=0 dx=0 dy=0 dh=0 dv=0
PairPos2: "'kern' Horizontal Kerning in Latin lookup 0 per glyph data 1" c_l dx=0 dy=0 dh=-10 dv=0 dx=0 dy=0 dh=0 dv=0
PairPos2: "'kern' Horizontal Kerning in Latin lookup 0 per glyph data 1" aring.alt dx=0 dy=0 dh=-10 dv=0 dx=0 dy=0 dh=0 dv=0
PairPos2: "'kern' Horizontal Kerning in Latin lookup 0 per glyph data 1" atilde.alt dx=0 dy=0 dh=-10 dv=0 dx=0 dy=0 dh=0 dv=0
PairPos2: "'kern' Horizontal Kerning in Latin lookup 0 per glyph data 1" adieresis.alt dx=0 dy=0 dh=-10 dv=0 dx=0 dy=0 dh=0 dv=0
PairPos2: "'kern' Horizontal Kerning in Latin lookup 0 per glyph data 1" acircumflex.alt dx=0 dy=0 dh=-10 dv=0 dx=0 dy=0 dh=0 dv=0
PairPos2: "'kern' Horizontal Kerning in Latin lookup 0 per glyph data 1" agrave.alt dx=0 dy=0 dh=-10 dv=0 dx=0 dy=0 dh=0 dv=0
PairPos2: "'kern' Horizontal Kerning in Latin lookup 0 per glyph data 1" aacute.alt dx=0 dy=0 dh=-10 dv=0 dx=0 dy=0 dh=0 dv=0
PairPos2: "'kern' Horizontal Kerning in Latin lookup 0 per glyph data 1" a.alt dx=0 dy=0 dh=-10 dv=0 dx=0 dy=0 dh=0 dv=0
PairPos2: "'kern' Horizontal Kerning in Latin lookup 0 per glyph data 1" oe dx=0 dy=0 dh=-10 dv=0 dx=0 dy=0 dh=0 dv=0
PairPos2: "'kern' Horizontal Kerning in Latin lookup 0 per glyph data 1" ohungarumlaut dx=0 dy=0 dh=-10 dv=0 dx=0 dy=0 dh=0 dv=0
PairPos2: "'kern' Horizontal Kerning in Latin lookup 0 per glyph data 1" omacron dx=0 dy=0 dh=-10 dv=0 dx=0 dy=0 dh=0 dv=0
PairPos2: "'kern' Horizontal Kerning in Latin lookup 0 per glyph data 1" gcommaaccent dx=0 dy=0 dh=-10 dv=0 dx=0 dy=0 dh=0 dv=0
PairPos2: "'kern' Horizontal Kerning in Latin lookup 0 per glyph data 1" gdotaccent dx=0 dy=0 dh=-10 dv=0 dx=0 dy=0 dh=0 dv=0
PairPos2: "'kern' Horizontal Kerning in Latin lookup 0 per glyph data 1" gbreve dx=0 dy=0 dh=-10 dv=0 dx=0 dy=0 dh=0 dv=0
PairPos2: "'kern' Horizontal Kerning in Latin lookup 0 per glyph data 1" gcircumflex dx=0 dy=0 dh=-10 dv=0 dx=0 dy=0 dh=0 dv=0
PairPos2: "'kern' Horizontal Kerning in Latin lookup 0 per glyph data 1" ecaron dx=0 dy=0 dh=-10 dv=0 dx=0 dy=0 dh=0 dv=0
PairPos2: "'kern' Horizontal Kerning in Latin lookup 0 per glyph data 1" eogonek dx=0 dy=0 dh=-10 dv=0 dx=0 dy=0 dh=0 dv=0
PairPos2: "'kern' Horizontal Kerning in Latin lookup 0 per glyph data 1" edotaccent dx=0 dy=0 dh=-10 dv=0 dx=0 dy=0 dh=0 dv=0
PairPos2: "'kern' Horizontal Kerning in Latin lookup 0 per glyph data 1" emacron dx=0 dy=0 dh=-10 dv=0 dx=0 dy=0 dh=0 dv=0
PairPos2: "'kern' Horizontal Kerning in Latin lookup 0 per glyph data 1" dcroat dx=0 dy=0 dh=-10 dv=0 dx=0 dy=0 dh=0 dv=0
PairPos2: "'kern' Horizontal Kerning in Latin lookup 0 per glyph data 1" dcaron dx=0 dy=0 dh=-10 dv=0 dx=0 dy=0 dh=0 dv=0
PairPos2: "'kern' Horizontal Kerning in Latin lookup 0 per glyph data 1" ccaron dx=0 dy=0 dh=-10 dv=0 dx=0 dy=0 dh=0 dv=0
PairPos2: "'kern' Horizontal Kerning in Latin lookup 0 per glyph data 1" cdotaccent dx=0 dy=0 dh=-10 dv=0 dx=0 dy=0 dh=0 dv=0
PairPos2: "'kern' Horizontal Kerning in Latin lookup 0 per glyph data 1" ccircumflex dx=0 dy=0 dh=-10 dv=0 dx=0 dy=0 dh=0 dv=0
PairPos2: "'kern' Horizontal Kerning in Latin lookup 0 per glyph data 1" cacute dx=0 dy=0 dh=-10 dv=0 dx=0 dy=0 dh=0 dv=0
PairPos2: "'kern' Horizontal Kerning in Latin lookup 0 per glyph data 1" aogonek dx=0 dy=0 dh=-10 dv=0 dx=0 dy=0 dh=0 dv=0
PairPos2: "'kern' Horizontal Kerning in Latin lookup 0 per glyph data 1" abreve dx=0 dy=0 dh=-10 dv=0 dx=0 dy=0 dh=0 dv=0
PairPos2: "'kern' Horizontal Kerning in Latin lookup 0 per glyph data 1" amacron dx=0 dy=0 dh=-10 dv=0 dx=0 dy=0 dh=0 dv=0
PairPos2: "'kern' Horizontal Kerning in Latin lookup 0 per glyph data 1" odieresis dx=0 dy=0 dh=-10 dv=0 dx=0 dy=0 dh=0 dv=0
PairPos2: "'kern' Horizontal Kerning in Latin lookup 0 per glyph data 1" otilde dx=0 dy=0 dh=-10 dv=0 dx=0 dy=0 dh=0 dv=0
PairPos2: "'kern' Horizontal Kerning in Latin lookup 0 per glyph data 1" ocircumflex dx=0 dy=0 dh=-10 dv=0 dx=0 dy=0 dh=0 dv=0
PairPos2: "'kern' Horizontal Kerning in Latin lookup 0 per glyph data 1" oacute dx=0 dy=0 dh=-10 dv=0 dx=0 dy=0 dh=0 dv=0
PairPos2: "'kern' Horizontal Kerning in Latin lookup 0 per glyph data 1" ograve dx=0 dy=0 dh=-10 dv=0 dx=0 dy=0 dh=0 dv=0
PairPos2: "'kern' Horizontal Kerning in Latin lookup 0 per glyph data 1" edieresis dx=0 dy=0 dh=-10 dv=0 dx=0 dy=0 dh=0 dv=0
PairPos2: "'kern' Horizontal Kerning in Latin lookup 0 per glyph data 1" ecircumflex dx=0 dy=0 dh=-10 dv=0 dx=0 dy=0 dh=0 dv=0
PairPos2: "'kern' Horizontal Kerning in Latin lookup 0 per glyph data 1" eacute dx=0 dy=0 dh=-10 dv=0 dx=0 dy=0 dh=0 dv=0
PairPos2: "'kern' Horizontal Kerning in Latin lookup 0 per glyph data 1" egrave dx=0 dy=0 dh=-10 dv=0 dx=0 dy=0 dh=0 dv=0
PairPos2: "'kern' Horizontal Kerning in Latin lookup 0 per glyph data 1" ccedilla dx=0 dy=0 dh=-10 dv=0 dx=0 dy=0 dh=0 dv=0
PairPos2: "'kern' Horizontal Kerning in Latin lookup 0 per glyph data 1" ae dx=0 dy=0 dh=-10 dv=0 dx=0 dy=0 dh=0 dv=0
PairPos2: "'kern' Horizontal Kerning in Latin lookup 0 per glyph data 1" aring dx=0 dy=0 dh=-10 dv=0 dx=0 dy=0 dh=0 dv=0
PairPos2: "'kern' Horizontal Kerning in Latin lookup 0 per glyph data 1" adieresis dx=0 dy=0 dh=-10 dv=0 dx=0 dy=0 dh=0 dv=0
PairPos2: "'kern' Horizontal Kerning in Latin lookup 0 per glyph data 1" atilde dx=0 dy=0 dh=-10 dv=0 dx=0 dy=0 dh=0 dv=0
PairPos2: "'kern' Horizontal Kerning in Latin lookup 0 per glyph data 1" acircumflex dx=0 dy=0 dh=-10 dv=0 dx=0 dy=0 dh=0 dv=0
PairPos2: "'kern' Horizontal Kerning in Latin lookup 0 per glyph data 1" aacute dx=0 dy=0 dh=-10 dv=0 dx=0 dy=0 dh=0 dv=0
PairPos2: "'kern' Horizontal Kerning in Latin lookup 0 per glyph data 1" agrave dx=0 dy=0 dh=-10 dv=0 dx=0 dy=0 dh=0 dv=0
PairPos2: "'kern' Horizontal Kerning in Latin lookup 0 per glyph data 1" q dx=0 dy=0 dh=-10 dv=0 dx=0 dy=0 dh=0 dv=0
PairPos2: "'kern' Horizontal Kerning in Latin lookup 0 per glyph data 1" o dx=0 dy=0 dh=-10 dv=0 dx=0 dy=0 dh=0 dv=0
PairPos2: "'kern' Horizontal Kerning in Latin lookup 0 per glyph data 1" g dx=0 dy=0 dh=-10 dv=0 dx=0 dy=0 dh=0 dv=0
PairPos2: "'kern' Horizontal Kerning in Latin lookup 0 per glyph data 1" e dx=0 dy=0 dh=-10 dv=0 dx=0 dy=0 dh=0 dv=0
PairPos2: "'kern' Horizontal Kerning in Latin lookup 0 per glyph data 1" d dx=0 dy=0 dh=-10 dv=0 dx=0 dy=0 dh=0 dv=0
PairPos2: "'kern' Horizontal Kerning in Latin lookup 0 per glyph data 1" c dx=0 dy=0 dh=-10 dv=0 dx=0 dy=0 dh=0 dv=0
PairPos2: "'kern' Horizontal Kerning in Latin lookup 0 per glyph data 1" a dx=0 dy=0 dh=-10 dv=0 dx=0 dy=0 dh=0 dv=0
EndChar

StartChar: I
Encoding: 73 73 44
Width: 452
GlyphClass: 2
Flags: W
LayerCount: 2
Fore
SplineSet
381 113 m 1,0,1
 394 86 394 86 394 57 c 128,-1,2
 394 28 394 28 375 8.5 c 128,-1,3
 356 -11 356 -11 325.5 -11 c 128,-1,4
 295 -11 295 -11 234 -5 c 128,-1,5
 173 1 173 1 138 1 c 0,6,7
 62 1 62 1 30 -22 c 1,8,9
 20 -6 20 -6 20 14 c 0,10,11
 20 48 20 48 52 74 c 128,-1,12
 84 100 84 100 136 100 c 0,13,14
 143 100 143 100 157 98 c 1,15,16
 167 185 167 185 207 326 c 128,-1,17
 247 467 247 467 295 561 c 1,18,19
 286 562 286 562 271 562 c 0,20,21
 231 562 231 562 192 537 c 1,22,23
 179 564 179 564 179 593 c 128,-1,24
 179 622 179 622 198 641.5 c 128,-1,25
 217 661 217 661 247.5 661 c 128,-1,26
 278 661 278 661 339 655 c 128,-1,27
 400 649 400 649 435 649 c 0,28,29
 511 649 511 649 543 672 c 1,30,31
 553 656 553 656 553 636 c 0,32,33
 553 602 553 602 521 576 c 128,-1,34
 489 550 489 550 437 550 c 0,35,36
 430 550 430 550 416 552 c 1,37,38
 388 508 388 508 333.5 335.5 c 128,-1,39
 279 163 279 163 278 89 c 1,40,41
 287 88 287 88 302 88 c 0,42,43
 342 88 342 88 381 113 c 1,0,1
EndSplineSet
Substitution2: "Single Substitution lookup 24 subtable" I.alt
Substitution2: "'titl' Titling in Latin lookup 22 subtable" I.smcp.titl
Substitution2: "'c2sc' Capitals to Small Capitals in Latin lookup 3 subtable" I.smcp
AlternateSubs2: "'aalt' Access All Alternates in Latin lookup 1 subtable" I.smcp I.alt I.smcp.titl
EndChar

StartChar: J
Encoding: 74 74 45
Width: 468
GlyphClass: 2
Flags: W
LayerCount: 2
Fore
SplineSet
374 531 m 1,0,1
 250 582 250 582 194 582 c 0,2,3
 161 582 161 582 147 558 c 128,-1,4
 133 534 133 534 133 478 c 1,5,6
 127 472 127 472 117 472 c 0,7,8
 98 472 98 472 81 521 c 128,-1,9
 64 570 64 570 64 613 c 128,-1,10
 64 656 64 656 93.5 685.5 c 128,-1,11
 123 715 123 715 174 715 c 0,12,13
 285 715 285 715 468 600 c 1,14,15
 506 616 506 616 525 616 c 0,16,17
 568 616 568 616 568 584 c 0,18,19
 568 536 568 536 549 511 c 128,-1,20
 530 486 530 486 503 486 c 128,-1,21
 476 486 476 486 433 506 c 1,22,23
 376 207 376 207 336 83 c 0,24,25
 254 -173 254 -173 112 -239 c 0,26,27
 56 -266 56 -266 -10.5 -266 c 128,-1,28
 -77 -266 -77 -266 -118.5 -240 c 128,-1,29
 -160 -214 -160 -214 -160 -158.5 c 128,-1,30
 -160 -103 -160 -103 -109.5 -58.5 c 128,-1,31
 -59 -14 -59 -14 -18 -14 c 0,32,33
 0 -14 0 -14 0 -26 c 0,34,35
 0 -27 0 -27 -10.5 -61 c 128,-1,36
 -21 -95 -21 -95 -21 -120 c 128,-1,37
 -21 -145 -21 -145 8 -167.5 c 128,-1,38
 37 -190 37 -190 84 -190 c 0,39,40
 135 -190 135 -190 184 8 c 0,41,42
 206 97 206 97 229.5 191.5 c 128,-1,43
 253 286 253 286 291 381.5 c 128,-1,44
 329 477 329 477 374 531 c 1,0,1
EndSplineSet
Substitution2: "Single Substitution lookup 24 subtable" J.alt
Substitution2: "'titl' Titling in Latin lookup 22 subtable" J.smcp.titl
Substitution2: "'c2sc' Capitals to Small Capitals in Latin lookup 3 subtable" J.smcp
AlternateSubs2: "'aalt' Access All Alternates in Latin lookup 1 subtable" J.smcp J.alt J.smcp.titl
EndChar

StartChar: K
Encoding: 75 75 46
Width: 618
GlyphClass: 2
Flags: W
LayerCount: 2
Fore
SplineSet
180 659 m 0,0,1
 236 655 236 655 281 655 c 128,-1,2
 326 655 326 655 398 666 c 0,3,4
 402 666 402 666 408 656 c 128,-1,5
 414 646 414 646 414 641 c 1,6,7
 395 568 395 568 356 476 c 128,-1,8
 317 384 317 384 308 361 c 1,9,-1
 316 361 l 1,10,11
 407 495 407 495 507.5 580 c 128,-1,12
 608 665 608 665 673 665 c 0,13,14
 709 665 709 665 728.5 646.5 c 128,-1,15
 748 628 748 628 748 596 c 128,-1,16
 748 564 748 564 732 537.5 c 128,-1,17
 716 511 716 511 703 511 c 0,18,19
 701 511 701 511 681 523 c 128,-1,20
 661 535 661 535 645 535 c 0,21,22
 593 535 593 535 522.5 487 c 128,-1,23
 452 439 452 439 396 369 c 1,24,25
 418 232 418 232 448.5 153 c 128,-1,26
 479 74 479 74 529 74 c 0,27,28
 566 74 566 74 601 103 c 1,29,30
 611 96 611 96 611 78 c 0,31,32
 611 46 611 46 572.5 13 c 128,-1,33
 534 -20 534 -20 480 -20 c 128,-1,34
 426 -20 426 -20 394.5 2 c 128,-1,35
 363 24 363 24 348 68 c 0,36,37
 320 146 320 146 318 287 c 1,38,-1
 250 198 l 1,39,40
 208 103 208 103 171 46.5 c 128,-1,41
 134 -10 134 -10 101 -10 c 128,-1,42
 68 -10 68 -10 36.5 3 c 128,-1,43
 5 16 5 16 5 46 c 0,44,45
 5 73 5 73 57 134 c 0,46,47
 75 155 75 155 113 197 c 1,48,49
 252 512 252 512 252 575 c 0,50,51
 252 587 252 587 222 598.5 c 128,-1,52
 192 610 192 610 173 610 c 0,53,54
 164 610 164 610 164 622.5 c 128,-1,55
 164 635 164 635 170.5 647 c 128,-1,56
 177 659 177 659 180 659 c 0,0,1
EndSplineSet
Substitution2: "Single Substitution lookup 24 subtable" K.alt
Substitution2: "'titl' Titling in Latin lookup 22 subtable" K.smcp.titl
Substitution2: "'c2sc' Capitals to Small Capitals in Latin lookup 3 subtable" K.smcp
AlternateSubs2: "'aalt' Access All Alternates in Latin lookup 1 subtable" K.smcp K.alt K.smcp.titl
EndChar

StartChar: L
Encoding: 76 76 47
Width: 495
GlyphClass: 2
Flags: W
LayerCount: 2
Fore
SplineSet
-18 104.5 m 128,-1,1
 14 150 14 150 50 150 c 128,-1,2
 86 150 86 150 132 119 c 1,3,4
 170 195 170 195 187 290 c 1,5,-1
 216 464 l 2,6,7
 238 599 238 599 320 656 c 0,8,9
 395 707 395 707 485 707 c 0,10,11
 541 707 541 707 568 688 c 128,-1,12
 595 669 595 669 595 634.5 c 128,-1,13
 595 600 595 600 566 568.5 c 128,-1,14
 537 537 537 537 515 537 c 0,15,16
 504 537 504 537 498 555 c 0,17,18
 486 592 486 592 461 611.5 c 128,-1,19
 436 631 436 631 408 631 c 128,-1,20
 380 631 380 631 367 610.5 c 128,-1,21
 354 590 354 590 349 538 c 2,22,-1
 327 317 l 2,23,24
 319 228 319 228 274 174 c 0,25,26
 251 147 251 147 230 129.5 c 128,-1,27
 209 112 209 112 176 89 c 1,28,29
 181 86 181 86 204.5 71.5 c 128,-1,30
 228 57 228 57 237 52 c 128,-1,31
 246 47 246 47 266.5 36 c 128,-1,32
 287 25 287 25 298 20 c 0,33,34
 330 8 330 8 355 8 c 0,35,36
 421 8 421 8 473 66 c 1,37,38
 500 66 500 66 502 41 c 1,39,40
 451 -119 451 -119 333 -119 c 0,41,42
 271 -119 271 -119 222 -83 c 128,-1,43
 173 -47 173 -47 111 36 c 1,44,45
 38 -21 38 -21 -18 -21 c 0,46,47
 -50 -21 -50 -21 -50 11 c 0,48,0
 -50 59 -50 59 -18 104.5 c 128,-1,1
EndSplineSet
Substitution2: "Single Substitution lookup 24 subtable" L.alt
Substitution2: "'titl' Titling in Latin lookup 22 subtable" L.smcp.titl
Substitution2: "'c2sc' Capitals to Small Capitals in Latin lookup 3 subtable" L.smcp
AlternateSubs2: "'aalt' Access All Alternates in Latin lookup 1 subtable" L.smcp L.alt L.smcp.titl
EndChar

StartChar: M
Encoding: 77 77 48
Width: 844
GlyphClass: 2
Flags: W
LayerCount: 2
Fore
SplineSet
667 427 m 1,0,-1
 443 180 l 1,1,2
 444 168 444 168 444 145 c 0,3,4
 444 87 444 87 402.5 38.5 c 128,-1,5
 361 -10 361 -10 319 -10 c 0,6,7
 294 -10 294 -10 280.5 11 c 128,-1,8
 267 32 267 32 267 57 c 0,9,10
 267 102 267 102 314 162 c 1,11,12
 318 190 318 190 318 206 c 0,13,14
 318 266 318 266 284 392 c 1,15,16
 171 125 171 125 85 44 c 0,17,18
 44 5 44 5 15.5 -8 c 128,-1,19
 -13 -21 -13 -21 -45.5 -21 c 128,-1,20
 -78 -21 -78 -21 -99 12 c 128,-1,21
 -120 45 -120 45 -120 86 c 0,22,23
 -120 101 -120 101 -89 122 c 1,24,25
 -56 106 -56 106 -25.5 106 c 128,-1,26
 5 106 5 106 44.5 145 c 128,-1,27
 84 184 84 184 126 248 c 0,28,29
 196 355 196 355 260 477 c 1,30,31
 242 544 242 544 242 595 c 128,-1,32
 242 646 242 646 275 674 c 0,33,34
 282 680 282 680 306.5 687 c 128,-1,35
 331 694 331 694 352.5 694 c 128,-1,36
 374 694 374 694 382 685 c 0,37,38
 396 668 396 668 396 633 c 0,39,40
 396 559 396 559 357 512 c 1,41,42
 358 509 358 509 374 474 c 0,43,44
 419 380 419 380 435 264 c 1,45,46
 481 316 481 316 577.5 417.5 c 128,-1,47
 674 519 674 519 694 542 c 1,48,49
 710 603 710 603 742.5 646.5 c 128,-1,50
 775 690 775 690 804 690 c 128,-1,51
 833 690 833 690 858.5 671 c 128,-1,52
 884 652 884 652 884 628 c 0,53,54
 884 607 884 607 847 568 c 0,55,56
 837 558 837 558 832.5 553 c 128,-1,57
 828 548 828 548 816.5 537 c 128,-1,58
 805 526 805 526 803 524 c 0,59,60
 772 456 772 456 753.5 351 c 128,-1,61
 735 246 735 246 735 179 c 0,62,63
 735 74 735 74 796 74 c 0,64,65
 817 74 817 74 841 82 c 1,66,67
 848 76 848 76 848 67 c 0,68,69
 848 41 848 41 808.5 9.5 c 128,-1,70
 769 -22 769 -22 716 -22 c 128,-1,71
 663 -22 663 -22 627 14 c 128,-1,72
 591 50 591 50 591 123 c 0,73,74
 591 201 591 201 629 316 c 0,75,76
 641 353 641 353 667 427 c 1,0,-1
EndSplineSet
Substitution2: "Single Substitution lookup 24 subtable" M.alt
Substitution2: "'titl' Titling in Latin lookup 22 subtable" M.smcp.titl
Substitution2: "'c2sc' Capitals to Small Capitals in Latin lookup 3 subtable" M.smcp
AlternateSubs2: "'aalt' Access All Alternates in Latin lookup 1 subtable" M.smcp M.alt M.smcp.titl
EndChar

StartChar: N
Encoding: 78 78 49
Width: 714
GlyphClass: 2
Flags: W
LayerCount: 2
Fore
SplineSet
593 3 m 1,0,-1
 588 -15 l 1,1,2
 563 -29 563 -29 530 -29 c 128,-1,3
 497 -29 497 -29 475 -18 c 128,-1,4
 453 -7 453 -7 432 18.5 c 128,-1,5
 411 44 411 44 395.5 67 c 128,-1,6
 380 90 380 90 360 133.5 c 128,-1,7
 340 177 340 177 329 202.5 c 128,-1,8
 318 228 318 228 297.5 280.5 c 128,-1,9
 277 333 277 333 268 354 c 1,10,11
 198 134 198 134 163 68 c 0,12,13
 117 -19 117 -19 63 -19 c 0,14,15
 29 -19 29 -19 9.5 0.5 c 128,-1,16
 -10 20 -10 20 -10 41 c 256,17,18
 -10 62 -10 62 0 66 c 0,19,20
 10 69 10 69 26 69 c 0,21,22
 63 69 63 69 123.5 183.5 c 128,-1,23
 184 298 184 298 228 452 c 1,24,25
 207 551 207 551 207 593 c 128,-1,26
 207 635 207 635 220 659.5 c 128,-1,27
 233 684 233 684 266 684 c 0,28,29
 358 684 358 684 358 631 c 0,30,31
 358 604 358 604 336 538 c 1,32,33
 347 510 347 510 369 453.5 c 128,-1,34
 391 397 391 397 400.5 373.5 c 128,-1,35
 410 350 410 350 427 308.5 c 128,-1,36
 444 267 444 267 454 244 c 0,37,38
 481 184 481 184 508 136 c 1,39,-1
 521 200 l 1,40,41
 588 536 588 536 614 596 c 0,42,43
 628 626 628 626 645 646 c 0,44,45
 689 697 689 697 747 697 c 0,46,47
 784 697 784 697 809 673.5 c 128,-1,48
 834 650 834 650 834 611 c 0,49,50
 834 592 834 592 829 575 c 1,51,52
 815 579 815 579 798.5 579 c 128,-1,53
 782 579 782 579 760 569 c 128,-1,54
 738 559 738 559 707.5 525.5 c 128,-1,55
 677 492 677 492 651 437.5 c 128,-1,56
 625 383 625 383 600 283 c 128,-1,57
 575 183 575 183 560 52 c 1,58,59
 560 31 560 31 593 3 c 1,0,-1
EndSplineSet
Substitution2: "Single Substitution lookup 24 subtable" N.alt
Substitution2: "'titl' Titling in Latin lookup 22 subtable" N.smcp.titl
Substitution2: "'c2sc' Capitals to Small Capitals in Latin lookup 3 subtable" N.smcp
AlternateSubs2: "'aalt' Access All Alternates in Latin lookup 1 subtable" N.smcp N.alt N.smcp.titl
EndChar

StartChar: O
Encoding: 79 79 50
Width: 647
GlyphClass: 2
Flags: W
LayerCount: 2
Fore
SplineSet
294 69 m 0,0,1
 350 69 350 69 405.5 127.5 c 128,-1,2
 461 186 461 186 493.5 264.5 c 128,-1,3
 526 343 526 343 526 408 c 0,4,5
 526 554 526 554 405 554 c 0,6,7
 385 554 385 554 368 550 c 128,-1,8
 351 546 351 546 348 542.5 c 128,-1,9
 345 539 345 539 336 528 c 128,-1,10
 327 517 327 517 303.5 481.5 c 128,-1,11
 280 446 280 446 262 409.5 c 128,-1,12
 244 373 244 373 229.5 319 c 128,-1,13
 215 265 215 265 215 206.5 c 128,-1,14
 215 148 215 148 236.5 108.5 c 128,-1,15
 258 69 258 69 294 69 c 0,0,1
240 -15 m 0,16,17
 159 -15 159 -15 114.5 31.5 c 128,-1,18
 70 78 70 78 70 159.5 c 128,-1,19
 70 241 70 241 107 332 c 128,-1,20
 144 423 144 423 205 495.5 c 128,-1,21
 266 568 266 568 351.5 614 c 128,-1,22
 437 660 437 660 528 660 c 0,23,24
 588 660 588 660 627.5 619 c 128,-1,25
 667 578 667 578 667 512 c 0,26,27
 667 378 667 378 605 255 c 128,-1,28
 543 132 543 132 444 58.5 c 128,-1,29
 345 -15 345 -15 240 -15 c 0,16,17
EndSplineSet
Substitution2: "Single Substitution lookup 25 subtable" O.alt02
Substitution2: "Single Substitution lookup 24 subtable" O.alt
Substitution2: "'titl' Titling in Latin lookup 22 subtable" O.smcp.titl
Substitution2: "'c2sc' Capitals to Small Capitals in Latin lookup 3 subtable" O.smcp
AlternateSubs2: "'aalt' Access All Alternates in Latin lookup 1 subtable" O.smcp O.alt O.alt02 O.smcp.titl
EndChar

StartChar: P
Encoding: 80 80 51
Width: 567
GlyphClass: 2
Flags: W
LayerCount: 2
Fore
SplineSet
292 655 m 2,0,-1
 505 661 l 1,1,2
 586 661 586 661 631 617 c 128,-1,3
 676 573 676 573 676 507 c 0,4,5
 676 413 676 413 589 333 c 128,-1,6
 502 253 502 253 347 241 c 1,7,8
 332 241 332 241 332 275 c 0,9,10
 332 290 332 290 337 300 c 1,11,12
 429 302 429 302 485.5 362 c 128,-1,13
 542 422 542 422 542 491 c 0,14,15
 542 535 542 535 515.5 563.5 c 128,-1,16
 489 592 489 592 438 592 c 0,17,18
 409 592 409 592 395 590 c 1,19,20
 382 535 382 535 298.5 329.5 c 128,-1,21
 215 124 215 124 215 67 c 0,22,23
 215 54 215 54 224 31 c 1,24,25
 215 16 215 16 187.5 3 c 128,-1,26
 160 -10 160 -10 130 -10 c 0,27,28
 60 -10 60 -10 60 49 c 0,29,30
 60 88 60 88 105 193 c 128,-1,31
 150 298 150 298 194.5 410 c 128,-1,32
 239 522 239 522 239 577 c 0,33,34
 239 589 239 589 213.5 600.5 c 128,-1,35
 188 612 188 612 170 612 c 0,36,37
 161 612 161 612 161 624.5 c 128,-1,38
 161 637 161 637 167.5 649 c 128,-1,39
 174 661 174 661 177 661 c 0,40,41
 261 655 261 655 292 655 c 2,0,-1
EndSplineSet
Substitution2: "Single Substitution lookup 24 subtable" P.alt
Substitution2: "'titl' Titling in Latin lookup 22 subtable" P.smcp.titl
Substitution2: "'c2sc' Capitals to Small Capitals in Latin lookup 3 subtable" P.smcp
AlternateSubs2: "'aalt' Access All Alternates in Latin lookup 1 subtable" P.smcp P.alt P.smcp.titl
EndChar

StartChar: Q
Encoding: 81 81 52
Width: 673
GlyphClass: 2
Flags: W
LayerCount: 2
Fore
SplineSet
207 -81 m 1,0,-1
 207 -87 l 1,1,2
 470 -149 470 -149 593 -149 c 0,3,4
 630 -149 630 -149 650.5 -134 c 128,-1,5
 671 -119 671 -119 697 -79 c 1,6,7
 699 -78 699 -78 701 -78 c 2,8,9
 701 -78 701 -78 706 -78 c 0,10,11
 719 -78 719 -78 729 -84 c 1,12,13
 729 -170 729 -170 689 -225 c 128,-1,14
 649 -280 649 -280 579.5 -280 c 128,-1,15
 510 -280 510 -280 408.5 -247.5 c 128,-1,16
 307 -215 307 -215 214 -178 c 128,-1,17
 121 -141 121 -141 95 -136 c 1,18,19
 55 -152 55 -152 38.5 -152 c 128,-1,20
 22 -152 22 -152 11 -142 c 128,-1,21
 0 -132 0 -132 0 -110 c 128,-1,22
 0 -88 0 -88 19 -64 c 128,-1,23
 38 -40 38 -40 67 -40 c 0,24,25
 86 -40 86 -40 122 -49 c 2,26,-1
 134 -52 l 1,27,28
 353 28 353 28 458 166 c 0,29,30
 498 217 498 217 523 287.5 c 128,-1,31
 548 358 548 358 548 435 c 128,-1,32
 548 512 548 512 508.5 547 c 128,-1,33
 469 582 469 582 405 582 c 1,34,35
 335 546 335 546 282.5 445.5 c 128,-1,36
 230 345 230 345 230 252 c 0,37,38
 230 207 230 207 246.5 189.5 c 128,-1,39
 263 172 263 172 281.5 172 c 128,-1,40
 300 172 300 172 322.5 186 c 128,-1,41
 345 200 345 200 357 213 c 1,42,43
 383 204 383 204 387 179 c 1,44,45
 342 120 342 120 268 94 c 0,46,47
 238 83 238 83 208 83 c 0,48,49
 153 83 153 83 114.5 116.5 c 128,-1,50
 76 150 76 150 76 219.5 c 128,-1,51
 76 289 76 289 115.5 370 c 128,-1,52
 155 451 155 451 217.5 514.5 c 128,-1,53
 280 578 280 578 362.5 619 c 128,-1,54
 445 660 445 660 524 660 c 128,-1,55
 603 660 603 660 653 613 c 128,-1,56
 703 566 703 566 703 482 c 128,-1,57
 703 398 703 398 670.5 319.5 c 128,-1,58
 638 241 638 241 586 179.5 c 128,-1,59
 534 118 534 118 467 65 c 0,60,61
 347 -30 347 -30 207 -81 c 1,0,-1
EndSplineSet
Substitution2: "Single Substitution lookup 24 subtable" Q.alt
Substitution2: "'titl' Titling in Latin lookup 22 subtable" Q.smcp.titl
Substitution2: "'c2sc' Capitals to Small Capitals in Latin lookup 3 subtable" Q.smcp
AlternateSubs2: "'aalt' Access All Alternates in Latin lookup 1 subtable" Q.smcp Q.alt Q.smcp.titl
PairPos2: "'kern' Horizontal Kerning in Latin lookup 0 per glyph data 1" W.smcp dx=0 dy=0 dh=25 dv=0 dx=0 dy=0 dh=0 dv=0
PairPos2: "'kern' Horizontal Kerning in Latin lookup 0 per glyph data 1" V.smcp dx=0 dy=0 dh=25 dv=0 dx=0 dy=0 dh=0 dv=0
PairPos2: "'kern' Horizontal Kerning in Latin lookup 0 per glyph data 1" S.smcp dx=0 dy=0 dh=-5 dv=0 dx=0 dy=0 dh=0 dv=0
PairPos2: "'kern' Horizontal Kerning in Latin lookup 0 per glyph data 1" M.smcp dx=0 dy=0 dh=-20 dv=0 dx=0 dy=0 dh=0 dv=0
PairPos2: "'kern' Horizontal Kerning in Latin lookup 0 per glyph data 1" A.smcp dx=0 dy=0 dh=-15 dv=0 dx=0 dy=0 dh=0 dv=0
PairPos2: "'kern' Horizontal Kerning in Latin lookup 0 per glyph data 1" ellipsis dx=0 dy=0 dh=-40 dv=0 dx=0 dy=0 dh=0 dv=0
PairPos2: "'kern' Horizontal Kerning in Latin lookup 0 per glyph data 1" quotedblbase dx=0 dy=0 dh=-40 dv=0 dx=0 dy=0 dh=0 dv=0
PairPos2: "'kern' Horizontal Kerning in Latin lookup 0 per glyph data 1" quotesinglbase dx=0 dy=0 dh=-40 dv=0 dx=0 dy=0 dh=0 dv=0
PairPos2: "'kern' Horizontal Kerning in Latin lookup 0 per glyph data 1" bracketright dx=0 dy=0 dh=173 dv=0 dx=0 dy=0 dh=0 dv=0
PairPos2: "'kern' Horizontal Kerning in Latin lookup 0 per glyph data 1" backslash dx=0 dy=0 dh=-20 dv=0 dx=0 dy=0 dh=0 dv=0
PairPos2: "'kern' Horizontal Kerning in Latin lookup 0 per glyph data 1" at dx=0 dy=0 dh=47 dv=0 dx=0 dy=0 dh=0 dv=0
PairPos2: "'kern' Horizontal Kerning in Latin lookup 0 per glyph data 1" question dx=0 dy=0 dh=-40 dv=0 dx=0 dy=0 dh=0 dv=0
PairPos2: "'kern' Horizontal Kerning in Latin lookup 0 per glyph data 1" slash dx=0 dy=0 dh=225 dv=0 dx=0 dy=0 dh=0 dv=0
PairPos2: "'kern' Horizontal Kerning in Latin lookup 0 per glyph data 1" period dx=0 dy=0 dh=-40 dv=0 dx=0 dy=0 dh=0 dv=0
PairPos2: "'kern' Horizontal Kerning in Latin lookup 0 per glyph data 1" comma dx=0 dy=0 dh=107 dv=0 dx=0 dy=0 dh=0 dv=0
PairPos2: "'kern' Horizontal Kerning in Latin lookup 0 per glyph data 1" parenright dx=0 dy=0 dh=255 dv=0 dx=0 dy=0 dh=0 dv=0
EndChar

StartChar: R
Encoding: 82 82 53
Width: 647
GlyphClass: 2
Flags: W
LayerCount: 2
Fore
SplineSet
292 655 m 1,0,-1
 502 661 l 1,1,2
 582 661 582 661 629.5 624 c 128,-1,3
 677 587 677 587 677 509 c 128,-1,4
 677 431 677 431 618 369.5 c 128,-1,5
 559 308 559 308 475 283 c 1,6,7
 506 74 506 74 578 74 c 0,8,9
 615 74 615 74 657 103 c 1,10,11
 667 96 667 96 667 78 c 0,12,13
 667 46 667 46 628.5 13 c 128,-1,14
 590 -20 590 -20 528 -20 c 0,15,16
 378 -20 378 -20 378 203 c 0,17,18
 378 220 378 220 380 252 c 1,19,20
 364 246 364 246 353 246 c 0,21,22
 324 246 324 246 324 270 c 0,23,24
 324 297 324 297 349 330.5 c 128,-1,25
 374 364 374 364 401 364 c 128,-1,26
 428 364 428 364 455 335 c 1,27,28
 524 401 524 401 524 483 c 0,29,30
 524 535 524 535 498.5 565 c 128,-1,31
 473 595 473 595 425 595 c 0,32,33
 399 595 399 595 385 593 c 1,34,35
 378 545 378 545 337 440.5 c 128,-1,36
 296 336 296 336 259.5 232 c 128,-1,37
 223 128 223 128 223 66 c 0,38,39
 223 52 223 52 232 30 c 1,40,41
 228 26 228 26 220.5 19 c 128,-1,42
 213 12 213 12 186.5 1 c 128,-1,43
 160 -10 160 -10 130 -10 c 0,44,45
 60 -10 60 -10 60 47 c 0,46,47
 60 85 60 85 105 187.5 c 128,-1,48
 150 290 150 290 195.5 400.5 c 128,-1,49
 241 511 241 511 241 571 c 0,50,51
 241 589 241 589 225.5 596.5 c 128,-1,52
 210 604 210 604 170 607 c 1,53,54
 162 612 162 612 162 630.5 c 128,-1,55
 162 649 162 649 177 661 c 1,56,57
 184 661 184 661 205 659 c 0,58,59
 247 655 247 655 292 655 c 1,0,-1
EndSplineSet
Substitution2: "Single Substitution lookup 24 subtable" R.alt
Substitution2: "'titl' Titling in Latin lookup 22 subtable" R.smcp.titl
Substitution2: "'c2sc' Capitals to Small Capitals in Latin lookup 3 subtable" R.smcp
AlternateSubs2: "'aalt' Access All Alternates in Latin lookup 1 subtable" R.smcp R.alt R.smcp.titl
EndChar

StartChar: S
Encoding: 83 83 54
Width: 494
GlyphClass: 2
Flags: W
LayerCount: 2
Fore
SplineSet
452 441 m 1,0,1
 435 447 435 447 435 465 c 1,2,3
 453 487 453 487 453 521 c 128,-1,4
 453 555 453 555 427.5 580 c 128,-1,5
 402 605 402 605 360 605 c 0,6,7
 342 605 342 605 327 601 c 1,8,9
 292 562 292 562 292 516.5 c 128,-1,10
 292 471 292 471 320.5 428 c 128,-1,11
 349 385 349 385 383 350.5 c 128,-1,12
 417 316 417 316 445.5 270 c 128,-1,13
 474 224 474 224 474 182 c 0,14,15
 474 85 474 85 397 31 c 128,-1,16
 320 -23 320 -23 208 -23 c 0,17,18
 121 -23 121 -23 73 11 c 128,-1,19
 25 45 25 45 25 96.5 c 128,-1,20
 25 148 25 148 58 182 c 128,-1,21
 91 216 91 216 151 216 c 0,22,23
 162 216 162 216 162 206 c 0,24,25
 162 202 162 202 154 175.5 c 128,-1,26
 146 149 146 149 146 128 c 0,27,28
 146 87 146 87 171 62.5 c 128,-1,29
 196 38 196 38 236.5 38 c 128,-1,30
 277 38 277 38 302.5 64.5 c 128,-1,31
 328 91 328 91 328 135 c 0,32,33
 328 175 328 175 266 247 c 0,34,35
 240 277 240 277 214 310 c 0,36,37
 152 389 152 389 152 467 c 0,38,39
 152 563 152 563 230 616.5 c 128,-1,40
 308 670 308 670 424 670 c 0,41,42
 494 670 494 670 534 642.5 c 128,-1,43
 574 615 574 615 574 571 c 128,-1,44
 574 527 574 527 537 489.5 c 128,-1,45
 500 452 500 452 452 441 c 1,0,1
EndSplineSet
Substitution2: "Single Substitution lookup 24 subtable" S.alt
Substitution2: "'titl' Titling in Latin lookup 22 subtable" S.smcp.titl
Substitution2: "'c2sc' Capitals to Small Capitals in Latin lookup 3 subtable" S.smcp
AlternateSubs2: "'aalt' Access All Alternates in Latin lookup 1 subtable" S.smcp S.alt S.smcp.titl
EndChar

StartChar: T
Encoding: 84 84 55
Width: 538
GlyphClass: 2
Flags: W
LayerCount: 2
Fore
SplineSet
406 541 m 1,0,1
 260 599 260 599 187 599 c 0,2,3
 128 599 128 599 128 510 c 1,4,5
 119 504 119 504 107 504 c 0,6,7
 91 504 91 504 76.5 543 c 128,-1,8
 62 582 62 582 62 618 c 128,-1,9
 62 654 62 654 89.5 678.5 c 128,-1,10
 117 703 117 703 164 703 c 0,11,12
 246 703 246 703 384.5 665 c 128,-1,13
 523 627 523 627 578 627 c 0,14,15
 611 627 611 627 625 651 c 128,-1,16
 639 675 639 675 639 731 c 1,17,18
 645 737 645 737 655 737 c 0,19,20
 675 737 675 737 691.5 692 c 128,-1,21
 708 647 708 647 708 600 c 128,-1,22
 708 553 708 553 678.5 523.5 c 128,-1,23
 649 494 649 494 596.5 494 c 128,-1,24
 544 494 544 494 475 517 c 1,25,26
 407 189 407 189 318 59 c 0,27,28
 273 -6 273 -6 227.5 -34.5 c 128,-1,29
 182 -63 182 -63 118.5 -63 c 128,-1,30
 55 -63 55 -63 12.5 -33 c 128,-1,31
 -30 -3 -30 -3 -30 43 c 128,-1,32
 -30 89 -30 89 16 128 c 128,-1,33
 62 167 62 167 93 167 c 0,34,35
 107 167 107 167 107 155 c 0,36,37
 107 154 107 154 96 131.5 c 128,-1,38
 85 109 85 109 85 83.5 c 128,-1,39
 85 58 85 58 116 29.5 c 128,-1,40
 147 1 147 1 182 1 c 0,41,42
 202 1 202 1 218.5 45.5 c 128,-1,43
 235 90 235 90 250.5 159 c 128,-1,44
 266 228 266 228 284.5 301 c 128,-1,45
 303 374 303 374 334.5 442 c 128,-1,46
 366 510 366 510 406 541 c 1,0,1
EndSplineSet
Substitution2: "Single Substitution lookup 24 subtable" T.alt
Substitution2: "'titl' Titling in Latin lookup 22 subtable" T.smcp.titl
Substitution2: "'c2sc' Capitals to Small Capitals in Latin lookup 3 subtable" T.smcp
AlternateSubs2: "'aalt' Access All Alternates in Latin lookup 1 subtable" T.smcp T.alt T.smcp.titl
EndChar

StartChar: U
Encoding: 85 85 56
Width: 683
GlyphClass: 2
Flags: W
LayerCount: 2
Fore
SplineSet
270 655 m 1,0,-1
 356 661 l 2,1,2
 368 661 368 661 376.5 651.5 c 128,-1,3
 385 642 385 642 385 625 c 0,4,5
 385 568 385 568 345 466.5 c 128,-1,6
 305 365 305 365 265 269.5 c 128,-1,7
 225 174 225 174 225 133 c 0,8,9
 225 101 225 101 258 101 c 128,-1,10
 291 101 291 101 352.5 161.5 c 128,-1,11
 414 222 414 222 464 299 c 1,12,13
 523 496 523 496 569 582.5 c 128,-1,14
 615 669 615 669 678 669 c 0,15,16
 698 669 698 669 718 647 c 128,-1,17
 738 625 738 625 738 606 c 0,18,19
 738 567 738 567 697 485.5 c 128,-1,20
 656 404 656 404 570 291 c 1,21,22
 561 259 561 259 554 211 c 128,-1,23
 547 163 547 163 547 141 c 0,24,25
 547 63 547 63 608 63 c 0,26,27
 634 63 634 63 666 76 c 1,28,29
 683 63 683 63 683 41.5 c 128,-1,30
 683 20 683 20 635.5 1.5 c 128,-1,31
 588 -17 588 -17 540 -17 c 128,-1,32
 492 -17 492 -17 465 10 c 128,-1,33
 438 37 438 37 438 88 c 128,-1,34
 438 139 438 139 451 187 c 1,35,-1
 446 187 l 1,36,37
 391 110 391 110 317 48.5 c 128,-1,38
 243 -13 243 -13 179 -13 c 0,39,40
 131 -13 131 -13 108 15.5 c 128,-1,41
 85 44 85 44 85 92.5 c 128,-1,42
 85 141 85 141 120.5 232.5 c 128,-1,43
 156 324 156 324 191.5 420 c 128,-1,44
 227 516 227 516 227 575 c 1,45,46
 221 591 221 591 205.5 597.5 c 128,-1,47
 190 604 190 604 157 606 c 1,48,49
 150 613 150 613 150 625 c 128,-1,50
 150 637 150 637 156.5 649 c 128,-1,51
 163 661 163 661 169 661 c 2,52,-1
 270 655 l 1,0,-1
EndSplineSet
Substitution2: "'titl' Titling in Latin lookup 22 subtable" U.smcp.titl
Substitution2: "'c2sc' Capitals to Small Capitals in Latin lookup 3 subtable" U.smcp
AlternateSubs2: "'aalt' Access All Alternates in Latin lookup 1 subtable" U.smcp U.smcp.titl
EndChar

StartChar: V
Encoding: 86 86 57
Width: 529
GlyphClass: 2
Flags: W
LayerCount: 2
Fore
SplineSet
85 31 m 1,0,1
 86 43 86 43 97 54.5 c 128,-1,2
 108 66 108 66 118 71 c 2,3,-1
 129 76 l 1,4,5
 147 213 147 213 147 338 c 128,-1,6
 147 463 147 463 132 529.5 c 128,-1,7
 117 596 117 596 94 596 c 0,8,9
 66 596 66 596 41 587 c 1,10,11
 26 598 26 598 26 613 c 0,12,13
 26 620 26 620 43 631.5 c 128,-1,14
 60 643 60 643 95 653 c 128,-1,15
 130 663 130 663 170 663 c 0,16,17
 223 663 223 663 255.5 612.5 c 128,-1,18
 288 562 288 562 288 452 c 0,19,20
 288 338 288 338 262 188 c 1,21,-1
 254 138 l 1,22,23
 363 233 363 233 449.5 377.5 c 128,-1,24
 536 522 536 522 536 599 c 1,25,-1
 530 662 l 1,26,27
 558 670 558 670 587 670 c 0,28,29
 664 670 664 670 664 586.5 c 128,-1,30
 664 503 664 503 526 336.5 c 128,-1,31
 388 170 388 170 243 59 c 1,32,33
 234 25 234 25 198.5 0.5 c 128,-1,34
 163 -24 163 -24 138 -24 c 128,-1,35
 113 -24 113 -24 99 -8 c 128,-1,36
 85 8 85 8 85 31 c 1,0,1
EndSplineSet
Substitution2: "'titl' Titling in Latin lookup 22 subtable" V.smcp.titl
Substitution2: "'c2sc' Capitals to Small Capitals in Latin lookup 3 subtable" V.smcp
AlternateSubs2: "'aalt' Access All Alternates in Latin lookup 1 subtable" V.smcp V.smcp.titl
EndChar

StartChar: W
Encoding: 87 87 58
Width: 862
GlyphClass: 2
Flags: W
LayerCount: 2
Fore
SplineSet
578 72 m 1,0,1
 546 -34 546 -34 484 -34 c 0,2,3
 461 -34 461 -34 438.5 -15.5 c 128,-1,4
 416 3 416 3 416 24.5 c 128,-1,5
 416 46 416 46 426.5 59.5 c 128,-1,6
 437 73 437 73 461 91 c 1,7,8
 476 201 476 201 478 332 c 1,9,10
 364 186 364 186 234 71 c 1,11,12
 195 -27 195 -27 138 -27 c 0,13,14
 112 -27 112 -27 91 -9.5 c 128,-1,15
 70 8 70 8 70 28 c 0,16,17
 70 62 70 62 114 89 c 1,18,19
 132 226 132 226 132 344.5 c 128,-1,20
 132 463 132 463 117 529.5 c 128,-1,21
 102 596 102 596 79 596 c 0,22,23
 51 596 51 596 26 587 c 1,24,25
 11 598 11 598 11 613 c 0,26,27
 11 620 11 620 28 631.5 c 128,-1,28
 45 643 45 643 80 653 c 128,-1,29
 115 663 115 663 155 663 c 0,30,31
 208 663 208 663 240.5 612.5 c 128,-1,32
 273 562 273 562 273 452 c 0,33,34
 273 338 273 338 248 188 c 1,35,-1
 239 138 l 1,36,37
 313 202 313 202 374.5 290 c 128,-1,38
 436 378 436 378 476 467 c 1,39,40
 474 511 474 511 465 553 c 128,-1,41
 456 595 456 595 456 601 c 0,42,43
 456 631 456 631 483 649 c 128,-1,44
 510 667 510 667 552 667 c 128,-1,45
 594 667 594 667 607 654.5 c 128,-1,46
 620 642 620 642 620 612.5 c 128,-1,47
 620 583 620 583 612 524 c 128,-1,48
 604 465 604 465 604 447 c 0,49,50
 604 324 604 324 584 140 c 1,51,52
 701 242 701 242 772.5 358 c 128,-1,53
 844 474 844 474 844 576 c 0,54,55
 844 614 844 614 835.5 631 c 128,-1,56
 827 648 827 648 827 651.5 c 128,-1,57
 827 655 827 655 834 660 c 0,58,59
 856 676 856 676 896 676 c 128,-1,60
 936 676 936 676 959 654.5 c 128,-1,61
 982 633 982 633 982 591 c 0,62,63
 982 454 982 454 844 308 c 0,64,65
 777 237 777 237 718 185.5 c 128,-1,66
 659 134 659 134 578 72 c 1,0,1
EndSplineSet
Substitution2: "Single Substitution lookup 25 subtable" W.alt.001
Substitution2: "Single Substitution lookup 24 subtable" W.alt
Substitution2: "'titl' Titling in Latin lookup 22 subtable" W.smcp.titl
Substitution2: "'c2sc' Capitals to Small Capitals in Latin lookup 3 subtable" W.smcp
AlternateSubs2: "'aalt' Access All Alternates in Latin lookup 1 subtable" W.smcp W.alt W.alt.001 W.smcp.titl
EndChar

StartChar: X
Encoding: 88 88 59
Width: 620
GlyphClass: 2
Flags: W
LayerCount: 2
Fore
SplineSet
303 217 m 1,0,-1
 299 217 l 1,1,2
 200 66 200 66 159 28 c 0,3,4
 113 -15 113 -15 73.5 -15 c 128,-1,5
 34 -15 34 -15 12 9.5 c 128,-1,6
 -10 34 -10 34 -10 63 c 128,-1,7
 -10 92 -10 92 -4 107 c 128,-1,8
 2 122 2 122 8 122 c 0,9,10
 10 122 10 122 17 117 c 0,11,12
 38 102 38 102 67 102 c 0,13,14
 145 102 145 102 292 297 c 1,15,16
 270 448 270 448 249.5 493 c 128,-1,17
 229 538 229 538 192 538 c 0,18,19
 165 538 165 538 146 516 c 0,20,21
 140 509 140 509 138 509 c 128,-1,22
 136 509 136 509 132 513 c 0,23,24
 121 524 121 524 121 549 c 0,25,26
 121 594 121 594 157.5 630.5 c 128,-1,27
 194 667 194 667 261 667 c 128,-1,28
 328 667 328 667 352.5 610 c 128,-1,29
 377 553 377 553 393 408 c 1,30,-1
 398 408 l 1,31,32
 491 556 491 556 548.5 610.5 c 128,-1,33
 606 665 606 665 666 665 c 0,34,35
 699 665 699 665 714.5 647.5 c 128,-1,36
 730 630 730 630 730 605 c 128,-1,37
 730 580 730 580 720.5 557 c 128,-1,38
 711 534 711 534 701 521.5 c 128,-1,39
 691 509 691 509 688.5 509 c 128,-1,40
 686 509 686 509 670 521 c 128,-1,41
 654 533 654 533 630 533 c 0,42,43
 577 533 577 533 528.5 483.5 c 128,-1,44
 480 434 480 434 407 330 c 1,45,46
 429 206 429 206 455.5 150 c 128,-1,47
 482 94 482 94 535 94 c 0,48,49
 574 94 574 94 583.5 100.5 c 128,-1,50
 593 107 593 107 595 107 c 0,51,52
 601 107 601 107 601 84 c 0,53,54
 601 44 601 44 564 8 c 128,-1,55
 527 -28 527 -28 462.5 -28 c 128,-1,56
 398 -28 398 -28 360.5 29.5 c 128,-1,57
 323 87 323 87 303 217 c 1,0,-1
EndSplineSet
Substitution2: "Single Substitution lookup 24 subtable" X.alt
Substitution2: "'titl' Titling in Latin lookup 22 subtable" X.smcp.titl
Substitution2: "'c2sc' Capitals to Small Capitals in Latin lookup 3 subtable" X.smcp
AlternateSubs2: "'aalt' Access All Alternates in Latin lookup 1 subtable" X.smcp X.alt X.smcp.titl
PairPos2: "'kern' Horizontal Kerning in Latin lookup 0 per glyph data 1" emdash dx=0 dy=0 dh=-25 dv=0 dx=0 dy=0 dh=0 dv=0
PairPos2: "'kern' Horizontal Kerning in Latin lookup 0 per glyph data 1" endash dx=0 dy=0 dh=-25 dv=0 dx=0 dy=0 dh=0 dv=0
PairPos2: "'kern' Horizontal Kerning in Latin lookup 0 per glyph data 1" periodcentered dx=0 dy=0 dh=-25 dv=0 dx=0 dy=0 dh=0 dv=0
PairPos2: "'kern' Horizontal Kerning in Latin lookup 0 per glyph data 1" bracketright dx=0 dy=0 dh=46 dv=0 dx=0 dy=0 dh=0 dv=0
PairPos2: "'kern' Horizontal Kerning in Latin lookup 0 per glyph data 1" hyphen dx=0 dy=0 dh=-25 dv=0 dx=0 dy=0 dh=0 dv=0
EndChar

StartChar: Y
Encoding: 89 89 60
Width: 459
GlyphClass: 2
Flags: W
LayerCount: 2
Fore
SplineSet
261 326 m 1,0,-1
 267 325 l 1,1,2
 326 488 326 488 401 581 c 128,-1,3
 476 674 476 674 544 674 c 0,4,5
 586 674 586 674 606.5 651 c 128,-1,6
 627 628 627 628 627 595.5 c 128,-1,7
 627 563 627 563 614.5 541.5 c 128,-1,8
 602 520 602 520 591 520 c 0,9,10
 589 520 589 520 567.5 532 c 128,-1,11
 546 544 546 544 530 544 c 0,12,13
 479 544 479 544 410 452 c 128,-1,14
 341 360 341 360 272 218 c 1,15,16
 270 122 270 122 252 54.5 c 128,-1,17
 234 -13 234 -13 206 -13 c 0,18,19
 179 -13 179 -13 154 -6 c 0,20,21
 108 7 108 7 108 39.5 c 128,-1,22
 108 72 108 72 135 132.5 c 128,-1,23
 162 193 162 193 197 236 c 1,24,25
 185 431 185 431 128 498 c 0,26,27
 101 529 101 529 75 541 c 128,-1,28
 49 553 49 553 17 553 c 1,29,30
 16 560 16 560 16 573 c 0,31,32
 16 622 16 622 43 649.5 c 128,-1,33
 70 677 70 677 106 677 c 128,-1,34
 142 677 142 677 166 664 c 128,-1,35
 190 651 190 651 205.5 632 c 128,-1,36
 221 613 221 613 232 581 c 128,-1,37
 243 549 243 549 248.5 522 c 128,-1,38
 254 495 254 495 257 454 c 0,39,40
 261 399 261 399 261 326 c 1,0,-1
EndSplineSet
Substitution2: "Single Substitution lookup 24 subtable" Y.alt
Substitution2: "'titl' Titling in Latin lookup 22 subtable" Y.smcp.titl
Substitution2: "'c2sc' Capitals to Small Capitals in Latin lookup 3 subtable" Y.smcp
AlternateSubs2: "'aalt' Access All Alternates in Latin lookup 1 subtable" Y.smcp Y.alt Y.smcp.titl
EndChar

StartChar: Z
Encoding: 90 90 61
Width: 560
GlyphClass: 2
Flags: W
LayerCount: 2
Fore
SplineSet
167 419 m 1,0,-1
 124 419 l 1,1,2
 103 514 103 514 103 562 c 128,-1,3
 103 610 103 610 131.5 642 c 128,-1,4
 160 674 160 674 217 674 c 128,-1,5
 274 674 274 674 379 630.5 c 128,-1,6
 484 587 484 587 501 582 c 1,7,8
 519 631 519 631 535.5 651.5 c 128,-1,9
 552 672 552 672 582 672 c 0,10,11
 600 672 600 672 620 647 c 128,-1,12
 640 622 640 622 640 590.5 c 128,-1,13
 640 559 640 559 605 521 c 128,-1,14
 570 483 570 483 513 456 c 1,15,16
 408 304 408 304 234 123 c 1,17,18
 288 76 288 76 345.5 43.5 c 128,-1,19
 403 11 403 11 443.5 11 c 128,-1,20
 484 11 484 11 506.5 26.5 c 128,-1,21
 529 42 529 42 559 90 c 1,22,23
 593 86 593 86 593 56 c 128,-1,24
 593 26 593 26 573 -17 c 128,-1,25
 553 -60 553 -60 512 -96.5 c 128,-1,26
 471 -133 471 -133 423 -133 c 0,27,28
 309 -133 309 -133 180 50 c 1,29,30
 123 -20 123 -20 81 -20 c 0,31,32
 57 -20 57 -20 46 -6 c 128,-1,33
 35 8 35 8 35 50 c 128,-1,34
 35 92 35 92 61.5 139.5 c 128,-1,35
 88 187 88 187 131 187 c 0,36,37
 151 187 151 187 184 167 c 1,38,39
 325 315 325 315 432 465 c 1,40,41
 416 470 416 470 372 485 c 0,42,43
 277 517 277 517 240 517 c 128,-1,44
 203 517 203 517 186.5 494 c 128,-1,45
 170 471 170 471 167 419 c 1,0,-1
EndSplineSet
Substitution2: "'titl' Titling in Latin lookup 22 subtable" Z.smcp.titl
Substitution2: "'c2sc' Capitals to Small Capitals in Latin lookup 3 subtable" Z.smcp
AlternateSubs2: "'aalt' Access All Alternates in Latin lookup 1 subtable" Z.smcp Z.smcp.titl
EndChar

StartChar: bracketleft
Encoding: 91 91 62
Width: 435
GlyphClass: 2
Flags: W
LayerCount: 2
Fore
SplineSet
312 -55 m 1,0,-1
 355 -55 l 1,1,2
 355 -117 355 -117 320.5 -158.5 c 128,-1,3
 286 -200 286 -200 216 -200 c 0,4,5
 168 -200 168 -200 122.5 -178.5 c 128,-1,6
 77 -157 77 -157 56 -136 c 2,7,-1
 34 -114 l 1,8,9
 -1 -141 -1 -141 -30 -141 c 128,-1,10
 -59 -141 -59 -141 -69.5 -129.5 c 128,-1,11
 -80 -118 -80 -118 -80 -94 c 0,12,13
 -80 -52 -80 -52 -21 -52 c 0,14,15
 -10 -52 -10 -52 8 -54 c 1,16,17
 174 313 174 313 222 581 c 1,18,19
 149 583 149 583 149 636 c 0,20,21
 149 658 149 658 161.5 670 c 128,-1,22
 174 682 174 682 193 682 c 0,23,24
 243 682 243 682 277 649 c 1,25,26
 294 655 294 655 329 669 c 128,-1,27
 364 683 364 683 384 690 c 0,28,29
 441 710 441 710 486 710 c 0,30,31
 545 710 545 710 545 643 c 0,32,33
 545 610 545 610 532 559 c 1,34,-1
 480 559 l 1,35,36
 478 610 478 610 430 610 c 0,37,38
 412 610 412 610 309 594 c 1,39,40
 320 557 320 557 320 520 c 0,41,42
 320 413 320 413 232 205.5 c 128,-1,43
 144 -2 144 -2 74 -75 c 1,44,45
 145 -97 145 -97 224 -97 c 0,46,47
 284 -97 284 -97 306 -70 c 0,48,49
 311 -64 311 -64 312 -55 c 1,0,-1
EndSplineSet
Substitution2: "'titl' Titling in Latin lookup 22 subtable" inicio
Substitution2: "'aalt' Access All Alternates in Latin lookup 0 subtable" inicio
PairPos2: "'kern' Horizontal Kerning in Latin lookup 0 per glyph data 1" f_k dx=0 dy=0 dh=180 dv=0 dx=0 dy=0 dh=0 dv=0
PairPos2: "'kern' Horizontal Kerning in Latin lookup 0 per glyph data 1" f_j dx=0 dy=0 dh=180 dv=0 dx=0 dy=0 dh=0 dv=0
PairPos2: "'kern' Horizontal Kerning in Latin lookup 0 per glyph data 1" f_h dx=0 dy=0 dh=180 dv=0 dx=0 dy=0 dh=0 dv=0
PairPos2: "'kern' Horizontal Kerning in Latin lookup 0 per glyph data 1" f_b dx=0 dy=0 dh=180 dv=0 dx=0 dy=0 dh=0 dv=0
PairPos2: "'kern' Horizontal Kerning in Latin lookup 0 per glyph data 1" f.alt dx=0 dy=0 dh=180 dv=0 dx=0 dy=0 dh=0 dv=0
PairPos2: "'kern' Horizontal Kerning in Latin lookup 0 per glyph data 1" T_h dx=0 dy=0 dh=74 dv=0 dx=0 dy=0 dh=0 dv=0
PairPos2: "'kern' Horizontal Kerning in Latin lookup 0 per glyph data 1" Q.alt dx=0 dy=0 dh=-40 dv=0 dx=0 dy=0 dh=0 dv=0
PairPos2: "'kern' Horizontal Kerning in Latin lookup 0 per glyph data 1" O.alt02 dx=0 dy=0 dh=-40 dv=0 dx=0 dy=0 dh=0 dv=0
PairPos2: "'kern' Horizontal Kerning in Latin lookup 0 per glyph data 1" L_l dx=0 dy=0 dh=-26 dv=0 dx=0 dy=0 dh=0 dv=0
PairPos2: "'kern' Horizontal Kerning in Latin lookup 0 per glyph data 1" G.alt dx=0 dy=0 dh=-20 dv=0 dx=0 dy=0 dh=0 dv=0
PairPos2: "'kern' Horizontal Kerning in Latin lookup 0 per glyph data 1" C_h dx=0 dy=0 dh=-20 dv=0 dx=0 dy=0 dh=0 dv=0
PairPos2: "'kern' Horizontal Kerning in Latin lookup 0 per glyph data 1" f_f_i dx=0 dy=0 dh=180 dv=0 dx=0 dy=0 dh=0 dv=0
PairPos2: "'kern' Horizontal Kerning in Latin lookup 0 per glyph data 1" f_f dx=0 dy=0 dh=180 dv=0 dx=0 dy=0 dh=0 dv=0
PairPos2: "'kern' Horizontal Kerning in Latin lookup 0 per glyph data 1" Scommaaccent dx=0 dy=0 dh=-26 dv=0 dx=0 dy=0 dh=0 dv=0
PairPos2: "'kern' Horizontal Kerning in Latin lookup 0 per glyph data 1" florin dx=0 dy=0 dh=180 dv=0 dx=0 dy=0 dh=0 dv=0
PairPos2: "'kern' Horizontal Kerning in Latin lookup 0 per glyph data 1" Zcaron dx=0 dy=0 dh=20 dv=0 dx=0 dy=0 dh=0 dv=0
PairPos2: "'kern' Horizontal Kerning in Latin lookup 0 per glyph data 1" Zdotaccent dx=0 dy=0 dh=20 dv=0 dx=0 dy=0 dh=0 dv=0
PairPos2: "'kern' Horizontal Kerning in Latin lookup 0 per glyph data 1" Zacute dx=0 dy=0 dh=20 dv=0 dx=0 dy=0 dh=0 dv=0
PairPos2: "'kern' Horizontal Kerning in Latin lookup 0 per glyph data 1" Ydieresis dx=0 dy=0 dh=113 dv=0 dx=0 dy=0 dh=0 dv=0
PairPos2: "'kern' Horizontal Kerning in Latin lookup 0 per glyph data 1" Tcaron dx=0 dy=0 dh=74 dv=0 dx=0 dy=0 dh=0 dv=0
PairPos2: "'kern' Horizontal Kerning in Latin lookup 0 per glyph data 1" Tcommaaccent dx=0 dy=0 dh=74 dv=0 dx=0 dy=0 dh=0 dv=0
PairPos2: "'kern' Horizontal Kerning in Latin lookup 0 per glyph data 1" Scaron dx=0 dy=0 dh=-26 dv=0 dx=0 dy=0 dh=0 dv=0
PairPos2: "'kern' Horizontal Kerning in Latin lookup 0 per glyph data 1" Scedilla dx=0 dy=0 dh=-26 dv=0 dx=0 dy=0 dh=0 dv=0
PairPos2: "'kern' Horizontal Kerning in Latin lookup 0 per glyph data 1" Scircumflex dx=0 dy=0 dh=-26 dv=0 dx=0 dy=0 dh=0 dv=0
PairPos2: "'kern' Horizontal Kerning in Latin lookup 0 per glyph data 1" Sacute dx=0 dy=0 dh=-26 dv=0 dx=0 dy=0 dh=0 dv=0
PairPos2: "'kern' Horizontal Kerning in Latin lookup 0 per glyph data 1" OE dx=0 dy=0 dh=-26 dv=0 dx=0 dy=0 dh=0 dv=0
PairPos2: "'kern' Horizontal Kerning in Latin lookup 0 per glyph data 1" Ohungarumlaut dx=0 dy=0 dh=-40 dv=0 dx=0 dy=0 dh=0 dv=0
PairPos2: "'kern' Horizontal Kerning in Latin lookup 0 per glyph data 1" Omacron dx=0 dy=0 dh=-40 dv=0 dx=0 dy=0 dh=0 dv=0
PairPos2: "'kern' Horizontal Kerning in Latin lookup 0 per glyph data 1" Eng dx=0 dy=0 dh=-47 dv=0 dx=0 dy=0 dh=0 dv=0
PairPos2: "'kern' Horizontal Kerning in Latin lookup 0 per glyph data 1" Ncaron dx=0 dy=0 dh=-47 dv=0 dx=0 dy=0 dh=0 dv=0
PairPos2: "'kern' Horizontal Kerning in Latin lookup 0 per glyph data 1" Ncommaaccent dx=0 dy=0 dh=-47 dv=0 dx=0 dy=0 dh=0 dv=0
PairPos2: "'kern' Horizontal Kerning in Latin lookup 0 per glyph data 1" Nacute dx=0 dy=0 dh=-47 dv=0 dx=0 dy=0 dh=0 dv=0
PairPos2: "'kern' Horizontal Kerning in Latin lookup 0 per glyph data 1" Lcaron dx=0 dy=0 dh=-26 dv=0 dx=0 dy=0 dh=0 dv=0
PairPos2: "'kern' Horizontal Kerning in Latin lookup 0 per glyph data 1" Lcommaaccent dx=0 dy=0 dh=-26 dv=0 dx=0 dy=0 dh=0 dv=0
PairPos2: "'kern' Horizontal Kerning in Latin lookup 0 per glyph data 1" Lacute dx=0 dy=0 dh=-26 dv=0 dx=0 dy=0 dh=0 dv=0
PairPos2: "'kern' Horizontal Kerning in Latin lookup 0 per glyph data 1" jcircumflex dx=0 dy=0 dh=180 dv=0 dx=0 dy=0 dh=0 dv=0
PairPos2: "'kern' Horizontal Kerning in Latin lookup 0 per glyph data 1" Jcircumflex dx=0 dy=0 dh=73 dv=0 dx=0 dy=0 dh=0 dv=0
PairPos2: "'kern' Horizontal Kerning in Latin lookup 0 per glyph data 1" Idotaccent dx=0 dy=0 dh=-20 dv=0 dx=0 dy=0 dh=0 dv=0
PairPos2: "'kern' Horizontal Kerning in Latin lookup 0 per glyph data 1" Imacron dx=0 dy=0 dh=-20 dv=0 dx=0 dy=0 dh=0 dv=0
PairPos2: "'kern' Horizontal Kerning in Latin lookup 0 per glyph data 1" Itilde dx=0 dy=0 dh=-20 dv=0 dx=0 dy=0 dh=0 dv=0
PairPos2: "'kern' Horizontal Kerning in Latin lookup 0 per glyph data 1" Gcommaaccent dx=0 dy=0 dh=-40 dv=0 dx=0 dy=0 dh=0 dv=0
PairPos2: "'kern' Horizontal Kerning in Latin lookup 0 per glyph data 1" Gdotaccent dx=0 dy=0 dh=-40 dv=0 dx=0 dy=0 dh=0 dv=0
PairPos2: "'kern' Horizontal Kerning in Latin lookup 0 per glyph data 1" Gbreve dx=0 dy=0 dh=-40 dv=0 dx=0 dy=0 dh=0 dv=0
PairPos2: "'kern' Horizontal Kerning in Latin lookup 0 per glyph data 1" Gcircumflex dx=0 dy=0 dh=-40 dv=0 dx=0 dy=0 dh=0 dv=0
PairPos2: "'kern' Horizontal Kerning in Latin lookup 0 per glyph data 1" Ecaron dx=0 dy=0 dh=-26 dv=0 dx=0 dy=0 dh=0 dv=0
PairPos2: "'kern' Horizontal Kerning in Latin lookup 0 per glyph data 1" Eogonek dx=0 dy=0 dh=-26 dv=0 dx=0 dy=0 dh=0 dv=0
PairPos2: "'kern' Horizontal Kerning in Latin lookup 0 per glyph data 1" Edotaccent dx=0 dy=0 dh=-26 dv=0 dx=0 dy=0 dh=0 dv=0
PairPos2: "'kern' Horizontal Kerning in Latin lookup 0 per glyph data 1" Emacron dx=0 dy=0 dh=-26 dv=0 dx=0 dy=0 dh=0 dv=0
PairPos2: "'kern' Horizontal Kerning in Latin lookup 0 per glyph data 1" Ccaron dx=0 dy=0 dh=-20 dv=0 dx=0 dy=0 dh=0 dv=0
PairPos2: "'kern' Horizontal Kerning in Latin lookup 0 per glyph data 1" Cdotaccent dx=0 dy=0 dh=-20 dv=0 dx=0 dy=0 dh=0 dv=0
PairPos2: "'kern' Horizontal Kerning in Latin lookup 0 per glyph data 1" Ccircumflex dx=0 dy=0 dh=-20 dv=0 dx=0 dy=0 dh=0 dv=0
PairPos2: "'kern' Horizontal Kerning in Latin lookup 0 per glyph data 1" Cacute dx=0 dy=0 dh=-20 dv=0 dx=0 dy=0 dh=0 dv=0
PairPos2: "'kern' Horizontal Kerning in Latin lookup 0 per glyph data 1" germandbls dx=0 dy=0 dh=214 dv=0 dx=0 dy=0 dh=0 dv=0
PairPos2: "'kern' Horizontal Kerning in Latin lookup 0 per glyph data 1" Yacute dx=0 dy=0 dh=113 dv=0 dx=0 dy=0 dh=0 dv=0
PairPos2: "'kern' Horizontal Kerning in Latin lookup 0 per glyph data 1" Oslash dx=0 dy=0 dh=-20 dv=0 dx=0 dy=0 dh=0 dv=0
PairPos2: "'kern' Horizontal Kerning in Latin lookup 0 per glyph data 1" Odieresis dx=0 dy=0 dh=-40 dv=0 dx=0 dy=0 dh=0 dv=0
PairPos2: "'kern' Horizontal Kerning in Latin lookup 0 per glyph data 1" Otilde dx=0 dy=0 dh=-40 dv=0 dx=0 dy=0 dh=0 dv=0
PairPos2: "'kern' Horizontal Kerning in Latin lookup 0 per glyph data 1" Ocircumflex dx=0 dy=0 dh=-40 dv=0 dx=0 dy=0 dh=0 dv=0
PairPos2: "'kern' Horizontal Kerning in Latin lookup 0 per glyph data 1" Oacute dx=0 dy=0 dh=-40 dv=0 dx=0 dy=0 dh=0 dv=0
PairPos2: "'kern' Horizontal Kerning in Latin lookup 0 per glyph data 1" Ograve dx=0 dy=0 dh=-40 dv=0 dx=0 dy=0 dh=0 dv=0
PairPos2: "'kern' Horizontal Kerning in Latin lookup 0 per glyph data 1" Ntilde dx=0 dy=0 dh=-47 dv=0 dx=0 dy=0 dh=0 dv=0
PairPos2: "'kern' Horizontal Kerning in Latin lookup 0 per glyph data 1" Idieresis dx=0 dy=0 dh=-20 dv=0 dx=0 dy=0 dh=0 dv=0
PairPos2: "'kern' Horizontal Kerning in Latin lookup 0 per glyph data 1" Icircumflex dx=0 dy=0 dh=-20 dv=0 dx=0 dy=0 dh=0 dv=0
PairPos2: "'kern' Horizontal Kerning in Latin lookup 0 per glyph data 1" Iacute dx=0 dy=0 dh=-20 dv=0 dx=0 dy=0 dh=0 dv=0
PairPos2: "'kern' Horizontal Kerning in Latin lookup 0 per glyph data 1" Igrave dx=0 dy=0 dh=-20 dv=0 dx=0 dy=0 dh=0 dv=0
PairPos2: "'kern' Horizontal Kerning in Latin lookup 0 per glyph data 1" Edieresis dx=0 dy=0 dh=-26 dv=0 dx=0 dy=0 dh=0 dv=0
PairPos2: "'kern' Horizontal Kerning in Latin lookup 0 per glyph data 1" Ecircumflex dx=0 dy=0 dh=-26 dv=0 dx=0 dy=0 dh=0 dv=0
PairPos2: "'kern' Horizontal Kerning in Latin lookup 0 per glyph data 1" Eacute dx=0 dy=0 dh=-26 dv=0 dx=0 dy=0 dh=0 dv=0
PairPos2: "'kern' Horizontal Kerning in Latin lookup 0 per glyph data 1" Egrave dx=0 dy=0 dh=-26 dv=0 dx=0 dy=0 dh=0 dv=0
PairPos2: "'kern' Horizontal Kerning in Latin lookup 0 per glyph data 1" Ccedilla dx=0 dy=0 dh=-20 dv=0 dx=0 dy=0 dh=0 dv=0
PairPos2: "'kern' Horizontal Kerning in Latin lookup 0 per glyph data 1" j dx=0 dy=0 dh=180 dv=0 dx=0 dy=0 dh=0 dv=0
PairPos2: "'kern' Horizontal Kerning in Latin lookup 0 per glyph data 1" f dx=0 dy=0 dh=180 dv=0 dx=0 dy=0 dh=0 dv=0
PairPos2: "'kern' Horizontal Kerning in Latin lookup 0 per glyph data 1" Z dx=0 dy=0 dh=20 dv=0 dx=0 dy=0 dh=0 dv=0
PairPos2: "'kern' Horizontal Kerning in Latin lookup 0 per glyph data 1" Y dx=0 dy=0 dh=113 dv=0 dx=0 dy=0 dh=0 dv=0
PairPos2: "'kern' Horizontal Kerning in Latin lookup 0 per glyph data 1" W dx=0 dy=0 dh=114 dv=0 dx=0 dy=0 dh=0 dv=0
PairPos2: "'kern' Horizontal Kerning in Latin lookup 0 per glyph data 1" V dx=0 dy=0 dh=114 dv=0 dx=0 dy=0 dh=0 dv=0
PairPos2: "'kern' Horizontal Kerning in Latin lookup 0 per glyph data 1" T dx=0 dy=0 dh=74 dv=0 dx=0 dy=0 dh=0 dv=0
PairPos2: "'kern' Horizontal Kerning in Latin lookup 0 per glyph data 1" S dx=0 dy=0 dh=-26 dv=0 dx=0 dy=0 dh=0 dv=0
PairPos2: "'kern' Horizontal Kerning in Latin lookup 0 per glyph data 1" O dx=0 dy=0 dh=-40 dv=0 dx=0 dy=0 dh=0 dv=0
PairPos2: "'kern' Horizontal Kerning in Latin lookup 0 per glyph data 1" N dx=0 dy=0 dh=-47 dv=0 dx=0 dy=0 dh=0 dv=0
PairPos2: "'kern' Horizontal Kerning in Latin lookup 0 per glyph data 1" L dx=0 dy=0 dh=-26 dv=0 dx=0 dy=0 dh=0 dv=0
PairPos2: "'kern' Horizontal Kerning in Latin lookup 0 per glyph data 1" J dx=0 dy=0 dh=73 dv=0 dx=0 dy=0 dh=0 dv=0
PairPos2: "'kern' Horizontal Kerning in Latin lookup 0 per glyph data 1" I dx=0 dy=0 dh=-20 dv=0 dx=0 dy=0 dh=0 dv=0
PairPos2: "'kern' Horizontal Kerning in Latin lookup 0 per glyph data 1" G dx=0 dy=0 dh=-40 dv=0 dx=0 dy=0 dh=0 dv=0
PairPos2: "'kern' Horizontal Kerning in Latin lookup 0 per glyph data 1" F dx=0 dy=0 dh=40 dv=0 dx=0 dy=0 dh=0 dv=0
PairPos2: "'kern' Horizontal Kerning in Latin lookup 0 per glyph data 1" E dx=0 dy=0 dh=-26 dv=0 dx=0 dy=0 dh=0 dv=0
PairPos2: "'kern' Horizontal Kerning in Latin lookup 0 per glyph data 1" C dx=0 dy=0 dh=-20 dv=0 dx=0 dy=0 dh=0 dv=0
PairPos2: "'kern' Horizontal Kerning in Latin lookup 0 per glyph data 1" five dx=0 dy=0 dh=60 dv=0 dx=0 dy=0 dh=0 dv=0
PairPos2: "'kern' Horizontal Kerning in Latin lookup 0 per glyph data 1" three dx=0 dy=0 dh=20 dv=0 dx=0 dy=0 dh=0 dv=0
EndChar

StartChar: backslash
Encoding: 92 92 63
Width: 688
GlyphClass: 2
Flags: W
LayerCount: 2
Fore
SplineSet
196 724 m 1,0,1
 609 64 609 64 836 -187 c 0,2,3
 838 -189 838 -189 838 -193 c 0,4,5
 838 -201 838 -201 822 -207.5 c 128,-1,6
 806 -214 806 -214 789 -214 c 128,-1,7
 772 -214 772 -214 766 -207 c 0,8,9
 617 -56 617 -56 437.5 194 c 128,-1,10
 258 444 258 444 105 696 c 0,11,12
 100 704 100 704 100 710 c 0,13,14
 100 730 100 730 139 730 c 128,-1,15
 178 730 178 730 196 724 c 1,0,1
EndSplineSet
PairPos2: "'kern' Horizontal Kerning in Latin lookup 0 per glyph data 1" c_k dx=0 dy=0 dh=267 dv=0 dx=0 dy=0 dh=0 dv=0
PairPos2: "'kern' Horizontal Kerning in Latin lookup 0 per glyph data 1" c_h dx=0 dy=0 dh=267 dv=0 dx=0 dy=0 dh=0 dv=0
PairPos2: "'kern' Horizontal Kerning in Latin lookup 0 per glyph data 1" z.alt dx=0 dy=0 dh=30 dv=0 dx=0 dy=0 dh=0 dv=0
PairPos2: "'kern' Horizontal Kerning in Latin lookup 0 per glyph data 1" odieresis.alt dx=0 dy=0 dh=267 dv=0 dx=0 dy=0 dh=0 dv=0
PairPos2: "'kern' Horizontal Kerning in Latin lookup 0 per glyph data 1" otilde.alt dx=0 dy=0 dh=267 dv=0 dx=0 dy=0 dh=0 dv=0
PairPos2: "'kern' Horizontal Kerning in Latin lookup 0 per glyph data 1" ocircumflex.alt dx=0 dy=0 dh=267 dv=0 dx=0 dy=0 dh=0 dv=0
PairPos2: "'kern' Horizontal Kerning in Latin lookup 0 per glyph data 1" ograve.alt dx=0 dy=0 dh=267 dv=0 dx=0 dy=0 dh=0 dv=0
PairPos2: "'kern' Horizontal Kerning in Latin lookup 0 per glyph data 1" oacute.alt dx=0 dy=0 dh=267 dv=0 dx=0 dy=0 dh=0 dv=0
PairPos2: "'kern' Horizontal Kerning in Latin lookup 0 per glyph data 1" o.fina dx=0 dy=0 dh=267 dv=0 dx=0 dy=0 dh=0 dv=0
PairPos2: "'kern' Horizontal Kerning in Latin lookup 0 per glyph data 1" o.alt dx=0 dy=0 dh=267 dv=0 dx=0 dy=0 dh=0 dv=0
PairPos2: "'kern' Horizontal Kerning in Latin lookup 0 per glyph data 1" f_k dx=0 dy=0 dh=428 dv=0 dx=0 dy=0 dh=0 dv=0
PairPos2: "'kern' Horizontal Kerning in Latin lookup 0 per glyph data 1" f_j dx=0 dy=0 dh=428 dv=0 dx=0 dy=0 dh=0 dv=0
PairPos2: "'kern' Horizontal Kerning in Latin lookup 0 per glyph data 1" f_h dx=0 dy=0 dh=428 dv=0 dx=0 dy=0 dh=0 dv=0
PairPos2: "'kern' Horizontal Kerning in Latin lookup 0 per glyph data 1" f_b dx=0 dy=0 dh=428 dv=0 dx=0 dy=0 dh=0 dv=0
PairPos2: "'kern' Horizontal Kerning in Latin lookup 0 per glyph data 1" f.alt dx=0 dy=0 dh=428 dv=0 dx=0 dy=0 dh=0 dv=0
PairPos2: "'kern' Horizontal Kerning in Latin lookup 0 per glyph data 1" d.alt dx=0 dy=0 dh=267 dv=0 dx=0 dy=0 dh=0 dv=0
PairPos2: "'kern' Horizontal Kerning in Latin lookup 0 per glyph data 1" c_t dx=0 dy=0 dh=267 dv=0 dx=0 dy=0 dh=0 dv=0
PairPos2: "'kern' Horizontal Kerning in Latin lookup 0 per glyph data 1" c_l dx=0 dy=0 dh=267 dv=0 dx=0 dy=0 dh=0 dv=0
PairPos2: "'kern' Horizontal Kerning in Latin lookup 0 per glyph data 1" aring.alt dx=0 dy=0 dh=267 dv=0 dx=0 dy=0 dh=0 dv=0
PairPos2: "'kern' Horizontal Kerning in Latin lookup 0 per glyph data 1" atilde.alt dx=0 dy=0 dh=267 dv=0 dx=0 dy=0 dh=0 dv=0
PairPos2: "'kern' Horizontal Kerning in Latin lookup 0 per glyph data 1" adieresis.alt dx=0 dy=0 dh=267 dv=0 dx=0 dy=0 dh=0 dv=0
PairPos2: "'kern' Horizontal Kerning in Latin lookup 0 per glyph data 1" acircumflex.alt dx=0 dy=0 dh=267 dv=0 dx=0 dy=0 dh=0 dv=0
PairPos2: "'kern' Horizontal Kerning in Latin lookup 0 per glyph data 1" agrave.alt dx=0 dy=0 dh=267 dv=0 dx=0 dy=0 dh=0 dv=0
PairPos2: "'kern' Horizontal Kerning in Latin lookup 0 per glyph data 1" aacute.alt dx=0 dy=0 dh=267 dv=0 dx=0 dy=0 dh=0 dv=0
PairPos2: "'kern' Horizontal Kerning in Latin lookup 0 per glyph data 1" a.alt dx=0 dy=0 dh=267 dv=0 dx=0 dy=0 dh=0 dv=0
PairPos2: "'kern' Horizontal Kerning in Latin lookup 0 per glyph data 1" f_f_i dx=0 dy=0 dh=428 dv=0 dx=0 dy=0 dh=0 dv=0
PairPos2: "'kern' Horizontal Kerning in Latin lookup 0 per glyph data 1" f_f dx=0 dy=0 dh=428 dv=0 dx=0 dy=0 dh=0 dv=0
PairPos2: "'kern' Horizontal Kerning in Latin lookup 0 per glyph data 1" florin dx=0 dy=0 dh=428 dv=0 dx=0 dy=0 dh=0 dv=0
PairPos2: "'kern' Horizontal Kerning in Latin lookup 0 per glyph data 1" zcaron dx=0 dy=0 dh=30 dv=0 dx=0 dy=0 dh=0 dv=0
PairPos2: "'kern' Horizontal Kerning in Latin lookup 0 per glyph data 1" zdotaccent dx=0 dy=0 dh=30 dv=0 dx=0 dy=0 dh=0 dv=0
PairPos2: "'kern' Horizontal Kerning in Latin lookup 0 per glyph data 1" zacute dx=0 dy=0 dh=30 dv=0 dx=0 dy=0 dh=0 dv=0
PairPos2: "'kern' Horizontal Kerning in Latin lookup 0 per glyph data 1" oe dx=0 dy=0 dh=267 dv=0 dx=0 dy=0 dh=0 dv=0
PairPos2: "'kern' Horizontal Kerning in Latin lookup 0 per glyph data 1" ohungarumlaut dx=0 dy=0 dh=267 dv=0 dx=0 dy=0 dh=0 dv=0
PairPos2: "'kern' Horizontal Kerning in Latin lookup 0 per glyph data 1" omacron dx=0 dy=0 dh=267 dv=0 dx=0 dy=0 dh=0 dv=0
PairPos2: "'kern' Horizontal Kerning in Latin lookup 0 per glyph data 1" jcircumflex dx=0 dy=0 dh=420 dv=0 dx=0 dy=0 dh=0 dv=0
PairPos2: "'kern' Horizontal Kerning in Latin lookup 0 per glyph data 1" gcommaaccent dx=0 dy=0 dh=267 dv=0 dx=0 dy=0 dh=0 dv=0
PairPos2: "'kern' Horizontal Kerning in Latin lookup 0 per glyph data 1" gdotaccent dx=0 dy=0 dh=267 dv=0 dx=0 dy=0 dh=0 dv=0
PairPos2: "'kern' Horizontal Kerning in Latin lookup 0 per glyph data 1" gbreve dx=0 dy=0 dh=267 dv=0 dx=0 dy=0 dh=0 dv=0
PairPos2: "'kern' Horizontal Kerning in Latin lookup 0 per glyph data 1" gcircumflex dx=0 dy=0 dh=267 dv=0 dx=0 dy=0 dh=0 dv=0
PairPos2: "'kern' Horizontal Kerning in Latin lookup 0 per glyph data 1" ecaron dx=0 dy=0 dh=267 dv=0 dx=0 dy=0 dh=0 dv=0
PairPos2: "'kern' Horizontal Kerning in Latin lookup 0 per glyph data 1" eogonek dx=0 dy=0 dh=267 dv=0 dx=0 dy=0 dh=0 dv=0
PairPos2: "'kern' Horizontal Kerning in Latin lookup 0 per glyph data 1" edotaccent dx=0 dy=0 dh=267 dv=0 dx=0 dy=0 dh=0 dv=0
PairPos2: "'kern' Horizontal Kerning in Latin lookup 0 per glyph data 1" emacron dx=0 dy=0 dh=267 dv=0 dx=0 dy=0 dh=0 dv=0
PairPos2: "'kern' Horizontal Kerning in Latin lookup 0 per glyph data 1" dcroat dx=0 dy=0 dh=267 dv=0 dx=0 dy=0 dh=0 dv=0
PairPos2: "'kern' Horizontal Kerning in Latin lookup 0 per glyph data 1" dcaron dx=0 dy=0 dh=267 dv=0 dx=0 dy=0 dh=0 dv=0
PairPos2: "'kern' Horizontal Kerning in Latin lookup 0 per glyph data 1" ccaron dx=0 dy=0 dh=267 dv=0 dx=0 dy=0 dh=0 dv=0
PairPos2: "'kern' Horizontal Kerning in Latin lookup 0 per glyph data 1" cdotaccent dx=0 dy=0 dh=267 dv=0 dx=0 dy=0 dh=0 dv=0
PairPos2: "'kern' Horizontal Kerning in Latin lookup 0 per glyph data 1" ccircumflex dx=0 dy=0 dh=267 dv=0 dx=0 dy=0 dh=0 dv=0
PairPos2: "'kern' Horizontal Kerning in Latin lookup 0 per glyph data 1" cacute dx=0 dy=0 dh=267 dv=0 dx=0 dy=0 dh=0 dv=0
PairPos2: "'kern' Horizontal Kerning in Latin lookup 0 per glyph data 1" aogonek dx=0 dy=0 dh=267 dv=0 dx=0 dy=0 dh=0 dv=0
PairPos2: "'kern' Horizontal Kerning in Latin lookup 0 per glyph data 1" abreve dx=0 dy=0 dh=267 dv=0 dx=0 dy=0 dh=0 dv=0
PairPos2: "'kern' Horizontal Kerning in Latin lookup 0 per glyph data 1" amacron dx=0 dy=0 dh=267 dv=0 dx=0 dy=0 dh=0 dv=0
PairPos2: "'kern' Horizontal Kerning in Latin lookup 0 per glyph data 1" odieresis dx=0 dy=0 dh=267 dv=0 dx=0 dy=0 dh=0 dv=0
PairPos2: "'kern' Horizontal Kerning in Latin lookup 0 per glyph data 1" otilde dx=0 dy=0 dh=267 dv=0 dx=0 dy=0 dh=0 dv=0
PairPos2: "'kern' Horizontal Kerning in Latin lookup 0 per glyph data 1" ocircumflex dx=0 dy=0 dh=267 dv=0 dx=0 dy=0 dh=0 dv=0
PairPos2: "'kern' Horizontal Kerning in Latin lookup 0 per glyph data 1" oacute dx=0 dy=0 dh=267 dv=0 dx=0 dy=0 dh=0 dv=0
PairPos2: "'kern' Horizontal Kerning in Latin lookup 0 per glyph data 1" ograve dx=0 dy=0 dh=267 dv=0 dx=0 dy=0 dh=0 dv=0
PairPos2: "'kern' Horizontal Kerning in Latin lookup 0 per glyph data 1" edieresis dx=0 dy=0 dh=267 dv=0 dx=0 dy=0 dh=0 dv=0
PairPos2: "'kern' Horizontal Kerning in Latin lookup 0 per glyph data 1" ecircumflex dx=0 dy=0 dh=267 dv=0 dx=0 dy=0 dh=0 dv=0
PairPos2: "'kern' Horizontal Kerning in Latin lookup 0 per glyph data 1" eacute dx=0 dy=0 dh=267 dv=0 dx=0 dy=0 dh=0 dv=0
PairPos2: "'kern' Horizontal Kerning in Latin lookup 0 per glyph data 1" egrave dx=0 dy=0 dh=267 dv=0 dx=0 dy=0 dh=0 dv=0
PairPos2: "'kern' Horizontal Kerning in Latin lookup 0 per glyph data 1" ccedilla dx=0 dy=0 dh=267 dv=0 dx=0 dy=0 dh=0 dv=0
PairPos2: "'kern' Horizontal Kerning in Latin lookup 0 per glyph data 1" ae dx=0 dy=0 dh=267 dv=0 dx=0 dy=0 dh=0 dv=0
PairPos2: "'kern' Horizontal Kerning in Latin lookup 0 per glyph data 1" aring dx=0 dy=0 dh=267 dv=0 dx=0 dy=0 dh=0 dv=0
PairPos2: "'kern' Horizontal Kerning in Latin lookup 0 per glyph data 1" adieresis dx=0 dy=0 dh=267 dv=0 dx=0 dy=0 dh=0 dv=0
PairPos2: "'kern' Horizontal Kerning in Latin lookup 0 per glyph data 1" atilde dx=0 dy=0 dh=267 dv=0 dx=0 dy=0 dh=0 dv=0
PairPos2: "'kern' Horizontal Kerning in Latin lookup 0 per glyph data 1" acircumflex dx=0 dy=0 dh=267 dv=0 dx=0 dy=0 dh=0 dv=0
PairPos2: "'kern' Horizontal Kerning in Latin lookup 0 per glyph data 1" aacute dx=0 dy=0 dh=267 dv=0 dx=0 dy=0 dh=0 dv=0
PairPos2: "'kern' Horizontal Kerning in Latin lookup 0 per glyph data 1" agrave dx=0 dy=0 dh=267 dv=0 dx=0 dy=0 dh=0 dv=0
PairPos2: "'kern' Horizontal Kerning in Latin lookup 0 per glyph data 1" germandbls dx=0 dy=0 dh=428 dv=0 dx=0 dy=0 dh=0 dv=0
PairPos2: "'kern' Horizontal Kerning in Latin lookup 0 per glyph data 1" z dx=0 dy=0 dh=30 dv=0 dx=0 dy=0 dh=0 dv=0
PairPos2: "'kern' Horizontal Kerning in Latin lookup 0 per glyph data 1" x dx=0 dy=0 dh=40 dv=0 dx=0 dy=0 dh=0 dv=0
PairPos2: "'kern' Horizontal Kerning in Latin lookup 0 per glyph data 1" w dx=0 dy=0 dh=-30 dv=0 dx=0 dy=0 dh=0 dv=0
PairPos2: "'kern' Horizontal Kerning in Latin lookup 0 per glyph data 1" v dx=0 dy=0 dh=-25 dv=0 dx=0 dy=0 dh=0 dv=0
PairPos2: "'kern' Horizontal Kerning in Latin lookup 0 per glyph data 1" q dx=0 dy=0 dh=267 dv=0 dx=0 dy=0 dh=0 dv=0
PairPos2: "'kern' Horizontal Kerning in Latin lookup 0 per glyph data 1" p dx=0 dy=0 dh=260 dv=0 dx=0 dy=0 dh=0 dv=0
PairPos2: "'kern' Horizontal Kerning in Latin lookup 0 per glyph data 1" o dx=0 dy=0 dh=267 dv=0 dx=0 dy=0 dh=0 dv=0
PairPos2: "'kern' Horizontal Kerning in Latin lookup 0 per glyph data 1" j dx=0 dy=0 dh=420 dv=0 dx=0 dy=0 dh=0 dv=0
PairPos2: "'kern' Horizontal Kerning in Latin lookup 0 per glyph data 1" g dx=0 dy=0 dh=267 dv=0 dx=0 dy=0 dh=0 dv=0
PairPos2: "'kern' Horizontal Kerning in Latin lookup 0 per glyph data 1" f dx=0 dy=0 dh=428 dv=0 dx=0 dy=0 dh=0 dv=0
PairPos2: "'kern' Horizontal Kerning in Latin lookup 0 per glyph data 1" e dx=0 dy=0 dh=267 dv=0 dx=0 dy=0 dh=0 dv=0
PairPos2: "'kern' Horizontal Kerning in Latin lookup 0 per glyph data 1" d dx=0 dy=0 dh=267 dv=0 dx=0 dy=0 dh=0 dv=0
PairPos2: "'kern' Horizontal Kerning in Latin lookup 0 per glyph data 1" c dx=0 dy=0 dh=267 dv=0 dx=0 dy=0 dh=0 dv=0
PairPos2: "'kern' Horizontal Kerning in Latin lookup 0 per glyph data 1" a dx=0 dy=0 dh=267 dv=0 dx=0 dy=0 dh=0 dv=0
EndChar

StartChar: bracketright
Encoding: 93 93 64
Width: 437
GlyphClass: 2
Flags: W
LayerCount: 2
Fore
SplineSet
-71.5 -173 m 128,-1,1
 -90 -146 -90 -146 -90 -110.5 c 128,-1,2
 -90 -75 -90 -75 -81 -55 c 1,3,-1
 -34 -55 l 1,4,5
 -32 -99 -32 -99 13 -99 c 0,6,7
 53 -99 53 -99 138 -84 c 2,8,-1
 167 -79 l 1,9,10
 154 -36 154 -36 154 25 c 0,11,12
 154 158 154 158 212 323 c 128,-1,13
 270 488 270 488 358 587 c 1,14,15
 286 613 286 613 213 613 c 0,16,17
 193 613 193 613 175 599 c 128,-1,18
 157 585 157 585 149 571 c 2,19,-1
 141 557 l 1,20,-1
 98 557 l 1,21,22
 98 606 98 606 112 643 c 0,23,24
 138 712 138 712 201 712 c 0,25,26
 249 712 249 712 299.5 691 c 128,-1,27
 350 670 350 670 376 649 c 2,28,-1
 403 628 l 1,29,30
 444 661 444 661 475 661 c 0,31,32
 517 661 517 661 517 618 c 0,33,34
 517 593 517 593 499 579.5 c 128,-1,35
 481 566 481 566 461.5 566 c 128,-1,36
 442 566 442 566 434 567 c 1,37,38
 280 206 280 206 230 -76 c 1,39,40
 303 -78 303 -78 303 -131 c 0,41,42
 303 -153 303 -153 290.5 -165 c 128,-1,43
 278 -177 278 -177 259 -177 c 0,44,45
 218 -177 218 -177 187 -135 c 1,46,47
 170 -142 170 -142 139 -156 c 128,-1,48
 108 -170 108 -170 88 -178 c 0,49,50
 35 -200 35 -200 -9 -200 c 128,-1,0
 -53 -200 -53 -200 -71.5 -173 c 128,-1,1
EndSplineSet
Substitution2: "'titl' Titling in Latin lookup 22 subtable" final
Substitution2: "'aalt' Access All Alternates in Latin lookup 0 subtable" final
EndChar

StartChar: asciicircum
Encoding: 94 94 65
Width: 510
GlyphClass: 2
Flags: W
LayerCount: 2
Fore
SplineSet
539 446 m 0,0,1
 544 446 544 446 544 438.5 c 128,-1,2
 544 431 544 431 519.5 413.5 c 128,-1,3
 495 396 495 396 470 396 c 0,4,5
 442 396 442 396 417.5 461 c 128,-1,6
 393 526 393 526 377.5 590.5 c 128,-1,7
 362 655 362 655 357 655 c 128,-1,8
 352 655 352 655 300 591 c 128,-1,9
 248 527 248 527 187 463 c 128,-1,10
 126 399 126 399 99 399 c 0,11,12
 86 399 86 399 72 414 c 128,-1,13
 58 429 58 429 58 434 c 128,-1,14
 58 439 58 439 63 441 c 0,15,16
 89 447 89 447 170 528 c 128,-1,17
 251 609 251 609 325 686 c 128,-1,18
 399 763 399 763 412 763 c 128,-1,19
 425 763 425 763 447 683.5 c 128,-1,20
 469 604 469 604 493.5 525 c 128,-1,21
 518 446 518 446 539 446 c 0,0,1
EndSplineSet
Substitution2: "'ornm' Ornaments in Latin lookup 23 subtable" camiseta6.ss03
Substitution2: "'aalt' Access All Alternates in Latin lookup 0 subtable" camiseta6.ss03
EndChar

StartChar: underscore
Encoding: 95 95 66
Width: 482
GlyphClass: 2
Flags: W
LayerCount: 2
Fore
SplineSet
420 27 m 1,0,1
 431 5 431 5 431 -17.5 c 128,-1,2
 431 -40 431 -40 412.5 -54.5 c 128,-1,3
 394 -69 394 -69 371 -69 c 128,-1,4
 348 -69 348 -69 255.5 -63.5 c 128,-1,5
 163 -58 163 -58 85 -58 c 128,-1,6
 7 -58 7 -58 -28 -76 c 1,7,8
 -38 -61 -38 -61 -38 -37 c 128,-1,9
 -38 -13 -38 -13 -21 5 c 128,-1,10
 -4 23 -4 23 24.5 23 c 128,-1,11
 53 23 53 23 140.5 18.5 c 128,-1,12
 228 14 228 14 302 14 c 128,-1,13
 376 14 376 14 420 27 c 1,0,1
EndSplineSet
EndChar

StartChar: grave
Encoding: 96 96 67
Width: 405
GlyphClass: 2
Flags: W
LayerCount: 2
Fore
SplineSet
146 754 m 1,0,1
 177 697 177 697 234.5 651.5 c 128,-1,2
 292 606 292 606 355 586 c 1,3,4
 356 584 356 584 356 579 c 0,5,6
 356 553 356 553 326.5 553 c 128,-1,7
 297 553 297 553 240.5 565 c 128,-1,8
 184 577 184 577 129 604 c 128,-1,9
 74 631 74 631 74 663 c 0,10,11
 74 683 74 683 92.5 708.5 c 128,-1,12
 111 734 111 734 146 754 c 1,0,1
EndSplineSet
EndChar

StartChar: a
Encoding: 97 97 68
Width: 598
GlyphClass: 2
Flags: W
LayerCount: 2
Fore
SplineSet
417 392 m 1,0,1
 407 408 407 408 390 418 c 128,-1,2
 373 428 373 428 362 430 c 2,3,-1
 350 432 l 1,4,5
 278 388 278 388 217.5 292.5 c 128,-1,6
 157 197 157 197 157 118 c 0,7,8
 157 101 157 101 165.5 91.5 c 128,-1,9
 174 82 174 82 185 82 c 0,10,11
 214 82 214 82 250 108 c 128,-1,12
 286 134 286 134 308 160 c 2,13,-1
 330 186 l 1,14,15
 355 278 355 278 417 392 c 1,0,1
321 117 m 1,16,17
 320 116 320 116 307 101 c 128,-1,18
 294 86 294 86 276.5 68.5 c 128,-1,19
 259 51 259 51 236 32 c 0,20,21
 183 -10 183 -10 132 -10 c 128,-1,22
 81 -10 81 -10 55.5 21 c 128,-1,23
 30 52 30 52 30 113 c 128,-1,24
 30 174 30 174 80 266 c 128,-1,25
 130 358 130 358 207 426 c 128,-1,26
 284 494 284 494 351 494 c 0,27,28
 381 494 381 494 407.5 479 c 128,-1,29
 434 464 434 464 446 444 c 1,30,31
 509 543 509 543 550 543 c 0,32,33
 570 543 570 543 584 521.5 c 128,-1,34
 598 500 598 500 598 471.5 c 128,-1,35
 598 443 598 443 553 367.5 c 128,-1,36
 508 292 508 292 442 212 c 1,37,38
 434 179 434 179 434 127 c 0,39,40
 434 57 434 57 472 57 c 0,41,42
 497 57 497 57 536 81 c 2,43,-1
 549 89 l 1,44,45
 552 89 552 89 559.5 77 c 128,-1,46
 567 65 567 65 567 58.5 c 128,-1,47
 567 52 567 52 547 36 c 128,-1,48
 527 20 527 20 489.5 4.5 c 128,-1,49
 452 -11 452 -11 414 -11 c 0,50,51
 321 -11 321 -11 321 117 c 1,16,17
EndSplineSet
Substitution2: "Single Substitution lookup 24 subtable" a.alt
Substitution2: "'ornm' Ornaments in Latin lookup 23 subtable" icon1
Substitution2: "'ordn' Ordinals in Latin lookup 10 subtable" ordfeminine
Substitution2: "'smcp' Lowercase to Small Capitals in Latin lookup 2 subtable" A.smcp
AlternateSubs2: "'aalt' Access All Alternates in Latin lookup 1 subtable" A.smcp a.alt icon1
EndChar

StartChar: b
Encoding: 98 98 69
Width: 554
GlyphClass: 2
Flags: W
LayerCount: 2
Fore
SplineSet
389 414 m 1,0,1
 359 405 359 405 317 367 c 128,-1,2
 275 329 275 329 248 295 c 2,3,-1
 222 261 l 1,4,5
 209 211 209 211 168 122 c 2,6,-1
 154 92 l 1,7,8
 188 52 188 52 228.5 52 c 128,-1,9
 269 52 269 52 314.5 109.5 c 128,-1,10
 360 167 360 167 388.5 242.5 c 128,-1,11
 417 318 417 318 417 372 c 0,12,13
 417 390 417 390 408.5 402 c 128,-1,14
 400 414 400 414 389 414 c 1,0,1
119 37 m 1,15,16
 92 -4 92 -4 72 -7 c 1,17,18
 45 -7 45 -7 22.5 9.5 c 128,-1,19
 0 26 0 26 0 46.5 c 128,-1,20
 0 67 0 67 30 116 c 128,-1,21
 60 165 60 165 111 221 c 1,22,23
 217 488 217 488 217 637 c 1,24,25
 209 644 209 644 188.5 651.5 c 128,-1,26
 168 659 168 659 150 659 c 0,27,28
 140 659 140 659 140 678.5 c 128,-1,29
 140 698 140 698 151 704 c 1,30,31
 187 700 187 700 223.5 700 c 128,-1,32
 260 700 260 700 275 701 c 128,-1,33
 290 702 290 702 303.5 704.5 c 128,-1,34
 317 707 317 707 323 708.5 c 128,-1,35
 329 710 329 710 342 714.5 c 128,-1,36
 355 719 355 719 358 719.5 c 128,-1,37
 361 720 361 720 366 712.5 c 128,-1,38
 371 705 371 705 371 695.5 c 128,-1,39
 371 686 371 686 364 652 c 128,-1,40
 357 618 357 618 325 533.5 c 128,-1,41
 293 449 293 449 241 355 c 0,42,43
 241 354 241 354 244.5 352 c 128,-1,44
 248 350 248 350 248 349 c 1,45,46
 250 351 250 351 272 377.5 c 128,-1,47
 294 404 294 404 309 419 c 128,-1,48
 324 434 324 434 348 456 c 0,49,50
 398 500 398 500 447 500 c 0,51,52
 544 500 544 500 544 386 c 0,53,54
 544 332 544 332 520 264.5 c 128,-1,55
 496 197 496 197 455 135.5 c 128,-1,56
 414 74 414 74 351.5 32 c 128,-1,57
 289 -10 289 -10 222.5 -10 c 128,-1,58
 156 -10 156 -10 119 37 c 1,15,16
EndSplineSet
Substitution2: "'ornm' Ornaments in Latin lookup 23 subtable" icon2
Substitution2: "'smcp' Lowercase to Small Capitals in Latin lookup 2 subtable" B.smcp
AlternateSubs2: "'aalt' Access All Alternates in Latin lookup 1 subtable" B.smcp icon2
EndChar

StartChar: c
Encoding: 99 99 70
Width: 467
GlyphClass: 2
Flags: W
LayerCount: 2
Fore
SplineSet
402.5 140 m 128,-1,1
 409 131 409 131 409 126.5 c 128,-1,2
 409 122 409 122 397 108 c 128,-1,3
 385 94 385 94 362 74 c 128,-1,4
 339 54 339 54 311 36 c 0,5,6
 242 -10 242 -10 174 -10 c 128,-1,7
 106 -10 106 -10 70.5 29 c 128,-1,8
 35 68 35 68 35 137 c 128,-1,9
 35 206 35 206 83 292 c 128,-1,10
 131 378 131 378 213.5 439 c 128,-1,11
 296 500 296 500 383 500 c 0,12,13
 487 500 487 500 487 403 c 0,14,15
 487 355 487 355 451 325 c 128,-1,16
 415 295 415 295 378 295 c 0,17,18
 361 295 361 295 361 304 c 0,19,20
 364 349 364 349 364 352 c 0,21,22
 364 423 364 423 310 423 c 0,23,24
 292 423 292 423 270 416 c 1,25,26
 255 404 255 404 233 377.5 c 128,-1,27
 211 351 211 351 196 325.5 c 128,-1,28
 181 300 181 300 168.5 260 c 128,-1,29
 156 220 156 220 156 178 c 128,-1,30
 156 136 156 136 177.5 109.5 c 128,-1,31
 199 83 199 83 235 83 c 128,-1,32
 271 83 271 83 306.5 99.5 c 128,-1,33
 342 116 342 116 365 132.5 c 128,-1,34
 388 149 388 149 392 149 c 128,-1,0
 396 149 396 149 402.5 140 c 128,-1,1
EndSplineSet
Substitution2: "'ornm' Ornaments in Latin lookup 23 subtable" icon3
Substitution2: "'smcp' Lowercase to Small Capitals in Latin lookup 2 subtable" C.smcp
AlternateSubs2: "'aalt' Access All Alternates in Latin lookup 1 subtable" C.smcp icon3
EndChar

StartChar: d
Encoding: 100 100 71
Width: 600
GlyphClass: 2
Flags: W
LayerCount: 2
Fore
SplineSet
415 -10 m 0,0,1
 321 -10 321 -10 321 121 c 1,2,3
 317 116 317 116 310.5 107 c 128,-1,4
 304 98 304 98 283 75.5 c 128,-1,5
 262 53 262 53 240 35.5 c 128,-1,6
 218 18 218 18 187 4 c 128,-1,7
 156 -10 156 -10 127 -10 c 0,8,9
 81 -10 81 -10 55.5 21 c 128,-1,10
 30 52 30 52 30 112.5 c 128,-1,11
 30 173 30 173 80 265.5 c 128,-1,12
 130 358 130 358 207 426 c 128,-1,13
 284 494 284 494 351 494 c 0,14,15
 400 494 400 494 431 460 c 1,16,17
 538 700 538 700 593 700 c 0,18,19
 618 700 618 700 644.5 683 c 128,-1,20
 671 666 671 666 671 629 c 128,-1,21
 671 592 671 592 606.5 484 c 128,-1,22
 542 376 542 376 455 257 c 1,23,24
 435 209 435 209 435 133.5 c 128,-1,25
 435 58 435 58 473 58 c 0,26,27
 498 58 498 58 537 82 c 2,28,-1
 550 90 l 1,29,30
 553 90 553 90 560.5 78 c 128,-1,31
 568 66 568 66 568 59.5 c 128,-1,32
 568 53 568 53 548 37 c 128,-1,33
 528 21 528 21 490.5 5.5 c 128,-1,34
 453 -10 453 -10 415 -10 c 0,0,1
407 404 m 1,35,36
 385 428 385 428 350 432 c 1,37,38
 278 388 278 388 217.5 292 c 128,-1,39
 157 196 157 196 157 117 c 0,40,41
 157 100 157 100 165.5 91 c 128,-1,42
 174 82 174 82 185 82 c 0,43,44
 214 82 214 82 250 108 c 128,-1,45
 286 134 286 134 308 160 c 2,46,-1
 330 186 l 1,47,48
 351 271 351 271 407 404 c 1,35,36
EndSplineSet
Substitution2: "Single Substitution lookup 24 subtable" d.alt
Substitution2: "'ornm' Ornaments in Latin lookup 23 subtable" icon4
Substitution2: "'smcp' Lowercase to Small Capitals in Latin lookup 2 subtable" D.smcp
AlternateSubs2: "'aalt' Access All Alternates in Latin lookup 1 subtable" D.smcp d.alt icon4
PairPos2: "'kern' Horizontal Kerning in Latin lookup 0 per glyph data 1" c_k dx=0 dy=0 dh=-5 dv=0 dx=0 dy=0 dh=0 dv=0
PairPos2: "'kern' Horizontal Kerning in Latin lookup 0 per glyph data 1" c_h dx=0 dy=0 dh=-5 dv=0 dx=0 dy=0 dh=0 dv=0
PairPos2: "'kern' Horizontal Kerning in Latin lookup 0 per glyph data 1" odieresis.alt dx=0 dy=0 dh=-5 dv=0 dx=0 dy=0 dh=0 dv=0
PairPos2: "'kern' Horizontal Kerning in Latin lookup 0 per glyph data 1" otilde.alt dx=0 dy=0 dh=-5 dv=0 dx=0 dy=0 dh=0 dv=0
PairPos2: "'kern' Horizontal Kerning in Latin lookup 0 per glyph data 1" ocircumflex.alt dx=0 dy=0 dh=-5 dv=0 dx=0 dy=0 dh=0 dv=0
PairPos2: "'kern' Horizontal Kerning in Latin lookup 0 per glyph data 1" ograve.alt dx=0 dy=0 dh=-5 dv=0 dx=0 dy=0 dh=0 dv=0
PairPos2: "'kern' Horizontal Kerning in Latin lookup 0 per glyph data 1" oacute.alt dx=0 dy=0 dh=-5 dv=0 dx=0 dy=0 dh=0 dv=0
PairPos2: "'kern' Horizontal Kerning in Latin lookup 0 per glyph data 1" o.fina dx=0 dy=0 dh=-5 dv=0 dx=0 dy=0 dh=0 dv=0
PairPos2: "'kern' Horizontal Kerning in Latin lookup 0 per glyph data 1" o.alt dx=0 dy=0 dh=-5 dv=0 dx=0 dy=0 dh=0 dv=0
PairPos2: "'kern' Horizontal Kerning in Latin lookup 0 per glyph data 1" d.alt dx=0 dy=0 dh=-5 dv=0 dx=0 dy=0 dh=0 dv=0
PairPos2: "'kern' Horizontal Kerning in Latin lookup 0 per glyph data 1" c_t dx=0 dy=0 dh=-5 dv=0 dx=0 dy=0 dh=0 dv=0
PairPos2: "'kern' Horizontal Kerning in Latin lookup 0 per glyph data 1" c_l dx=0 dy=0 dh=-5 dv=0 dx=0 dy=0 dh=0 dv=0
PairPos2: "'kern' Horizontal Kerning in Latin lookup 0 per glyph data 1" aring.alt dx=0 dy=0 dh=-5 dv=0 dx=0 dy=0 dh=0 dv=0
PairPos2: "'kern' Horizontal Kerning in Latin lookup 0 per glyph data 1" atilde.alt dx=0 dy=0 dh=-5 dv=0 dx=0 dy=0 dh=0 dv=0
PairPos2: "'kern' Horizontal Kerning in Latin lookup 0 per glyph data 1" adieresis.alt dx=0 dy=0 dh=-5 dv=0 dx=0 dy=0 dh=0 dv=0
PairPos2: "'kern' Horizontal Kerning in Latin lookup 0 per glyph data 1" acircumflex.alt dx=0 dy=0 dh=-5 dv=0 dx=0 dy=0 dh=0 dv=0
PairPos2: "'kern' Horizontal Kerning in Latin lookup 0 per glyph data 1" agrave.alt dx=0 dy=0 dh=-5 dv=0 dx=0 dy=0 dh=0 dv=0
PairPos2: "'kern' Horizontal Kerning in Latin lookup 0 per glyph data 1" aacute.alt dx=0 dy=0 dh=-5 dv=0 dx=0 dy=0 dh=0 dv=0
PairPos2: "'kern' Horizontal Kerning in Latin lookup 0 per glyph data 1" a.alt dx=0 dy=0 dh=-5 dv=0 dx=0 dy=0 dh=0 dv=0
PairPos2: "'kern' Horizontal Kerning in Latin lookup 0 per glyph data 1" oe dx=0 dy=0 dh=-5 dv=0 dx=0 dy=0 dh=0 dv=0
PairPos2: "'kern' Horizontal Kerning in Latin lookup 0 per glyph data 1" ohungarumlaut dx=0 dy=0 dh=-5 dv=0 dx=0 dy=0 dh=0 dv=0
PairPos2: "'kern' Horizontal Kerning in Latin lookup 0 per glyph data 1" omacron dx=0 dy=0 dh=-5 dv=0 dx=0 dy=0 dh=0 dv=0
PairPos2: "'kern' Horizontal Kerning in Latin lookup 0 per glyph data 1" gcommaaccent dx=0 dy=0 dh=-5 dv=0 dx=0 dy=0 dh=0 dv=0
PairPos2: "'kern' Horizontal Kerning in Latin lookup 0 per glyph data 1" gdotaccent dx=0 dy=0 dh=-5 dv=0 dx=0 dy=0 dh=0 dv=0
PairPos2: "'kern' Horizontal Kerning in Latin lookup 0 per glyph data 1" gbreve dx=0 dy=0 dh=-5 dv=0 dx=0 dy=0 dh=0 dv=0
PairPos2: "'kern' Horizontal Kerning in Latin lookup 0 per glyph data 1" gcircumflex dx=0 dy=0 dh=-5 dv=0 dx=0 dy=0 dh=0 dv=0
PairPos2: "'kern' Horizontal Kerning in Latin lookup 0 per glyph data 1" ecaron dx=0 dy=0 dh=-5 dv=0 dx=0 dy=0 dh=0 dv=0
PairPos2: "'kern' Horizontal Kerning in Latin lookup 0 per glyph data 1" eogonek dx=0 dy=0 dh=-5 dv=0 dx=0 dy=0 dh=0 dv=0
PairPos2: "'kern' Horizontal Kerning in Latin lookup 0 per glyph data 1" edotaccent dx=0 dy=0 dh=-5 dv=0 dx=0 dy=0 dh=0 dv=0
PairPos2: "'kern' Horizontal Kerning in Latin lookup 0 per glyph data 1" emacron dx=0 dy=0 dh=-5 dv=0 dx=0 dy=0 dh=0 dv=0
PairPos2: "'kern' Horizontal Kerning in Latin lookup 0 per glyph data 1" dcroat dx=0 dy=0 dh=-5 dv=0 dx=0 dy=0 dh=0 dv=0
PairPos2: "'kern' Horizontal Kerning in Latin lookup 0 per glyph data 1" dcaron dx=0 dy=0 dh=-5 dv=0 dx=0 dy=0 dh=0 dv=0
PairPos2: "'kern' Horizontal Kerning in Latin lookup 0 per glyph data 1" ccaron dx=0 dy=0 dh=-5 dv=0 dx=0 dy=0 dh=0 dv=0
PairPos2: "'kern' Horizontal Kerning in Latin lookup 0 per glyph data 1" cdotaccent dx=0 dy=0 dh=-5 dv=0 dx=0 dy=0 dh=0 dv=0
PairPos2: "'kern' Horizontal Kerning in Latin lookup 0 per glyph data 1" ccircumflex dx=0 dy=0 dh=-5 dv=0 dx=0 dy=0 dh=0 dv=0
PairPos2: "'kern' Horizontal Kerning in Latin lookup 0 per glyph data 1" cacute dx=0 dy=0 dh=-5 dv=0 dx=0 dy=0 dh=0 dv=0
PairPos2: "'kern' Horizontal Kerning in Latin lookup 0 per glyph data 1" aogonek dx=0 dy=0 dh=-5 dv=0 dx=0 dy=0 dh=0 dv=0
PairPos2: "'kern' Horizontal Kerning in Latin lookup 0 per glyph data 1" abreve dx=0 dy=0 dh=-5 dv=0 dx=0 dy=0 dh=0 dv=0
PairPos2: "'kern' Horizontal Kerning in Latin lookup 0 per glyph data 1" amacron dx=0 dy=0 dh=-5 dv=0 dx=0 dy=0 dh=0 dv=0
PairPos2: "'kern' Horizontal Kerning in Latin lookup 0 per glyph data 1" odieresis dx=0 dy=0 dh=-5 dv=0 dx=0 dy=0 dh=0 dv=0
PairPos2: "'kern' Horizontal Kerning in Latin lookup 0 per glyph data 1" otilde dx=0 dy=0 dh=-5 dv=0 dx=0 dy=0 dh=0 dv=0
PairPos2: "'kern' Horizontal Kerning in Latin lookup 0 per glyph data 1" ocircumflex dx=0 dy=0 dh=-5 dv=0 dx=0 dy=0 dh=0 dv=0
PairPos2: "'kern' Horizontal Kerning in Latin lookup 0 per glyph data 1" oacute dx=0 dy=0 dh=-5 dv=0 dx=0 dy=0 dh=0 dv=0
PairPos2: "'kern' Horizontal Kerning in Latin lookup 0 per glyph data 1" ograve dx=0 dy=0 dh=-5 dv=0 dx=0 dy=0 dh=0 dv=0
PairPos2: "'kern' Horizontal Kerning in Latin lookup 0 per glyph data 1" edieresis dx=0 dy=0 dh=-5 dv=0 dx=0 dy=0 dh=0 dv=0
PairPos2: "'kern' Horizontal Kerning in Latin lookup 0 per glyph data 1" ecircumflex dx=0 dy=0 dh=-5 dv=0 dx=0 dy=0 dh=0 dv=0
PairPos2: "'kern' Horizontal Kerning in Latin lookup 0 per glyph data 1" eacute dx=0 dy=0 dh=-5 dv=0 dx=0 dy=0 dh=0 dv=0
PairPos2: "'kern' Horizontal Kerning in Latin lookup 0 per glyph data 1" egrave dx=0 dy=0 dh=-5 dv=0 dx=0 dy=0 dh=0 dv=0
PairPos2: "'kern' Horizontal Kerning in Latin lookup 0 per glyph data 1" ccedilla dx=0 dy=0 dh=-5 dv=0 dx=0 dy=0 dh=0 dv=0
PairPos2: "'kern' Horizontal Kerning in Latin lookup 0 per glyph data 1" ae dx=0 dy=0 dh=-5 dv=0 dx=0 dy=0 dh=0 dv=0
PairPos2: "'kern' Horizontal Kerning in Latin lookup 0 per glyph data 1" aring dx=0 dy=0 dh=-5 dv=0 dx=0 dy=0 dh=0 dv=0
PairPos2: "'kern' Horizontal Kerning in Latin lookup 0 per glyph data 1" adieresis dx=0 dy=0 dh=-5 dv=0 dx=0 dy=0 dh=0 dv=0
PairPos2: "'kern' Horizontal Kerning in Latin lookup 0 per glyph data 1" atilde dx=0 dy=0 dh=-5 dv=0 dx=0 dy=0 dh=0 dv=0
PairPos2: "'kern' Horizontal Kerning in Latin lookup 0 per glyph data 1" acircumflex dx=0 dy=0 dh=-5 dv=0 dx=0 dy=0 dh=0 dv=0
PairPos2: "'kern' Horizontal Kerning in Latin lookup 0 per glyph data 1" aacute dx=0 dy=0 dh=-5 dv=0 dx=0 dy=0 dh=0 dv=0
PairPos2: "'kern' Horizontal Kerning in Latin lookup 0 per glyph data 1" agrave dx=0 dy=0 dh=-5 dv=0 dx=0 dy=0 dh=0 dv=0
PairPos2: "'kern' Horizontal Kerning in Latin lookup 0 per glyph data 1" q dx=0 dy=0 dh=-5 dv=0 dx=0 dy=0 dh=0 dv=0
PairPos2: "'kern' Horizontal Kerning in Latin lookup 0 per glyph data 1" o dx=0 dy=0 dh=-5 dv=0 dx=0 dy=0 dh=0 dv=0
PairPos2: "'kern' Horizontal Kerning in Latin lookup 0 per glyph data 1" g dx=0 dy=0 dh=-5 dv=0 dx=0 dy=0 dh=0 dv=0
PairPos2: "'kern' Horizontal Kerning in Latin lookup 0 per glyph data 1" e dx=0 dy=0 dh=-5 dv=0 dx=0 dy=0 dh=0 dv=0
PairPos2: "'kern' Horizontal Kerning in Latin lookup 0 per glyph data 1" d dx=0 dy=0 dh=-5 dv=0 dx=0 dy=0 dh=0 dv=0
PairPos2: "'kern' Horizontal Kerning in Latin lookup 0 per glyph data 1" c dx=0 dy=0 dh=-5 dv=0 dx=0 dy=0 dh=0 dv=0
PairPos2: "'kern' Horizontal Kerning in Latin lookup 0 per glyph data 1" a dx=0 dy=0 dh=-5 dv=0 dx=0 dy=0 dh=0 dv=0
EndChar

StartChar: e
Encoding: 101 101 72
Width: 472
GlyphClass: 2
Flags: W
LayerCount: 2
Fore
SplineSet
270 416 m 1,0,1
 246 395 246 395 213.5 348 c 128,-1,2
 181 301 181 301 167 260 c 1,3,4
 223 265 223 265 265 279 c 128,-1,5
 307 293 307 293 326 310 c 0,6,7
 364 343 364 343 364 369.5 c 128,-1,8
 364 396 364 396 349 411 c 128,-1,9
 334 426 334 426 311.5 426 c 128,-1,10
 289 426 289 426 270 416 c 1,0,1
156 212 m 1,11,12
 154 190 154 190 154 186 c 0,13,14
 154 142 154 142 173 112.5 c 128,-1,15
 192 83 192 83 232 83 c 0,16,17
 309 83 309 83 369 133 c 0,18,19
 370 134 370 134 375 134 c 128,-1,20
 380 134 380 134 388 126 c 128,-1,21
 396 118 396 118 396 109 c 128,-1,22
 396 100 396 100 366 72 c 128,-1,23
 336 44 336 44 280 17 c 128,-1,24
 224 -10 224 -10 167 -10 c 128,-1,25
 110 -10 110 -10 72.5 28 c 128,-1,26
 35 66 35 66 35 128 c 128,-1,27
 35 190 35 190 65 255 c 128,-1,28
 95 320 95 320 142.5 374 c 128,-1,29
 190 428 190 428 255 464 c 128,-1,30
 320 500 320 500 374 500 c 128,-1,31
 428 500 428 500 457.5 476.5 c 128,-1,32
 487 453 487 453 487 411 c 0,33,34
 487 357 487 357 452 312 c 0,35,36
 378 220 378 220 156 212 c 1,11,12
EndSplineSet
Substitution2: "Single Substitution lookup 25 subtable" e.alt.001
Substitution2: "Single Substitution lookup 24 subtable" e.alt
Substitution2: "'ornm' Ornaments in Latin lookup 23 subtable" icon5
Substitution2: "'smcp' Lowercase to Small Capitals in Latin lookup 2 subtable" E.smcp
AlternateSubs2: "'aalt' Access All Alternates in Latin lookup 1 subtable" E.smcp e.alt e.alt.001 icon5
EndChar

StartChar: f
Encoding: 102 102 73
Width: 371
GlyphClass: 2
Flags: W
LayerCount: 2
Fore
SplineSet
401 389 m 0,0,1
 397 389 397 389 313 395 c 1,2,3
 298 352 298 352 275.5 281.5 c 128,-1,4
 253 211 253 211 237.5 163.5 c 128,-1,5
 222 116 222 116 198 53.5 c 128,-1,6
 174 -9 174 -9 153 -51.5 c 128,-1,7
 132 -94 132 -94 100.5 -139 c 128,-1,8
 69 -184 69 -184 36 -210 c 0,9,10
 -41 -272 -41 -272 -136 -272 c 0,11,12
 -195 -272 -195 -272 -227.5 -244.5 c 128,-1,13
 -260 -217 -260 -217 -260 -171.5 c 128,-1,14
 -260 -126 -260 -126 -221 -96 c 128,-1,15
 -182 -66 -182 -66 -157 -66 c 0,16,17
 -155 -66 -155 -66 -151.5 -72 c 128,-1,18
 -148 -78 -148 -78 -148 -79.5 c 128,-1,19
 -148 -81 -148 -81 -150 -87 c 0,20,21
 -155 -102 -155 -102 -155 -126 c 0,22,23
 -155 -216 -155 -216 -112 -216 c 0,24,25
 -36 -216 -36 -216 22 -74 c 0,26,27
 50 -5 50 -5 72 66 c 0,28,29
 154 325 154 325 186 402 c 1,30,31
 117 402 117 402 117 380 c 1,32,33
 104 380 104 380 93 391 c 128,-1,34
 82 402 82 402 82 424.5 c 128,-1,35
 82 447 82 447 109 462 c 128,-1,36
 136 477 136 477 188 477 c 2,37,-1
 218 477 l 1,38,39
 274 591 274 591 345.5 655.5 c 128,-1,40
 417 720 417 720 514 720 c 0,41,42
 582 720 582 720 626.5 701.5 c 128,-1,43
 671 683 671 683 671 643 c 128,-1,44
 671 603 671 603 631.5 576.5 c 128,-1,45
 592 550 592 550 554 550 c 0,46,47
 551 550 551 550 548 553.5 c 128,-1,48
 545 557 545 557 545 558.5 c 128,-1,49
 545 560 545 560 549.5 573 c 128,-1,50
 554 586 554 586 554 601 c 128,-1,51
 554 616 554 616 547.5 628.5 c 128,-1,52
 541 641 541 641 531.5 647.5 c 128,-1,53
 522 654 522 654 506 658 c 0,54,55
 480 663 480 663 441 663 c 1,56,57
 390 596 390 596 343 477 c 1,58,59
 457 479 457 479 504 479 c 1,60,61
 509 472 509 472 509 461 c 1,62,63
 485 389 485 389 401 389 c 0,0,1
EndSplineSet
Substitution2: "Single Substitution lookup 24 subtable" f.alt
Substitution2: "'ornm' Ornaments in Latin lookup 23 subtable" diego
Substitution2: "'smcp' Lowercase to Small Capitals in Latin lookup 2 subtable" F.smcp
AlternateSubs2: "'aalt' Access All Alternates in Latin lookup 1 subtable" F.smcp f.alt diego
PairPos2: "'kern' Horizontal Kerning in Latin lookup 0 per glyph data 1" c_k dx=0 dy=0 dh=10 dv=0 dx=0 dy=0 dh=0 dv=0
PairPos2: "'kern' Horizontal Kerning in Latin lookup 0 per glyph data 1" c_h dx=0 dy=0 dh=10 dv=0 dx=0 dy=0 dh=0 dv=0
PairPos2: "'kern' Horizontal Kerning in Latin lookup 0 per glyph data 1" odieresis.alt dx=0 dy=0 dh=10 dv=0 dx=0 dy=0 dh=0 dv=0
PairPos2: "'kern' Horizontal Kerning in Latin lookup 0 per glyph data 1" otilde.alt dx=0 dy=0 dh=10 dv=0 dx=0 dy=0 dh=0 dv=0
PairPos2: "'kern' Horizontal Kerning in Latin lookup 0 per glyph data 1" ocircumflex.alt dx=0 dy=0 dh=10 dv=0 dx=0 dy=0 dh=0 dv=0
PairPos2: "'kern' Horizontal Kerning in Latin lookup 0 per glyph data 1" ograve.alt dx=0 dy=0 dh=10 dv=0 dx=0 dy=0 dh=0 dv=0
PairPos2: "'kern' Horizontal Kerning in Latin lookup 0 per glyph data 1" oacute.alt dx=0 dy=0 dh=10 dv=0 dx=0 dy=0 dh=0 dv=0
PairPos2: "'kern' Horizontal Kerning in Latin lookup 0 per glyph data 1" o.fina dx=0 dy=0 dh=10 dv=0 dx=0 dy=0 dh=0 dv=0
PairPos2: "'kern' Horizontal Kerning in Latin lookup 0 per glyph data 1" o.alt dx=0 dy=0 dh=10 dv=0 dx=0 dy=0 dh=0 dv=0
PairPos2: "'kern' Horizontal Kerning in Latin lookup 0 per glyph data 1" d.alt dx=0 dy=0 dh=10 dv=0 dx=0 dy=0 dh=0 dv=0
PairPos2: "'kern' Horizontal Kerning in Latin lookup 0 per glyph data 1" c_t dx=0 dy=0 dh=10 dv=0 dx=0 dy=0 dh=0 dv=0
PairPos2: "'kern' Horizontal Kerning in Latin lookup 0 per glyph data 1" c_l dx=0 dy=0 dh=10 dv=0 dx=0 dy=0 dh=0 dv=0
PairPos2: "'kern' Horizontal Kerning in Latin lookup 0 per glyph data 1" aring.alt dx=0 dy=0 dh=10 dv=0 dx=0 dy=0 dh=0 dv=0
PairPos2: "'kern' Horizontal Kerning in Latin lookup 0 per glyph data 1" atilde.alt dx=0 dy=0 dh=10 dv=0 dx=0 dy=0 dh=0 dv=0
PairPos2: "'kern' Horizontal Kerning in Latin lookup 0 per glyph data 1" adieresis.alt dx=0 dy=0 dh=10 dv=0 dx=0 dy=0 dh=0 dv=0
PairPos2: "'kern' Horizontal Kerning in Latin lookup 0 per glyph data 1" acircumflex.alt dx=0 dy=0 dh=10 dv=0 dx=0 dy=0 dh=0 dv=0
PairPos2: "'kern' Horizontal Kerning in Latin lookup 0 per glyph data 1" agrave.alt dx=0 dy=0 dh=10 dv=0 dx=0 dy=0 dh=0 dv=0
PairPos2: "'kern' Horizontal Kerning in Latin lookup 0 per glyph data 1" aacute.alt dx=0 dy=0 dh=10 dv=0 dx=0 dy=0 dh=0 dv=0
PairPos2: "'kern' Horizontal Kerning in Latin lookup 0 per glyph data 1" a.alt dx=0 dy=0 dh=10 dv=0 dx=0 dy=0 dh=0 dv=0
PairPos2: "'kern' Horizontal Kerning in Latin lookup 0 per glyph data 1" guilsinglright dx=0 dy=0 dh=35 dv=0 dx=0 dy=0 dh=0 dv=0
PairPos2: "'kern' Horizontal Kerning in Latin lookup 0 per glyph data 1" ellipsis dx=0 dy=0 dh=-45 dv=0 dx=0 dy=0 dh=0 dv=0
PairPos2: "'kern' Horizontal Kerning in Latin lookup 0 per glyph data 1" quotedblbase dx=0 dy=0 dh=-45 dv=0 dx=0 dy=0 dh=0 dv=0
PairPos2: "'kern' Horizontal Kerning in Latin lookup 0 per glyph data 1" quotedblright dx=0 dy=0 dh=215 dv=0 dx=0 dy=0 dh=0 dv=0
PairPos2: "'kern' Horizontal Kerning in Latin lookup 0 per glyph data 1" quotesinglbase dx=0 dy=0 dh=-45 dv=0 dx=0 dy=0 dh=0 dv=0
PairPos2: "'kern' Horizontal Kerning in Latin lookup 0 per glyph data 1" quoteright dx=0 dy=0 dh=215 dv=0 dx=0 dy=0 dh=0 dv=0
PairPos2: "'kern' Horizontal Kerning in Latin lookup 0 per glyph data 1" quoteleft dx=0 dy=0 dh=195 dv=0 dx=0 dy=0 dh=0 dv=0
PairPos2: "'kern' Horizontal Kerning in Latin lookup 0 per glyph data 1" emdash dx=0 dy=0 dh=-30 dv=0 dx=0 dy=0 dh=0 dv=0
PairPos2: "'kern' Horizontal Kerning in Latin lookup 0 per glyph data 1" endash dx=0 dy=0 dh=-30 dv=0 dx=0 dy=0 dh=0 dv=0
PairPos2: "'kern' Horizontal Kerning in Latin lookup 0 per glyph data 1" oe dx=0 dy=0 dh=10 dv=0 dx=0 dy=0 dh=0 dv=0
PairPos2: "'kern' Horizontal Kerning in Latin lookup 0 per glyph data 1" ohungarumlaut dx=0 dy=0 dh=10 dv=0 dx=0 dy=0 dh=0 dv=0
PairPos2: "'kern' Horizontal Kerning in Latin lookup 0 per glyph data 1" omacron dx=0 dy=0 dh=10 dv=0 dx=0 dy=0 dh=0 dv=0
PairPos2: "'kern' Horizontal Kerning in Latin lookup 0 per glyph data 1" gcommaaccent dx=0 dy=0 dh=10 dv=0 dx=0 dy=0 dh=0 dv=0
PairPos2: "'kern' Horizontal Kerning in Latin lookup 0 per glyph data 1" gdotaccent dx=0 dy=0 dh=10 dv=0 dx=0 dy=0 dh=0 dv=0
PairPos2: "'kern' Horizontal Kerning in Latin lookup 0 per glyph data 1" gbreve dx=0 dy=0 dh=10 dv=0 dx=0 dy=0 dh=0 dv=0
PairPos2: "'kern' Horizontal Kerning in Latin lookup 0 per glyph data 1" gcircumflex dx=0 dy=0 dh=10 dv=0 dx=0 dy=0 dh=0 dv=0
PairPos2: "'kern' Horizontal Kerning in Latin lookup 0 per glyph data 1" ecaron dx=0 dy=0 dh=10 dv=0 dx=0 dy=0 dh=0 dv=0
PairPos2: "'kern' Horizontal Kerning in Latin lookup 0 per glyph data 1" eogonek dx=0 dy=0 dh=10 dv=0 dx=0 dy=0 dh=0 dv=0
PairPos2: "'kern' Horizontal Kerning in Latin lookup 0 per glyph data 1" edotaccent dx=0 dy=0 dh=10 dv=0 dx=0 dy=0 dh=0 dv=0
PairPos2: "'kern' Horizontal Kerning in Latin lookup 0 per glyph data 1" emacron dx=0 dy=0 dh=10 dv=0 dx=0 dy=0 dh=0 dv=0
PairPos2: "'kern' Horizontal Kerning in Latin lookup 0 per glyph data 1" dcroat dx=0 dy=0 dh=10 dv=0 dx=0 dy=0 dh=0 dv=0
PairPos2: "'kern' Horizontal Kerning in Latin lookup 0 per glyph data 1" dcaron dx=0 dy=0 dh=10 dv=0 dx=0 dy=0 dh=0 dv=0
PairPos2: "'kern' Horizontal Kerning in Latin lookup 0 per glyph data 1" ccaron dx=0 dy=0 dh=10 dv=0 dx=0 dy=0 dh=0 dv=0
PairPos2: "'kern' Horizontal Kerning in Latin lookup 0 per glyph data 1" cdotaccent dx=0 dy=0 dh=10 dv=0 dx=0 dy=0 dh=0 dv=0
PairPos2: "'kern' Horizontal Kerning in Latin lookup 0 per glyph data 1" ccircumflex dx=0 dy=0 dh=10 dv=0 dx=0 dy=0 dh=0 dv=0
PairPos2: "'kern' Horizontal Kerning in Latin lookup 0 per glyph data 1" cacute dx=0 dy=0 dh=10 dv=0 dx=0 dy=0 dh=0 dv=0
PairPos2: "'kern' Horizontal Kerning in Latin lookup 0 per glyph data 1" aogonek dx=0 dy=0 dh=10 dv=0 dx=0 dy=0 dh=0 dv=0
PairPos2: "'kern' Horizontal Kerning in Latin lookup 0 per glyph data 1" abreve dx=0 dy=0 dh=10 dv=0 dx=0 dy=0 dh=0 dv=0
PairPos2: "'kern' Horizontal Kerning in Latin lookup 0 per glyph data 1" amacron dx=0 dy=0 dh=10 dv=0 dx=0 dy=0 dh=0 dv=0
PairPos2: "'kern' Horizontal Kerning in Latin lookup 0 per glyph data 1" odieresis dx=0 dy=0 dh=10 dv=0 dx=0 dy=0 dh=0 dv=0
PairPos2: "'kern' Horizontal Kerning in Latin lookup 0 per glyph data 1" otilde dx=0 dy=0 dh=10 dv=0 dx=0 dy=0 dh=0 dv=0
PairPos2: "'kern' Horizontal Kerning in Latin lookup 0 per glyph data 1" ocircumflex dx=0 dy=0 dh=10 dv=0 dx=0 dy=0 dh=0 dv=0
PairPos2: "'kern' Horizontal Kerning in Latin lookup 0 per glyph data 1" oacute dx=0 dy=0 dh=10 dv=0 dx=0 dy=0 dh=0 dv=0
PairPos2: "'kern' Horizontal Kerning in Latin lookup 0 per glyph data 1" ograve dx=0 dy=0 dh=10 dv=0 dx=0 dy=0 dh=0 dv=0
PairPos2: "'kern' Horizontal Kerning in Latin lookup 0 per glyph data 1" edieresis dx=0 dy=0 dh=10 dv=0 dx=0 dy=0 dh=0 dv=0
PairPos2: "'kern' Horizontal Kerning in Latin lookup 0 per glyph data 1" ecircumflex dx=0 dy=0 dh=10 dv=0 dx=0 dy=0 dh=0 dv=0
PairPos2: "'kern' Horizontal Kerning in Latin lookup 0 per glyph data 1" eacute dx=0 dy=0 dh=10 dv=0 dx=0 dy=0 dh=0 dv=0
PairPos2: "'kern' Horizontal Kerning in Latin lookup 0 per glyph data 1" egrave dx=0 dy=0 dh=10 dv=0 dx=0 dy=0 dh=0 dv=0
PairPos2: "'kern' Horizontal Kerning in Latin lookup 0 per glyph data 1" ccedilla dx=0 dy=0 dh=10 dv=0 dx=0 dy=0 dh=0 dv=0
PairPos2: "'kern' Horizontal Kerning in Latin lookup 0 per glyph data 1" ae dx=0 dy=0 dh=10 dv=0 dx=0 dy=0 dh=0 dv=0
PairPos2: "'kern' Horizontal Kerning in Latin lookup 0 per glyph data 1" aring dx=0 dy=0 dh=10 dv=0 dx=0 dy=0 dh=0 dv=0
PairPos2: "'kern' Horizontal Kerning in Latin lookup 0 per glyph data 1" adieresis dx=0 dy=0 dh=10 dv=0 dx=0 dy=0 dh=0 dv=0
PairPos2: "'kern' Horizontal Kerning in Latin lookup 0 per glyph data 1" atilde dx=0 dy=0 dh=10 dv=0 dx=0 dy=0 dh=0 dv=0
PairPos2: "'kern' Horizontal Kerning in Latin lookup 0 per glyph data 1" acircumflex dx=0 dy=0 dh=10 dv=0 dx=0 dy=0 dh=0 dv=0
PairPos2: "'kern' Horizontal Kerning in Latin lookup 0 per glyph data 1" aacute dx=0 dy=0 dh=10 dv=0 dx=0 dy=0 dh=0 dv=0
PairPos2: "'kern' Horizontal Kerning in Latin lookup 0 per glyph data 1" agrave dx=0 dy=0 dh=10 dv=0 dx=0 dy=0 dh=0 dv=0
PairPos2: "'kern' Horizontal Kerning in Latin lookup 0 per glyph data 1" periodcentered dx=0 dy=0 dh=-30 dv=0 dx=0 dy=0 dh=0 dv=0
PairPos2: "'kern' Horizontal Kerning in Latin lookup 0 per glyph data 1" q dx=0 dy=0 dh=10 dv=0 dx=0 dy=0 dh=0 dv=0
PairPos2: "'kern' Horizontal Kerning in Latin lookup 0 per glyph data 1" o dx=0 dy=0 dh=10 dv=0 dx=0 dy=0 dh=0 dv=0
PairPos2: "'kern' Horizontal Kerning in Latin lookup 0 per glyph data 1" g dx=0 dy=0 dh=10 dv=0 dx=0 dy=0 dh=0 dv=0
PairPos2: "'kern' Horizontal Kerning in Latin lookup 0 per glyph data 1" e dx=0 dy=0 dh=10 dv=0 dx=0 dy=0 dh=0 dv=0
PairPos2: "'kern' Horizontal Kerning in Latin lookup 0 per glyph data 1" d dx=0 dy=0 dh=10 dv=0 dx=0 dy=0 dh=0 dv=0
PairPos2: "'kern' Horizontal Kerning in Latin lookup 0 per glyph data 1" c dx=0 dy=0 dh=10 dv=0 dx=0 dy=0 dh=0 dv=0
PairPos2: "'kern' Horizontal Kerning in Latin lookup 0 per glyph data 1" a dx=0 dy=0 dh=10 dv=0 dx=0 dy=0 dh=0 dv=0
PairPos2: "'kern' Horizontal Kerning in Latin lookup 0 per glyph data 1" bracketright dx=0 dy=0 dh=206 dv=0 dx=0 dy=0 dh=0 dv=0
PairPos2: "'kern' Horizontal Kerning in Latin lookup 0 per glyph data 1" backslash dx=0 dy=0 dh=220 dv=0 dx=0 dy=0 dh=0 dv=0
PairPos2: "'kern' Horizontal Kerning in Latin lookup 0 per glyph data 1" question dx=0 dy=0 dh=153 dv=0 dx=0 dy=0 dh=0 dv=0
PairPos2: "'kern' Horizontal Kerning in Latin lookup 0 per glyph data 1" period dx=0 dy=0 dh=-45 dv=0 dx=0 dy=0 dh=0 dv=0
PairPos2: "'kern' Horizontal Kerning in Latin lookup 0 per glyph data 1" hyphen dx=0 dy=0 dh=-30 dv=0 dx=0 dy=0 dh=0 dv=0
PairPos2: "'kern' Horizontal Kerning in Latin lookup 0 per glyph data 1" comma dx=0 dy=0 dh=-45 dv=0 dx=0 dy=0 dh=0 dv=0
PairPos2: "'kern' Horizontal Kerning in Latin lookup 0 per glyph data 1" parenright dx=0 dy=0 dh=160 dv=0 dx=0 dy=0 dh=0 dv=0
PairPos2: "'kern' Horizontal Kerning in Latin lookup 0 per glyph data 1" ampersand dx=0 dy=0 dh=45 dv=0 dx=0 dy=0 dh=0 dv=0
PairPos2: "'kern' Horizontal Kerning in Latin lookup 0 per glyph data 1" exclam dx=0 dy=0 dh=47 dv=0 dx=0 dy=0 dh=0 dv=0
EndChar

StartChar: g
Encoding: 103 103 74
Width: 564
GlyphClass: 2
Flags: W
LayerCount: 2
Fore
SplineSet
415 390 m 1,0,1
 405 406 405 406 388 416 c 128,-1,2
 371 426 371 426 360 428 c 2,3,-1
 348 430 l 1,4,5
 276 386 276 386 215.5 290.5 c 128,-1,6
 155 195 155 195 155 116 c 0,7,8
 155 99 155 99 163.5 89.5 c 128,-1,9
 172 80 172 80 183 80 c 0,10,11
 212 80 212 80 248 106 c 128,-1,12
 284 132 284 132 306 158 c 2,13,-1
 328 184 l 1,14,15
 353 276 353 276 415 390 c 1,0,1
484 266 m 1,16,17
 399 -31 399 -31 293 -155 c 0,18,19
 194 -271 194 -271 69 -271 c 0,20,21
 18 -271 18 -271 -33 -250 c 0,22,23
 -59 -240 -59 -240 -75 -218.5 c 128,-1,24
 -91 -197 -91 -197 -91 -168 c 0,25,26
 -91 -115 -91 -115 -48 -76 c 128,-1,27
 -5 -37 -5 -37 31 -37 c 0,28,29
 47 -37 47 -37 47 -47 c 0,30,31
 47 -48 47 -48 38 -78 c 128,-1,32
 29 -108 29 -108 29 -135.5 c 128,-1,33
 29 -163 29 -163 46 -186 c 128,-1,34
 63 -209 63 -209 99 -209 c 128,-1,35
 135 -209 135 -209 171 -177.5 c 128,-1,36
 207 -146 207 -146 230 -101 c 0,37,38
 277 -9 277 -9 296 66 c 2,39,-1
 304 97 l 2,40,41
 304 98 304 98 305 99 c 1,42,43
 207 -12 207 -12 125 -12 c 0,44,45
 79 -12 79 -12 53.5 19 c 128,-1,46
 28 50 28 50 28 111 c 128,-1,47
 28 172 28 172 78 264 c 128,-1,48
 128 356 128 356 205 424 c 128,-1,49
 282 492 282 492 349 492 c 0,50,51
 379 492 379 492 405.5 477 c 128,-1,52
 432 462 432 462 444 442 c 1,53,54
 507 541 507 541 548 541 c 0,55,56
 568 541 568 541 582 519.5 c 128,-1,57
 596 498 596 498 596 476 c 0,58,59
 596 417 596 417 484 266 c 1,16,17
EndSplineSet
Substitution2: "Single Substitution lookup 24 subtable" g.alt
Substitution2: "'ornm' Ornaments in Latin lookup 23 subtable" fleuron10
Substitution2: "'smcp' Lowercase to Small Capitals in Latin lookup 2 subtable" G.smcp
AlternateSubs2: "'aalt' Access All Alternates in Latin lookup 1 subtable" G.smcp g.alt fleuron10
EndChar

StartChar: h
Encoding: 104 104 75
Width: 576
GlyphClass: 2
Flags: W
LayerCount: 2
Fore
SplineSet
152 704 m 2,0,-1
 267 700 l 1,1,2
 310 700 310 700 333 710.5 c 128,-1,3
 356 721 356 721 359.5 721 c 128,-1,4
 363 721 363 721 367.5 713 c 128,-1,5
 372 705 372 705 372 701 c 0,6,7
 372 620 372 620 230 346 c 1,8,-1
 235 342 l 1,9,10
 255 376 255 376 334 439.5 c 128,-1,11
 413 503 413 503 454.5 503 c 128,-1,12
 496 503 496 503 516 480 c 128,-1,13
 536 457 536 457 536 421 c 0,14,15
 536 367 536 367 479.5 237 c 128,-1,16
 423 107 423 107 423 72 c 0,17,18
 423 60 423 60 433 60 c 0,19,20
 458 60 458 60 492 84 c 1,21,-1
 504 92 l 1,22,23
 510 92 510 92 516 80 c 128,-1,24
 522 68 522 68 522 61 c 128,-1,25
 522 54 522 54 501.5 38 c 128,-1,26
 481 22 481 22 440.5 6 c 128,-1,27
 400 -10 400 -10 357 -10 c 0,28,29
 292 -10 292 -10 292 44 c 0,30,31
 292 78 292 78 344.5 201.5 c 128,-1,32
 397 325 397 325 397 382 c 0,33,34
 397 395 397 395 391.5 403 c 128,-1,35
 386 411 386 411 376 413 c 1,36,37
 365 406 365 406 346.5 393.5 c 128,-1,38
 328 381 328 381 287 341.5 c 128,-1,39
 246 302 246 302 222 261 c 1,40,41
 200 161 200 161 155 76.5 c 128,-1,42
 110 -8 110 -8 85 -8 c 128,-1,43
 60 -8 60 -8 32.5 1.5 c 128,-1,44
 5 11 5 11 5 30 c 0,45,46
 5 64 5 64 31.5 116 c 128,-1,47
 58 168 58 168 84 203 c 2,48,-1
 111 238 l 1,49,50
 156 330 156 330 186 446 c 128,-1,51
 216 562 216 562 216 627 c 0,52,53
 216 654 216 654 151 659 c 0,54,55
 143 660 143 660 141 662 c 128,-1,56
 139 664 139 664 139 673 c 128,-1,57
 139 682 139 682 144 693 c 128,-1,58
 149 704 149 704 152 704 c 2,0,-1
EndSplineSet
Substitution2: "Single Substitution lookup 24 subtable" h.alt
Substitution2: "'ornm' Ornaments in Latin lookup 23 subtable" apple1.alt
Substitution2: "'smcp' Lowercase to Small Capitals in Latin lookup 2 subtable" H.smcp
AlternateSubs2: "'aalt' Access All Alternates in Latin lookup 1 subtable" H.smcp h.alt apple1.alt
EndChar

StartChar: i
Encoding: 105 105 76
Width: 325
GlyphClass: 2
Flags: W
LayerCount: 2
Fore
SplineSet
365 586 m 1,0,1
 345 576 345 576 294 576 c 128,-1,2
 243 576 243 576 223 582 c 1,3,4
 231 611 231 611 231 636 c 128,-1,5
 231 661 231 661 230 669 c 1,6,7
 241 686 241 686 293 701.5 c 128,-1,8
 345 717 345 717 394 717 c 0,9,10
 400 717 400 717 400 695 c 128,-1,11
 400 673 400 673 389 635 c 128,-1,12
 378 597 378 597 365 586 c 1,0,1
275 61 m 128,-1,14
 275 54 275 54 254.5 38 c 128,-1,15
 234 22 234 22 193.5 6 c 128,-1,16
 153 -10 153 -10 110 -10 c 0,17,18
 45 -10 45 -10 45 44 c 0,19,20
 45 93 45 93 76 168.5 c 128,-1,21
 107 244 107 244 138.5 312 c 128,-1,22
 170 380 170 380 170 411 c 0,23,24
 170 421 170 421 162 421 c 0,25,26
 151 421 151 421 130.5 411.5 c 128,-1,27
 110 402 110 402 105 402 c 128,-1,28
 100 402 100 402 93.5 415.5 c 128,-1,29
 87 429 87 429 87 436 c 0,30,31
 87 441 87 441 116 455.5 c 128,-1,32
 145 470 145 470 189 483.5 c 128,-1,33
 233 497 233 497 257.5 497 c 128,-1,34
 282 497 282 497 303 485.5 c 128,-1,35
 324 474 324 474 324 457.5 c 128,-1,36
 324 441 324 441 287.5 364 c 128,-1,37
 251 287 251 287 214 200 c 128,-1,38
 177 113 177 113 177 72 c 0,39,40
 177 60 177 60 187 60 c 0,41,42
 211 60 211 60 246 84 c 1,43,-1
 257 92 l 1,44,45
 263 92 263 92 269 80 c 128,-1,13
 275 68 275 68 275 61 c 128,-1,14
EndSplineSet
Substitution2: "Single Substitution lookup 24 subtable" i.alt
Substitution2: "'ornm' Ornaments in Latin lookup 23 subtable" apple2.alt
Substitution2: "'smcp' Lowercase to Small Capitals in Latin lookup 2 subtable" I.smcp
AlternateSubs2: "'aalt' Access All Alternates in Latin lookup 1 subtable" I.smcp i.alt apple2.alt
EndChar

StartChar: j
Encoding: 106 106 77
Width: 311
GlyphClass: 2
Flags: W
LayerCount: 2
Fore
SplineSet
365 586 m 1,0,1
 345 576 345 576 294 576 c 128,-1,2
 243 576 243 576 223 582 c 1,3,4
 231 611 231 611 231 636 c 128,-1,5
 231 661 231 661 230 669 c 1,6,7
 241 686 241 686 293 701.5 c 128,-1,8
 345 717 345 717 394 717 c 0,9,10
 400 717 400 717 400 695 c 128,-1,11
 400 673 400 673 389 635 c 128,-1,12
 378 597 378 597 365 586 c 1,0,1
303 398.5 m 128,-1,14
 292 370 292 370 237.5 213 c 128,-1,15
 183 56 183 56 162 2 c 128,-1,16
 141 -52 141 -52 117.5 -94.5 c 128,-1,17
 94 -137 94 -137 58.5 -180.5 c 128,-1,18
 23 -224 23 -224 -26.5 -248 c 128,-1,19
 -76 -272 -76 -272 -135 -272 c 128,-1,20
 -194 -272 -194 -272 -226.5 -243 c 128,-1,21
 -259 -214 -259 -214 -259 -164.5 c 128,-1,22
 -259 -115 -259 -115 -215.5 -76 c 128,-1,23
 -172 -37 -172 -37 -137 -37 c 0,24,25
 -121 -37 -121 -37 -121 -47 c 0,26,27
 -121 -48 -121 -48 -130 -78 c 128,-1,28
 -139 -108 -139 -108 -139 -131 c 0,29,30
 -139 -210 -139 -210 -82 -210 c 0,31,32
 -34 -210 -34 -210 -10 -148 c 0,33,34
 7 -105 7 -105 23.5 -33 c 128,-1,35
 40 39 40 39 49.5 69.5 c 128,-1,36
 59 100 59 100 90 182 c 0,37,38
 170 392 170 392 170 406.5 c 128,-1,39
 170 421 170 421 162 421 c 0,40,41
 151 421 151 421 130.5 411.5 c 128,-1,42
 110 402 110 402 105 402 c 128,-1,43
 100 402 100 402 93.5 415.5 c 128,-1,44
 87 429 87 429 87 436 c 0,45,46
 87 441 87 441 116 455.5 c 128,-1,47
 145 470 145 470 189 483.5 c 128,-1,48
 233 497 233 497 257.5 497 c 128,-1,49
 282 497 282 497 303 485.5 c 128,-1,50
 324 474 324 474 324 463.5 c 128,-1,51
 324 453 324 453 319 440 c 128,-1,13
 314 427 314 427 303 398.5 c 128,-1,14
EndSplineSet
Substitution2: "'ornm' Ornaments in Latin lookup 23 subtable" flecha1
Substitution2: "'smcp' Lowercase to Small Capitals in Latin lookup 2 subtable" J.smcp
AlternateSubs2: "'aalt' Access All Alternates in Latin lookup 1 subtable" J.smcp flecha1
EndChar

